<ttFont>
    <TTGlyph name="A" xMin="-7" yMin="-8" xMax="752" yMax="757">
      <contour>
        <pt x="749" y="-3" on="1"/>
        <pt x="632" y="0" on="1"/>
        <pt x="556" y="0" on="0"/>
        <pt x="499" y="-8" on="1"/>
        <pt x="493" y="0" on="0"/>
        <pt x="493" y="9" on="1"/>
        <pt x="495" y="17" on="1"/>
        <pt x="534" y="26" on="0"/>
        <pt x="565" y="49" on="0"/>
        <pt x="565" y="77" on="0"/>
        <pt x="551" y="119" on="1"/>
        <pt x="492" y="269" on="1"/>
        <pt x="438" y="272" on="0"/>
        <pt x="363" y="272" on="1"/>
        <pt x="220" y="269" on="1"/>
        <pt x="195" y="205" on="1"/>
        <pt x="145" y="81" on="0"/>
        <pt x="145" y="29" on="1"/>
        <pt x="168" y="28" on="0"/>
        <pt x="215" y="28" on="1"/>
        <pt x="217" y="21" on="0"/>
        <pt x="217" y="3" on="0"/>
        <pt x="215" y="-3" on="1"/>
        <pt x="109" y="0" on="1"/>
        <pt x="46" y="0" on="0"/>
        <pt x="-1" y="-8" on="1"/>
        <pt x="-7" y="-1" on="0"/>
        <pt x="-7" y="9" on="1"/>
        <pt x="-5" y="17" on="1"/>
        <pt x="46" y="31" on="0"/>
        <pt x="93" y="91" on="0"/>
        <pt x="140" y="197" on="1"/>
        <pt x="387" y="757" on="1"/>
        <pt x="403" y="757" on="1"/>
        <pt x="633" y="169" on="1"/>
        <pt x="639" y="150" on="0"/>
        <pt x="690" y="41" on="0"/>
        <pt x="697" y="31" on="1"/>
        <pt x="725" y="28" on="0"/>
        <pt x="749" y="28" on="1"/>
        <pt x="752" y="21" on="0"/>
        <pt x="752" y="3" on="0"/>
      </contour>
      <contour>
        <pt x="235" y="308" on="1"/>
        <pt x="363" y="304" on="1"/>
        <pt x="432" y="304" on="0"/>
        <pt x="479" y="307" on="1"/>
        <pt x="363" y="613" on="1"/>
      </contour>
    </TTGlyph>
    <TTGlyph name="AE" xMin="-7" yMin="-8" xMax="976" yMax="727">
      <contour>
        <pt x="223" y="-3" on="1"/>
        <pt x="112" y="0" on="1"/>
        <pt x="49" y="0" on="0"/>
        <pt x="-1" y="-8" on="1"/>
        <pt x="-7" y="3" on="0"/>
        <pt x="-7" y="8" on="1"/>
        <pt x="-5" y="17" on="1"/>
        <pt x="47" y="31" on="0"/>
        <pt x="104" y="91" on="0"/>
        <pt x="167" y="197" on="1"/>
        <pt x="463" y="691" on="1"/>
        <pt x="447" y="695" on="0"/>
        <pt x="405" y="695" on="1"/>
        <pt x="403" y="700" on="0"/>
        <pt x="403" y="715" on="0"/>
        <pt x="405" y="723" on="1"/>
        <pt x="557" y="720" on="1"/>
        <pt x="709" y="720" on="1"/>
        <pt x="945" y="727" on="1"/>
        <pt x="963" y="727" on="0"/>
        <pt x="963" y="716" on="1"/>
        <pt x="963" y="715" on="0"/>
        <pt x="960" y="692" on="1"/>
        <pt x="949" y="620" on="0"/>
        <pt x="945" y="553" on="1"/>
        <pt x="933" y="547" on="0"/>
        <pt x="914" y="547" on="0"/>
        <pt x="907" y="551" on="1"/>
        <pt x="891" y="651" on="0"/>
        <pt x="888" y="664" on="1"/>
        <pt x="797" y="685" on="0"/>
        <pt x="652" y="685" on="0"/>
        <pt x="624" y="681" on="1"/>
        <pt x="622" y="673" on="0"/>
        <pt x="617" y="616" on="1"/>
        <pt x="612" y="516" on="0"/>
        <pt x="612" y="396" on="1"/>
        <pt x="628" y="392" on="0"/>
        <pt x="767" y="392" on="0"/>
        <pt x="834" y="400" on="0"/>
        <pt x="866" y="424" on="0"/>
        <pt x="873" y="461" on="1"/>
        <pt x="896" y="461" on="0"/>
        <pt x="904" y="455" on="1"/>
        <pt x="895" y="404" on="0"/>
        <pt x="895" y="371" on="1"/>
        <pt x="896" y="284" on="1"/>
        <pt x="890" y="279" on="0"/>
        <pt x="879" y="279" on="1"/>
        <pt x="864" y="281" on="1"/>
        <pt x="853" y="347" on="1"/>
        <pt x="799" y="356" on="0"/>
        <pt x="654" y="356" on="0"/>
        <pt x="612" y="351" on="1"/>
        <pt x="612" y="172" on="1"/>
        <pt x="612" y="77" on="0"/>
        <pt x="619" y="40" on="1"/>
        <pt x="648" y="36" on="0"/>
        <pt x="689" y="36" on="1"/>
        <pt x="792" y="36" on="0"/>
        <pt x="893" y="63" on="1"/>
        <pt x="909" y="86" on="0"/>
        <pt x="936" y="163" on="0"/>
        <pt x="939" y="171" on="1"/>
        <pt x="944" y="172" on="0"/>
        <pt x="964" y="172" on="0"/>
        <pt x="976" y="163" on="1"/>
        <pt x="962" y="91" on="0"/>
        <pt x="955" y="16" on="1"/>
        <pt x="952" y="4" on="0"/>
        <pt x="941" y="3" on="1"/>
        <pt x="899" y="-4" on="0"/>
        <pt x="824" y="-4" on="1"/>
        <pt x="604" y="0" on="1"/>
        <pt x="478" y="0" on="0"/>
        <pt x="433" y="-8" on="1"/>
        <pt x="428" y="-2" on="0"/>
        <pt x="428" y="9" on="1"/>
        <pt x="429" y="17" on="1"/>
        <pt x="464" y="24" on="0"/>
        <pt x="503" y="55" on="0"/>
        <pt x="508" y="69" on="1"/>
        <pt x="523" y="112" on="0"/>
        <pt x="525" y="269" on="1"/>
        <pt x="493" y="271" on="0"/>
        <pt x="409" y="271" on="1"/>
        <pt x="265" y="269" on="1"/>
        <pt x="231" y="205" on="1"/>
        <pt x="160" y="74" on="0"/>
        <pt x="153" y="29" on="1"/>
        <pt x="176" y="28" on="0"/>
        <pt x="223" y="28" on="1"/>
        <pt x="225" y="21" on="0"/>
        <pt x="225" y="9" on="0"/>
      </contour>
      <contour>
        <pt x="287" y="308" on="1"/>
        <pt x="395" y="305" on="0"/>
        <pt x="496" y="305" on="0"/>
        <pt x="527" y="307" on="1"/>
        <pt x="527" y="349" on="1"/>
        <pt x="527" y="525" on="0"/>
        <pt x="522" y="680" on="0"/>
        <pt x="507" y="680" on="1"/>
        <pt x="503" y="680" on="0"/>
        <pt x="500" y="676" on="1"/>
      </contour>
    </TTGlyph>
    <TTGlyph name="Aacute" xMin="-7" yMin="-8" xMax="752" yMax="953">
      <contour>
        <pt x="535" y="895" on="1"/>
        <pt x="343" y="771" on="1"/>
        <pt x="335" y="771" on="0"/>
        <pt x="325" y="781" on="0"/>
        <pt x="323" y="791" on="1"/>
        <pt x="413" y="876" on="0"/>
        <pt x="487" y="953" on="1"/>
        <pt x="525" y="929" on="0"/>
      </contour>
      <contour>
        <pt x="749" y="-3" on="1"/>
        <pt x="632" y="0" on="1"/>
        <pt x="556" y="0" on="0"/>
        <pt x="499" y="-8" on="1"/>
        <pt x="493" y="0" on="0"/>
        <pt x="493" y="9" on="1"/>
        <pt x="495" y="17" on="1"/>
        <pt x="534" y="26" on="0"/>
        <pt x="565" y="49" on="0"/>
        <pt x="565" y="77" on="0"/>
        <pt x="551" y="119" on="1"/>
        <pt x="492" y="269" on="1"/>
        <pt x="438" y="272" on="0"/>
        <pt x="363" y="272" on="1"/>
        <pt x="220" y="269" on="1"/>
        <pt x="195" y="205" on="1"/>
        <pt x="145" y="81" on="0"/>
        <pt x="145" y="29" on="1"/>
        <pt x="168" y="28" on="0"/>
        <pt x="215" y="28" on="1"/>
        <pt x="217" y="21" on="0"/>
        <pt x="217" y="3" on="0"/>
        <pt x="215" y="-3" on="1"/>
        <pt x="109" y="0" on="1"/>
        <pt x="46" y="0" on="0"/>
        <pt x="-1" y="-8" on="1"/>
        <pt x="-7" y="-1" on="0"/>
        <pt x="-7" y="9" on="1"/>
        <pt x="-5" y="17" on="1"/>
        <pt x="46" y="31" on="0"/>
        <pt x="93" y="91" on="0"/>
        <pt x="140" y="197" on="1"/>
        <pt x="387" y="757" on="1"/>
        <pt x="403" y="757" on="1"/>
        <pt x="633" y="169" on="1"/>
        <pt x="639" y="150" on="0"/>
        <pt x="690" y="41" on="0"/>
        <pt x="697" y="31" on="1"/>
        <pt x="725" y="28" on="0"/>
        <pt x="749" y="28" on="1"/>
        <pt x="752" y="21" on="0"/>
        <pt x="752" y="3" on="0"/>
      </contour>
      <contour>
        <pt x="235" y="308" on="1"/>
        <pt x="363" y="304" on="1"/>
        <pt x="432" y="304" on="0"/>
        <pt x="479" y="307" on="1"/>
        <pt x="363" y="613" on="1"/>
      </contour>
    </TTGlyph>
    <TTGlyph name="Acircumflex" xMin="-7" yMin="-8" xMax="752" yMax="944">
      <contour>
        <pt x="544" y="761" on="1"/>
        <pt x="395" y="857" on="1"/>
        <pt x="244" y="761" on="1"/>
        <pt x="236" y="762" on="0"/>
        <pt x="226" y="772" on="0"/>
        <pt x="224" y="781" on="1"/>
        <pt x="315" y="867" on="0"/>
        <pt x="388" y="944" on="1"/>
        <pt x="400" y="944" on="1"/>
        <pt x="472" y="867" on="0"/>
        <pt x="539" y="804" on="1"/>
        <pt x="564" y="781" on="1"/>
        <pt x="561" y="763" on="0"/>
      </contour>
      <contour>
        <pt x="749" y="-3" on="1"/>
        <pt x="632" y="0" on="1"/>
        <pt x="556" y="0" on="0"/>
        <pt x="499" y="-8" on="1"/>
        <pt x="493" y="0" on="0"/>
        <pt x="493" y="9" on="1"/>
        <pt x="495" y="17" on="1"/>
        <pt x="534" y="26" on="0"/>
        <pt x="565" y="49" on="0"/>
        <pt x="565" y="77" on="0"/>
        <pt x="551" y="119" on="1"/>
        <pt x="492" y="269" on="1"/>
        <pt x="438" y="272" on="0"/>
        <pt x="363" y="272" on="1"/>
        <pt x="220" y="269" on="1"/>
        <pt x="195" y="205" on="1"/>
        <pt x="145" y="81" on="0"/>
        <pt x="145" y="29" on="1"/>
        <pt x="168" y="28" on="0"/>
        <pt x="215" y="28" on="1"/>
        <pt x="217" y="21" on="0"/>
        <pt x="217" y="3" on="0"/>
        <pt x="215" y="-3" on="1"/>
        <pt x="109" y="0" on="1"/>
        <pt x="46" y="0" on="0"/>
        <pt x="-1" y="-8" on="1"/>
        <pt x="-7" y="-1" on="0"/>
        <pt x="-7" y="9" on="1"/>
        <pt x="-5" y="17" on="1"/>
        <pt x="46" y="31" on="0"/>
        <pt x="93" y="91" on="0"/>
        <pt x="140" y="197" on="1"/>
        <pt x="387" y="757" on="1"/>
        <pt x="403" y="757" on="1"/>
        <pt x="633" y="169" on="1"/>
        <pt x="639" y="150" on="0"/>
        <pt x="690" y="41" on="0"/>
        <pt x="697" y="31" on="1"/>
        <pt x="725" y="28" on="0"/>
        <pt x="749" y="28" on="1"/>
        <pt x="752" y="21" on="0"/>
        <pt x="752" y="3" on="0"/>
      </contour>
      <contour>
        <pt x="235" y="308" on="1"/>
        <pt x="363" y="304" on="1"/>
        <pt x="432" y="304" on="0"/>
        <pt x="479" y="307" on="1"/>
        <pt x="363" y="613" on="1"/>
      </contour>
    </TTGlyph>
    <TTGlyph name="Adieresis" xMin="-7" yMin="-8" xMax="752" yMax="920">
      <contour>
        <pt x="749" y="-3" on="1"/>
        <pt x="632" y="0" on="1"/>
        <pt x="556" y="0" on="0"/>
        <pt x="499" y="-8" on="1"/>
        <pt x="493" y="0" on="0"/>
        <pt x="493" y="9" on="1"/>
        <pt x="495" y="17" on="1"/>
        <pt x="534" y="26" on="0"/>
        <pt x="565" y="49" on="0"/>
        <pt x="565" y="77" on="0"/>
        <pt x="551" y="119" on="1"/>
        <pt x="492" y="269" on="1"/>
        <pt x="438" y="272" on="0"/>
        <pt x="363" y="272" on="1"/>
        <pt x="220" y="269" on="1"/>
        <pt x="195" y="205" on="1"/>
        <pt x="145" y="81" on="0"/>
        <pt x="145" y="29" on="1"/>
        <pt x="168" y="28" on="0"/>
        <pt x="215" y="28" on="1"/>
        <pt x="217" y="21" on="0"/>
        <pt x="217" y="3" on="0"/>
        <pt x="215" y="-3" on="1"/>
        <pt x="109" y="0" on="1"/>
        <pt x="46" y="0" on="0"/>
        <pt x="-1" y="-8" on="1"/>
        <pt x="-7" y="-1" on="0"/>
        <pt x="-7" y="9" on="1"/>
        <pt x="-5" y="17" on="1"/>
        <pt x="46" y="31" on="0"/>
        <pt x="93" y="91" on="0"/>
        <pt x="140" y="197" on="1"/>
        <pt x="387" y="757" on="1"/>
        <pt x="403" y="757" on="1"/>
        <pt x="633" y="169" on="1"/>
        <pt x="639" y="150" on="0"/>
        <pt x="690" y="41" on="0"/>
        <pt x="697" y="31" on="1"/>
        <pt x="725" y="28" on="0"/>
        <pt x="749" y="28" on="1"/>
        <pt x="752" y="21" on="0"/>
        <pt x="752" y="3" on="0"/>
      </contour>
      <contour>
        <pt x="235" y="308" on="1"/>
        <pt x="363" y="304" on="1"/>
        <pt x="432" y="304" on="0"/>
        <pt x="479" y="307" on="1"/>
        <pt x="363" y="613" on="1"/>
      </contour>
      <contour>
        <pt x="277" y="803" on="1"/>
        <pt x="243" y="827" on="0"/>
        <pt x="227" y="869" on="1"/>
        <pt x="239" y="883" on="0"/>
        <pt x="280" y="914" on="0"/>
        <pt x="295" y="920" on="1"/>
        <pt x="332" y="892" on="0"/>
        <pt x="344" y="853" on="1"/>
        <pt x="316" y="817" on="0"/>
      </contour>
      <contour>
        <pt x="493" y="803" on="1"/>
        <pt x="459" y="827" on="0"/>
        <pt x="443" y="869" on="1"/>
        <pt x="455" y="883" on="0"/>
        <pt x="496" y="914" on="0"/>
        <pt x="511" y="920" on="1"/>
        <pt x="548" y="892" on="0"/>
        <pt x="560" y="853" on="1"/>
        <pt x="532" y="817" on="0"/>
      </contour>
    </TTGlyph>
    <TTGlyph name="Agrave" xMin="-7" yMin="-8" xMax="752" yMax="953">
      <contour>
        <pt x="448" y="771" on="1"/>
        <pt x="256" y="895" on="1"/>
        <pt x="266" y="929" on="0"/>
        <pt x="304" y="953" on="1"/>
        <pt x="368" y="885" on="0"/>
        <pt x="443" y="814" on="1"/>
        <pt x="468" y="791" on="1"/>
        <pt x="465" y="772" on="0"/>
      </contour>
      <contour>
        <pt x="749" y="-3" on="1"/>
        <pt x="632" y="0" on="1"/>
        <pt x="556" y="0" on="0"/>
        <pt x="499" y="-8" on="1"/>
        <pt x="493" y="0" on="0"/>
        <pt x="493" y="9" on="1"/>
        <pt x="495" y="17" on="1"/>
        <pt x="534" y="26" on="0"/>
        <pt x="565" y="49" on="0"/>
        <pt x="565" y="77" on="0"/>
        <pt x="551" y="119" on="1"/>
        <pt x="492" y="269" on="1"/>
        <pt x="438" y="272" on="0"/>
        <pt x="363" y="272" on="1"/>
        <pt x="220" y="269" on="1"/>
        <pt x="195" y="205" on="1"/>
        <pt x="145" y="81" on="0"/>
        <pt x="145" y="29" on="1"/>
        <pt x="168" y="28" on="0"/>
        <pt x="215" y="28" on="1"/>
        <pt x="217" y="21" on="0"/>
        <pt x="217" y="3" on="0"/>
        <pt x="215" y="-3" on="1"/>
        <pt x="109" y="0" on="1"/>
        <pt x="46" y="0" on="0"/>
        <pt x="-1" y="-8" on="1"/>
        <pt x="-7" y="-1" on="0"/>
        <pt x="-7" y="9" on="1"/>
        <pt x="-5" y="17" on="1"/>
        <pt x="46" y="31" on="0"/>
        <pt x="93" y="91" on="0"/>
        <pt x="140" y="197" on="1"/>
        <pt x="387" y="757" on="1"/>
        <pt x="403" y="757" on="1"/>
        <pt x="633" y="169" on="1"/>
        <pt x="639" y="150" on="0"/>
        <pt x="690" y="41" on="0"/>
        <pt x="697" y="31" on="1"/>
        <pt x="725" y="28" on="0"/>
        <pt x="749" y="28" on="1"/>
        <pt x="752" y="21" on="0"/>
        <pt x="752" y="3" on="0"/>
      </contour>
      <contour>
        <pt x="235" y="308" on="1"/>
        <pt x="363" y="304" on="1"/>
        <pt x="432" y="304" on="0"/>
        <pt x="479" y="307" on="1"/>
        <pt x="363" y="613" on="1"/>
      </contour>
    </TTGlyph>
    <TTGlyph name="Aring" xMin="-7" yMin="-8" xMax="752" yMax="979">
      <contour>
        <pt x="749" y="-3" on="1"/>
        <pt x="632" y="0" on="1"/>
        <pt x="556" y="0" on="0"/>
        <pt x="499" y="-8" on="1"/>
        <pt x="493" y="0" on="0"/>
        <pt x="493" y="9" on="1"/>
        <pt x="495" y="17" on="1"/>
        <pt x="534" y="26" on="0"/>
        <pt x="565" y="49" on="0"/>
        <pt x="565" y="77" on="0"/>
        <pt x="551" y="119" on="1"/>
        <pt x="492" y="269" on="1"/>
        <pt x="438" y="272" on="0"/>
        <pt x="363" y="272" on="1"/>
        <pt x="220" y="269" on="1"/>
        <pt x="195" y="205" on="1"/>
        <pt x="145" y="81" on="0"/>
        <pt x="145" y="29" on="1"/>
        <pt x="168" y="28" on="0"/>
        <pt x="215" y="28" on="1"/>
        <pt x="217" y="21" on="0"/>
        <pt x="217" y="3" on="0"/>
        <pt x="215" y="-3" on="1"/>
        <pt x="109" y="0" on="1"/>
        <pt x="46" y="0" on="0"/>
        <pt x="-1" y="-8" on="1"/>
        <pt x="-7" y="-1" on="0"/>
        <pt x="-7" y="9" on="1"/>
        <pt x="-5" y="17" on="1"/>
        <pt x="46" y="31" on="0"/>
        <pt x="93" y="91" on="0"/>
        <pt x="140" y="197" on="1"/>
        <pt x="387" y="757" on="1"/>
        <pt x="403" y="757" on="1"/>
        <pt x="633" y="169" on="1"/>
        <pt x="639" y="150" on="0"/>
        <pt x="690" y="41" on="0"/>
        <pt x="697" y="31" on="1"/>
        <pt x="725" y="28" on="0"/>
        <pt x="749" y="28" on="1"/>
        <pt x="752" y="21" on="0"/>
        <pt x="752" y="3" on="0"/>
      </contour>
      <contour>
        <pt x="235" y="308" on="1"/>
        <pt x="363" y="304" on="1"/>
        <pt x="432" y="304" on="0"/>
        <pt x="479" y="307" on="1"/>
        <pt x="363" y="613" on="1"/>
      </contour>
      <contour>
        <pt x="495" y="879" on="1"/>
        <pt x="495" y="794" on="0"/>
        <pt x="388" y="779" on="1"/>
        <pt x="345" y="779" on="0"/>
        <pt x="285" y="837" on="0"/>
        <pt x="285" y="879" on="1"/>
        <pt x="285" y="962" on="0"/>
        <pt x="393" y="979" on="1"/>
        <pt x="436" y="979" on="0"/>
        <pt x="495" y="920" on="0"/>
      </contour>
      <contour>
        <pt x="397" y="809" on="1"/>
        <pt x="441" y="809" on="0"/>
        <pt x="441" y="865" on="1"/>
        <pt x="441" y="898" on="0"/>
        <pt x="410" y="948" on="0"/>
        <pt x="384" y="948" on="1"/>
        <pt x="339" y="948" on="0"/>
        <pt x="339" y="892" on="1"/>
        <pt x="339" y="859" on="0"/>
        <pt x="371" y="809" on="0"/>
      </contour>
    </TTGlyph>
    <TTGlyph name="Atilde" xMin="-7" yMin="-8" xMax="752" yMax="908">
      <contour>
        <pt x="749" y="-3" on="1"/>
        <pt x="632" y="0" on="1"/>
        <pt x="556" y="0" on="0"/>
        <pt x="499" y="-8" on="1"/>
        <pt x="493" y="0" on="0"/>
        <pt x="493" y="9" on="1"/>
        <pt x="495" y="17" on="1"/>
        <pt x="534" y="26" on="0"/>
        <pt x="565" y="49" on="0"/>
        <pt x="565" y="77" on="0"/>
        <pt x="551" y="119" on="1"/>
        <pt x="492" y="269" on="1"/>
        <pt x="438" y="272" on="0"/>
        <pt x="363" y="272" on="1"/>
        <pt x="220" y="269" on="1"/>
        <pt x="195" y="205" on="1"/>
        <pt x="145" y="81" on="0"/>
        <pt x="145" y="29" on="1"/>
        <pt x="168" y="28" on="0"/>
        <pt x="215" y="28" on="1"/>
        <pt x="217" y="21" on="0"/>
        <pt x="217" y="3" on="0"/>
        <pt x="215" y="-3" on="1"/>
        <pt x="109" y="0" on="1"/>
        <pt x="46" y="0" on="0"/>
        <pt x="-1" y="-8" on="1"/>
        <pt x="-7" y="-1" on="0"/>
        <pt x="-7" y="9" on="1"/>
        <pt x="-5" y="17" on="1"/>
        <pt x="46" y="31" on="0"/>
        <pt x="93" y="91" on="0"/>
        <pt x="140" y="197" on="1"/>
        <pt x="387" y="757" on="1"/>
        <pt x="403" y="757" on="1"/>
        <pt x="633" y="169" on="1"/>
        <pt x="639" y="150" on="0"/>
        <pt x="690" y="41" on="0"/>
        <pt x="697" y="31" on="1"/>
        <pt x="725" y="28" on="0"/>
        <pt x="749" y="28" on="1"/>
        <pt x="752" y="21" on="0"/>
        <pt x="752" y="3" on="0"/>
      </contour>
      <contour>
        <pt x="235" y="308" on="1"/>
        <pt x="363" y="304" on="1"/>
        <pt x="432" y="304" on="0"/>
        <pt x="479" y="307" on="1"/>
        <pt x="363" y="613" on="1"/>
      </contour>
      <contour>
        <pt x="476" y="815" on="1"/>
        <pt x="448" y="815" on="0"/>
        <pt x="349" y="845" on="0"/>
        <pt x="295" y="845" on="0"/>
        <pt x="255" y="817" on="1"/>
        <pt x="245" y="823" on="0"/>
        <pt x="239" y="837" on="1"/>
        <pt x="255" y="850" on="0"/>
        <pt x="291" y="881" on="0"/>
        <pt x="296" y="885" on="1"/>
        <pt x="324" y="908" on="0"/>
        <pt x="367" y="908" on="0"/>
        <pt x="459" y="877" on="0"/>
        <pt x="492" y="877" on="1"/>
        <pt x="510" y="877" on="0"/>
        <pt x="553" y="907" on="1"/>
        <pt x="566" y="902" on="0"/>
        <pt x="571" y="884" on="1"/>
        <pt x="562" y="878" on="0"/>
        <pt x="537" y="857" on="1"/>
        <pt x="491" y="815" on="0"/>
      </contour>
    </TTGlyph>
    <TTGlyph name="B" xMin="35" yMin="-8" xMax="605" yMax="723">
      <contour>
        <pt x="49" y="723" on="1"/>
        <pt x="201" y="720" on="1"/>
        <pt x="355" y="720" on="1"/>
        <pt x="450" y="720" on="0"/>
        <pt x="567" y="636" on="0"/>
        <pt x="567" y="555" on="1"/>
        <pt x="567" y="490" on="0"/>
        <pt x="479" y="400" on="0"/>
        <pt x="432" y="388" on="1"/>
        <pt x="514" y="373" on="0"/>
        <pt x="605" y="275" on="0"/>
        <pt x="605" y="196" on="1"/>
        <pt x="605" y="104" on="0"/>
        <pt x="444" y="0" on="0"/>
        <pt x="324" y="0" on="1"/>
        <pt x="105" y="0" on="0"/>
        <pt x="40" y="-8" on="1"/>
        <pt x="35" y="-2" on="0"/>
        <pt x="35" y="9" on="1"/>
        <pt x="36" y="17" on="1"/>
        <pt x="88" y="29" on="0"/>
        <pt x="104" y="54" on="1"/>
        <pt x="117" y="74" on="0"/>
        <pt x="121" y="104" on="1"/>
        <pt x="133" y="195" on="0"/>
        <pt x="133" y="352" on="1"/>
        <pt x="133" y="681" on="0"/>
        <pt x="115" y="687" on="1"/>
        <pt x="96" y="692" on="0"/>
        <pt x="49" y="692" on="1"/>
        <pt x="47" y="699" on="0"/>
        <pt x="47" y="717" on="0"/>
      </contour>
      <contour>
        <pt x="219" y="372" on="1"/>
        <pt x="219" y="172" on="1"/>
        <pt x="219" y="78" on="0"/>
        <pt x="225" y="40" on="1"/>
        <pt x="261" y="36" on="0"/>
        <pt x="309" y="36" on="1"/>
        <pt x="412" y="36" on="0"/>
        <pt x="513" y="106" on="0"/>
        <pt x="513" y="263" on="0"/>
        <pt x="413" y="367" on="0"/>
        <pt x="333" y="367" on="1"/>
        <pt x="291" y="367" on="1"/>
        <pt x="285" y="374" on="0"/>
        <pt x="285" y="384" on="1"/>
        <pt x="291" y="404" on="1"/>
        <pt x="320" y="404" on="1"/>
        <pt x="480" y="404" on="0"/>
        <pt x="480" y="543" on="1"/>
        <pt x="480" y="612" on="0"/>
        <pt x="396" y="685" on="0"/>
        <pt x="259" y="685" on="0"/>
        <pt x="231" y="681" on="1"/>
        <pt x="219" y="633" on="0"/>
      </contour>
    </TTGlyph>
    <TTGlyph name="C" xMin="64" yMin="-20" xMax="697" yMax="736">
      <contour>
        <pt x="435" y="-20" on="1"/>
        <pt x="263" y="-20" on="0"/>
        <pt x="64" y="195" on="0"/>
        <pt x="64" y="522" on="0"/>
        <pt x="280" y="736" on="0"/>
        <pt x="448" y="736" on="1"/>
        <pt x="581" y="736" on="0"/>
        <pt x="684" y="703" on="1"/>
        <pt x="689" y="700" on="0"/>
        <pt x="689" y="691" on="0"/>
        <pt x="686" y="664" on="1"/>
        <pt x="673" y="571" on="0"/>
        <pt x="672" y="528" on="1"/>
        <pt x="657" y="525" on="0"/>
        <pt x="645" y="525" on="0"/>
        <pt x="633" y="529" on="1"/>
        <pt x="624" y="598" on="0"/>
        <pt x="615" y="632" on="1"/>
        <pt x="589" y="660" on="0"/>
        <pt x="495" y="700" on="0"/>
        <pt x="435" y="700" on="1"/>
        <pt x="321" y="700" on="0"/>
        <pt x="172" y="540" on="0"/>
        <pt x="172" y="401" on="1"/>
        <pt x="172" y="303" on="0"/>
        <pt x="237" y="131" on="0"/>
        <pt x="366" y="20" on="0"/>
        <pt x="544" y="20" on="0"/>
        <pt x="613" y="68" on="1"/>
        <pt x="632" y="100" on="0"/>
        <pt x="660" y="175" on="1"/>
        <pt x="684" y="175" on="0"/>
        <pt x="697" y="165" on="1"/>
        <pt x="683" y="93" on="0"/>
        <pt x="676" y="20" on="1"/>
        <pt x="675" y="9" on="0"/>
        <pt x="663" y="7" on="1"/>
        <pt x="567" y="-20" on="0"/>
      </contour>
    </TTGlyph>
    <TTGlyph name="Ccedilla" xMin="69" yMin="-268" xMax="703" yMax="736">
      <contour>
        <pt x="368" y="-116" on="1"/>
        <pt x="363" y="-114" on="0"/>
        <pt x="365" y="-99" on="0"/>
        <pt x="365" y="-89" on="1"/>
        <pt x="377" y="-15" on="1"/>
        <pt x="233" y="5" on="0"/>
        <pt x="69" y="211" on="0"/>
        <pt x="69" y="352" on="1"/>
        <pt x="69" y="521" on="0"/>
        <pt x="286" y="736" on="0"/>
        <pt x="453" y="736" on="1"/>
        <pt x="586" y="736" on="0"/>
        <pt x="689" y="703" on="1"/>
        <pt x="695" y="700" on="0"/>
        <pt x="695" y="691" on="0"/>
        <pt x="691" y="664" on="1"/>
        <pt x="679" y="582" on="0"/>
        <pt x="677" y="528" on="1"/>
        <pt x="662" y="525" on="0"/>
        <pt x="649" y="525" on="0"/>
        <pt x="639" y="529" on="1"/>
        <pt x="628" y="603" on="0"/>
        <pt x="620" y="632" on="1"/>
        <pt x="556" y="700" on="0"/>
        <pt x="326" y="700" on="0"/>
        <pt x="177" y="540" on="0"/>
        <pt x="177" y="249" on="0"/>
        <pt x="331" y="20" on="0"/>
        <pt x="453" y="20" on="1"/>
        <pt x="550" y="20" on="0"/>
        <pt x="619" y="68" on="1"/>
        <pt x="637" y="97" on="0"/>
        <pt x="661" y="167" on="0"/>
        <pt x="665" y="175" on="1"/>
        <pt x="689" y="175" on="0"/>
        <pt x="703" y="165" on="1"/>
        <pt x="688" y="94" on="0"/>
        <pt x="681" y="20" on="1"/>
        <pt x="680" y="9" on="0"/>
        <pt x="668" y="7" on="1"/>
        <pt x="574" y="-20" on="0"/>
        <pt x="440" y="-20" on="1"/>
        <pt x="425" y="-20" on="0"/>
        <pt x="417" y="-19" on="1"/>
        <pt x="413" y="-68" on="1"/>
        <pt x="467" y="-90" on="0"/>
        <pt x="513" y="-136" on="0"/>
        <pt x="513" y="-215" on="0"/>
        <pt x="479" y="-253" on="0"/>
        <pt x="449" y="-268" on="1"/>
        <pt x="339" y="-268" on="1"/>
        <pt x="336" y="-264" on="0"/>
        <pt x="336" y="-255" on="1"/>
        <pt x="337" y="-243" on="1"/>
        <pt x="465" y="-241" on="0"/>
        <pt x="465" y="-187" on="1"/>
        <pt x="465" y="-162" on="0"/>
        <pt x="419" y="-129" on="0"/>
      </contour>
    </TTGlyph>
    <TTGlyph name="D" xMin="20" yMin="-8" xMax="760" yMax="724">
      <contour>
        <pt x="376" y="-4" on="1"/>
        <pt x="228" y="0" on="1"/>
        <pt x="92" y="0" on="0"/>
        <pt x="25" y="-8" on="1"/>
        <pt x="20" y="-2" on="0"/>
        <pt x="20" y="8" on="1"/>
        <pt x="21" y="17" on="1"/>
        <pt x="91" y="31" on="0"/>
        <pt x="108" y="56" on="1"/>
        <pt x="117" y="70" on="0"/>
        <pt x="121" y="87" on="0"/>
        <pt x="132" y="207" on="0"/>
        <pt x="133" y="352" on="1"/>
        <pt x="133" y="468" on="1"/>
        <pt x="133" y="681" on="0"/>
        <pt x="116" y="687" on="1"/>
        <pt x="87" y="692" on="0"/>
        <pt x="47" y="692" on="1"/>
        <pt x="44" y="699" on="0"/>
        <pt x="44" y="717" on="0"/>
        <pt x="47" y="723" on="1"/>
        <pt x="159" y="720" on="1"/>
        <pt x="255" y="720" on="1"/>
        <pt x="376" y="724" on="1"/>
        <pt x="563" y="724" on="0"/>
        <pt x="760" y="523" on="0"/>
        <pt x="760" y="206" on="0"/>
        <pt x="544" y="-4" on="0"/>
      </contour>
      <contour>
        <pt x="308" y="685" on="1"/>
        <pt x="260" y="685" on="0"/>
        <pt x="233" y="681" on="1"/>
        <pt x="221" y="637" on="0"/>
        <pt x="221" y="487" on="1"/>
        <pt x="221" y="172" on="1"/>
        <pt x="221" y="83" on="0"/>
        <pt x="225" y="53" on="1"/>
        <pt x="292" y="36" on="0"/>
        <pt x="365" y="36" on="1"/>
        <pt x="511" y="36" on="0"/>
        <pt x="652" y="197" on="0"/>
        <pt x="652" y="347" on="1"/>
        <pt x="652" y="483" on="0"/>
        <pt x="574" y="580" on="1"/>
        <pt x="534" y="628" on="0"/>
        <pt x="397" y="685" on="0"/>
      </contour>
    </TTGlyph>
    <TTGlyph name="E" xMin="35" yMin="-8" xMax="583" yMax="727">
      <contour>
        <pt x="431" y="-4" on="1"/>
        <pt x="260" y="0" on="1"/>
        <pt x="207" y="0" on="1"/>
        <pt x="91" y="0" on="0"/>
        <pt x="40" y="-8" on="1"/>
        <pt x="35" y="-2" on="0"/>
        <pt x="35" y="9" on="1"/>
        <pt x="36" y="17" on="1"/>
        <pt x="88" y="29" on="0"/>
        <pt x="104" y="54" on="1"/>
        <pt x="117" y="74" on="0"/>
        <pt x="121" y="104" on="1"/>
        <pt x="133" y="195" on="0"/>
        <pt x="133" y="352" on="1"/>
        <pt x="133" y="681" on="0"/>
        <pt x="115" y="687" on="1"/>
        <pt x="96" y="692" on="0"/>
        <pt x="49" y="692" on="1"/>
        <pt x="47" y="699" on="0"/>
        <pt x="47" y="717" on="0"/>
        <pt x="49" y="723" on="1"/>
        <pt x="201" y="720" on="1"/>
        <pt x="316" y="720" on="1"/>
        <pt x="552" y="727" on="1"/>
        <pt x="569" y="727" on="0"/>
        <pt x="569" y="716" on="1"/>
        <pt x="569" y="715" on="0"/>
        <pt x="566" y="692" on="1"/>
        <pt x="556" y="630" on="0"/>
        <pt x="552" y="553" on="1"/>
        <pt x="540" y="547" on="0"/>
        <pt x="521" y="547" on="0"/>
        <pt x="513" y="551" on="1"/>
        <pt x="501" y="642" on="0"/>
        <pt x="495" y="664" on="1"/>
        <pt x="404" y="685" on="0"/>
        <pt x="259" y="685" on="0"/>
        <pt x="231" y="681" on="1"/>
        <pt x="219" y="617" on="0"/>
        <pt x="219" y="396" on="1"/>
        <pt x="235" y="392" on="0"/>
        <pt x="373" y="392" on="0"/>
        <pt x="441" y="400" on="0"/>
        <pt x="472" y="424" on="0"/>
        <pt x="480" y="461" on="1"/>
        <pt x="501" y="461" on="0"/>
        <pt x="511" y="455" on="1"/>
        <pt x="501" y="398" on="0"/>
        <pt x="501" y="371" on="1"/>
        <pt x="503" y="284" on="1"/>
        <pt x="496" y="279" on="0"/>
        <pt x="485" y="279" on="1"/>
        <pt x="471" y="281" on="1"/>
        <pt x="460" y="347" on="1"/>
        <pt x="406" y="356" on="0"/>
        <pt x="262" y="356" on="0"/>
        <pt x="219" y="351" on="1"/>
        <pt x="219" y="172" on="1"/>
        <pt x="219" y="78" on="0"/>
        <pt x="225" y="40" on="1"/>
        <pt x="256" y="36" on="0"/>
        <pt x="296" y="36" on="1"/>
        <pt x="399" y="36" on="0"/>
        <pt x="500" y="63" on="1"/>
        <pt x="515" y="87" on="0"/>
        <pt x="543" y="164" on="0"/>
        <pt x="545" y="171" on="1"/>
        <pt x="551" y="172" on="0"/>
        <pt x="571" y="172" on="0"/>
        <pt x="583" y="163" on="1"/>
        <pt x="568" y="92" on="0"/>
        <pt x="561" y="16" on="1"/>
        <pt x="560" y="4" on="0"/>
        <pt x="548" y="3" on="1"/>
        <pt x="504" y="-4" on="0"/>
      </contour>
    </TTGlyph>
    <TTGlyph name="Eacute" xMin="59" yMin="-8" xMax="607" yMax="953">
      <contour>
        <pt x="467" y="895" on="1"/>
        <pt x="275" y="771" on="1"/>
        <pt x="267" y="771" on="0"/>
        <pt x="257" y="781" on="0"/>
        <pt x="255" y="791" on="1"/>
        <pt x="345" y="876" on="0"/>
        <pt x="419" y="953" on="1"/>
        <pt x="457" y="929" on="0"/>
      </contour>
      <contour>
        <pt x="455" y="-4" on="1"/>
        <pt x="284" y="0" on="1"/>
        <pt x="231" y="0" on="1"/>
        <pt x="115" y="0" on="0"/>
        <pt x="64" y="-8" on="1"/>
        <pt x="59" y="-2" on="0"/>
        <pt x="59" y="9" on="1"/>
        <pt x="60" y="17" on="1"/>
        <pt x="112" y="29" on="0"/>
        <pt x="128" y="54" on="1"/>
        <pt x="141" y="74" on="0"/>
        <pt x="145" y="104" on="1"/>
        <pt x="157" y="195" on="0"/>
        <pt x="157" y="352" on="1"/>
        <pt x="157" y="681" on="0"/>
        <pt x="139" y="687" on="1"/>
        <pt x="120" y="692" on="0"/>
        <pt x="73" y="692" on="1"/>
        <pt x="71" y="699" on="0"/>
        <pt x="71" y="717" on="0"/>
        <pt x="73" y="723" on="1"/>
        <pt x="225" y="720" on="1"/>
        <pt x="340" y="720" on="1"/>
        <pt x="576" y="727" on="1"/>
        <pt x="593" y="727" on="0"/>
        <pt x="593" y="716" on="1"/>
        <pt x="593" y="715" on="0"/>
        <pt x="590" y="692" on="1"/>
        <pt x="580" y="630" on="0"/>
        <pt x="576" y="553" on="1"/>
        <pt x="564" y="547" on="0"/>
        <pt x="545" y="547" on="0"/>
        <pt x="537" y="551" on="1"/>
        <pt x="525" y="642" on="0"/>
        <pt x="519" y="664" on="1"/>
        <pt x="428" y="685" on="0"/>
        <pt x="283" y="685" on="0"/>
        <pt x="255" y="681" on="1"/>
        <pt x="243" y="617" on="0"/>
        <pt x="243" y="396" on="1"/>
        <pt x="259" y="392" on="0"/>
        <pt x="397" y="392" on="0"/>
        <pt x="465" y="400" on="0"/>
        <pt x="496" y="424" on="0"/>
        <pt x="504" y="461" on="1"/>
        <pt x="525" y="461" on="0"/>
        <pt x="535" y="455" on="1"/>
        <pt x="525" y="398" on="0"/>
        <pt x="525" y="371" on="1"/>
        <pt x="527" y="284" on="1"/>
        <pt x="520" y="279" on="0"/>
        <pt x="509" y="279" on="1"/>
        <pt x="495" y="281" on="1"/>
        <pt x="484" y="347" on="1"/>
        <pt x="430" y="356" on="0"/>
        <pt x="286" y="356" on="0"/>
        <pt x="243" y="351" on="1"/>
        <pt x="243" y="172" on="1"/>
        <pt x="243" y="78" on="0"/>
        <pt x="249" y="40" on="1"/>
        <pt x="280" y="36" on="0"/>
        <pt x="320" y="36" on="1"/>
        <pt x="423" y="36" on="0"/>
        <pt x="524" y="63" on="1"/>
        <pt x="539" y="87" on="0"/>
        <pt x="567" y="164" on="0"/>
        <pt x="569" y="171" on="1"/>
        <pt x="575" y="172" on="0"/>
        <pt x="595" y="172" on="0"/>
        <pt x="607" y="163" on="1"/>
        <pt x="592" y="92" on="0"/>
        <pt x="585" y="16" on="1"/>
        <pt x="584" y="4" on="0"/>
        <pt x="572" y="3" on="1"/>
        <pt x="528" y="-4" on="0"/>
      </contour>
    </TTGlyph>
    <TTGlyph name="Ecircumflex" xMin="59" yMin="-8" xMax="607" yMax="944">
      <contour>
        <pt x="507" y="761" on="1"/>
        <pt x="357" y="857" on="1"/>
        <pt x="207" y="761" on="1"/>
        <pt x="199" y="762" on="0"/>
        <pt x="189" y="772" on="0"/>
        <pt x="187" y="781" on="1"/>
        <pt x="277" y="867" on="0"/>
        <pt x="351" y="944" on="1"/>
        <pt x="363" y="944" on="1"/>
        <pt x="435" y="867" on="0"/>
        <pt x="502" y="804" on="1"/>
        <pt x="527" y="781" on="1"/>
        <pt x="524" y="763" on="0"/>
      </contour>
      <contour>
        <pt x="455" y="-4" on="1"/>
        <pt x="284" y="0" on="1"/>
        <pt x="231" y="0" on="1"/>
        <pt x="115" y="0" on="0"/>
        <pt x="64" y="-8" on="1"/>
        <pt x="59" y="-2" on="0"/>
        <pt x="59" y="9" on="1"/>
        <pt x="60" y="17" on="1"/>
        <pt x="112" y="29" on="0"/>
        <pt x="128" y="54" on="1"/>
        <pt x="141" y="74" on="0"/>
        <pt x="145" y="104" on="1"/>
        <pt x="157" y="195" on="0"/>
        <pt x="157" y="352" on="1"/>
        <pt x="157" y="681" on="0"/>
        <pt x="139" y="687" on="1"/>
        <pt x="120" y="692" on="0"/>
        <pt x="73" y="692" on="1"/>
        <pt x="71" y="699" on="0"/>
        <pt x="71" y="717" on="0"/>
        <pt x="73" y="723" on="1"/>
        <pt x="225" y="720" on="1"/>
        <pt x="340" y="720" on="1"/>
        <pt x="576" y="727" on="1"/>
        <pt x="593" y="727" on="0"/>
        <pt x="593" y="716" on="1"/>
        <pt x="593" y="715" on="0"/>
        <pt x="590" y="692" on="1"/>
        <pt x="580" y="630" on="0"/>
        <pt x="576" y="553" on="1"/>
        <pt x="564" y="547" on="0"/>
        <pt x="545" y="547" on="0"/>
        <pt x="537" y="551" on="1"/>
        <pt x="525" y="642" on="0"/>
        <pt x="519" y="664" on="1"/>
        <pt x="428" y="685" on="0"/>
        <pt x="283" y="685" on="0"/>
        <pt x="255" y="681" on="1"/>
        <pt x="243" y="617" on="0"/>
        <pt x="243" y="396" on="1"/>
        <pt x="259" y="392" on="0"/>
        <pt x="397" y="392" on="0"/>
        <pt x="465" y="400" on="0"/>
        <pt x="496" y="424" on="0"/>
        <pt x="504" y="461" on="1"/>
        <pt x="525" y="461" on="0"/>
        <pt x="535" y="455" on="1"/>
        <pt x="525" y="398" on="0"/>
        <pt x="525" y="371" on="1"/>
        <pt x="527" y="284" on="1"/>
        <pt x="520" y="279" on="0"/>
        <pt x="509" y="279" on="1"/>
        <pt x="495" y="281" on="1"/>
        <pt x="484" y="347" on="1"/>
        <pt x="430" y="356" on="0"/>
        <pt x="286" y="356" on="0"/>
        <pt x="243" y="351" on="1"/>
        <pt x="243" y="172" on="1"/>
        <pt x="243" y="78" on="0"/>
        <pt x="249" y="40" on="1"/>
        <pt x="280" y="36" on="0"/>
        <pt x="320" y="36" on="1"/>
        <pt x="423" y="36" on="0"/>
        <pt x="524" y="63" on="1"/>
        <pt x="539" y="87" on="0"/>
        <pt x="567" y="164" on="0"/>
        <pt x="569" y="171" on="1"/>
        <pt x="575" y="172" on="0"/>
        <pt x="595" y="172" on="0"/>
        <pt x="607" y="163" on="1"/>
        <pt x="592" y="92" on="0"/>
        <pt x="585" y="16" on="1"/>
        <pt x="584" y="4" on="0"/>
        <pt x="572" y="3" on="1"/>
        <pt x="528" y="-4" on="0"/>
      </contour>
    </TTGlyph>
    <TTGlyph name="Edieresis" xMin="59" yMin="-8" xMax="607" yMax="920">
      <contour>
        <pt x="455" y="-4" on="1"/>
        <pt x="284" y="0" on="1"/>
        <pt x="231" y="0" on="1"/>
        <pt x="115" y="0" on="0"/>
        <pt x="64" y="-8" on="1"/>
        <pt x="59" y="-2" on="0"/>
        <pt x="59" y="9" on="1"/>
        <pt x="60" y="17" on="1"/>
        <pt x="112" y="29" on="0"/>
        <pt x="128" y="54" on="1"/>
        <pt x="141" y="74" on="0"/>
        <pt x="145" y="104" on="1"/>
        <pt x="157" y="195" on="0"/>
        <pt x="157" y="352" on="1"/>
        <pt x="157" y="681" on="0"/>
        <pt x="139" y="687" on="1"/>
        <pt x="120" y="692" on="0"/>
        <pt x="73" y="692" on="1"/>
        <pt x="71" y="699" on="0"/>
        <pt x="71" y="717" on="0"/>
        <pt x="73" y="723" on="1"/>
        <pt x="225" y="720" on="1"/>
        <pt x="340" y="720" on="1"/>
        <pt x="576" y="727" on="1"/>
        <pt x="593" y="727" on="0"/>
        <pt x="593" y="716" on="1"/>
        <pt x="593" y="715" on="0"/>
        <pt x="590" y="692" on="1"/>
        <pt x="580" y="630" on="0"/>
        <pt x="576" y="553" on="1"/>
        <pt x="564" y="547" on="0"/>
        <pt x="545" y="547" on="0"/>
        <pt x="537" y="551" on="1"/>
        <pt x="525" y="642" on="0"/>
        <pt x="519" y="664" on="1"/>
        <pt x="428" y="685" on="0"/>
        <pt x="283" y="685" on="0"/>
        <pt x="255" y="681" on="1"/>
        <pt x="243" y="617" on="0"/>
        <pt x="243" y="396" on="1"/>
        <pt x="259" y="392" on="0"/>
        <pt x="397" y="392" on="0"/>
        <pt x="465" y="400" on="0"/>
        <pt x="496" y="424" on="0"/>
        <pt x="504" y="461" on="1"/>
        <pt x="525" y="461" on="0"/>
        <pt x="535" y="455" on="1"/>
        <pt x="525" y="398" on="0"/>
        <pt x="525" y="371" on="1"/>
        <pt x="527" y="284" on="1"/>
        <pt x="520" y="279" on="0"/>
        <pt x="509" y="279" on="1"/>
        <pt x="495" y="281" on="1"/>
        <pt x="484" y="347" on="1"/>
        <pt x="430" y="356" on="0"/>
        <pt x="286" y="356" on="0"/>
        <pt x="243" y="351" on="1"/>
        <pt x="243" y="172" on="1"/>
        <pt x="243" y="78" on="0"/>
        <pt x="249" y="40" on="1"/>
        <pt x="280" y="36" on="0"/>
        <pt x="320" y="36" on="1"/>
        <pt x="423" y="36" on="0"/>
        <pt x="524" y="63" on="1"/>
        <pt x="539" y="87" on="0"/>
        <pt x="567" y="164" on="0"/>
        <pt x="569" y="171" on="1"/>
        <pt x="575" y="172" on="0"/>
        <pt x="595" y="172" on="0"/>
        <pt x="607" y="163" on="1"/>
        <pt x="592" y="92" on="0"/>
        <pt x="585" y="16" on="1"/>
        <pt x="584" y="4" on="0"/>
        <pt x="572" y="3" on="1"/>
        <pt x="528" y="-4" on="0"/>
      </contour>
      <contour>
        <pt x="236" y="803" on="1"/>
        <pt x="203" y="827" on="0"/>
        <pt x="185" y="869" on="1"/>
        <pt x="197" y="883" on="0"/>
        <pt x="238" y="914" on="0"/>
        <pt x="253" y="920" on="1"/>
        <pt x="291" y="892" on="0"/>
        <pt x="303" y="853" on="1"/>
        <pt x="272" y="816" on="0"/>
      </contour>
      <contour>
        <pt x="452" y="803" on="1"/>
        <pt x="419" y="827" on="0"/>
        <pt x="401" y="869" on="1"/>
        <pt x="413" y="883" on="0"/>
        <pt x="454" y="914" on="0"/>
        <pt x="469" y="920" on="1"/>
        <pt x="507" y="892" on="0"/>
        <pt x="519" y="853" on="1"/>
        <pt x="488" y="816" on="0"/>
      </contour>
    </TTGlyph>
    <TTGlyph name="Egrave" xMin="59" yMin="-8" xMax="607" yMax="953">
      <contour>
        <pt x="421" y="771" on="1"/>
        <pt x="229" y="895" on="1"/>
        <pt x="239" y="929" on="0"/>
        <pt x="277" y="953" on="1"/>
        <pt x="343" y="885" on="0"/>
        <pt x="416" y="814" on="1"/>
        <pt x="441" y="791" on="1"/>
        <pt x="439" y="772" on="0"/>
      </contour>
      <contour>
        <pt x="455" y="-4" on="1"/>
        <pt x="284" y="0" on="1"/>
        <pt x="231" y="0" on="1"/>
        <pt x="115" y="0" on="0"/>
        <pt x="64" y="-8" on="1"/>
        <pt x="59" y="-2" on="0"/>
        <pt x="59" y="9" on="1"/>
        <pt x="60" y="17" on="1"/>
        <pt x="112" y="29" on="0"/>
        <pt x="128" y="54" on="1"/>
        <pt x="141" y="74" on="0"/>
        <pt x="145" y="104" on="1"/>
        <pt x="157" y="195" on="0"/>
        <pt x="157" y="352" on="1"/>
        <pt x="157" y="681" on="0"/>
        <pt x="139" y="687" on="1"/>
        <pt x="120" y="692" on="0"/>
        <pt x="73" y="692" on="1"/>
        <pt x="71" y="699" on="0"/>
        <pt x="71" y="717" on="0"/>
        <pt x="73" y="723" on="1"/>
        <pt x="225" y="720" on="1"/>
        <pt x="340" y="720" on="1"/>
        <pt x="576" y="727" on="1"/>
        <pt x="593" y="727" on="0"/>
        <pt x="593" y="716" on="1"/>
        <pt x="593" y="715" on="0"/>
        <pt x="590" y="692" on="1"/>
        <pt x="580" y="630" on="0"/>
        <pt x="576" y="553" on="1"/>
        <pt x="564" y="547" on="0"/>
        <pt x="545" y="547" on="0"/>
        <pt x="537" y="551" on="1"/>
        <pt x="525" y="642" on="0"/>
        <pt x="519" y="664" on="1"/>
        <pt x="428" y="685" on="0"/>
        <pt x="283" y="685" on="0"/>
        <pt x="255" y="681" on="1"/>
        <pt x="243" y="617" on="0"/>
        <pt x="243" y="396" on="1"/>
        <pt x="259" y="392" on="0"/>
        <pt x="397" y="392" on="0"/>
        <pt x="465" y="400" on="0"/>
        <pt x="496" y="424" on="0"/>
        <pt x="504" y="461" on="1"/>
        <pt x="525" y="461" on="0"/>
        <pt x="535" y="455" on="1"/>
        <pt x="525" y="398" on="0"/>
        <pt x="525" y="371" on="1"/>
        <pt x="527" y="284" on="1"/>
        <pt x="520" y="279" on="0"/>
        <pt x="509" y="279" on="1"/>
        <pt x="495" y="281" on="1"/>
        <pt x="484" y="347" on="1"/>
        <pt x="430" y="356" on="0"/>
        <pt x="286" y="356" on="0"/>
        <pt x="243" y="351" on="1"/>
        <pt x="243" y="172" on="1"/>
        <pt x="243" y="78" on="0"/>
        <pt x="249" y="40" on="1"/>
        <pt x="280" y="36" on="0"/>
        <pt x="320" y="36" on="1"/>
        <pt x="423" y="36" on="0"/>
        <pt x="524" y="63" on="1"/>
        <pt x="539" y="87" on="0"/>
        <pt x="567" y="164" on="0"/>
        <pt x="569" y="171" on="1"/>
        <pt x="575" y="172" on="0"/>
        <pt x="595" y="172" on="0"/>
        <pt x="607" y="163" on="1"/>
        <pt x="592" y="92" on="0"/>
        <pt x="585" y="16" on="1"/>
        <pt x="584" y="4" on="0"/>
        <pt x="572" y="3" on="1"/>
        <pt x="528" y="-4" on="0"/>
      </contour>
    </TTGlyph>
    <TTGlyph name="Eth" xMin="44" yMin="-8" xMax="784" yMax="724">
      <contour>
        <pt x="400" y="-4" on="1"/>
        <pt x="252" y="0" on="1"/>
        <pt x="116" y="0" on="0"/>
        <pt x="49" y="-8" on="1"/>
        <pt x="44" y="-2" on="0"/>
        <pt x="44" y="8" on="1"/>
        <pt x="45" y="17" on="1"/>
        <pt x="115" y="31" on="0"/>
        <pt x="132" y="56" on="1"/>
        <pt x="141" y="70" on="0"/>
        <pt x="143" y="78" on="1"/>
        <pt x="153" y="120" on="0"/>
        <pt x="157" y="333" on="1"/>
        <pt x="139" y="333" on="0"/>
        <pt x="87" y="329" on="1"/>
        <pt x="77" y="333" on="0"/>
        <pt x="77" y="344" on="1"/>
        <pt x="88" y="362" on="0"/>
        <pt x="91" y="384" on="1"/>
        <pt x="157" y="384" on="1"/>
        <pt x="157" y="468" on="1"/>
        <pt x="157" y="681" on="0"/>
        <pt x="140" y="687" on="1"/>
        <pt x="111" y="692" on="0"/>
        <pt x="71" y="692" on="1"/>
        <pt x="68" y="699" on="0"/>
        <pt x="68" y="717" on="0"/>
        <pt x="71" y="723" on="1"/>
        <pt x="183" y="720" on="1"/>
        <pt x="279" y="720" on="1"/>
        <pt x="400" y="724" on="1"/>
        <pt x="587" y="724" on="0"/>
        <pt x="784" y="523" on="0"/>
        <pt x="784" y="206" on="0"/>
        <pt x="568" y="-4" on="0"/>
      </contour>
      <contour>
        <pt x="332" y="685" on="1"/>
        <pt x="284" y="685" on="0"/>
        <pt x="257" y="681" on="1"/>
        <pt x="245" y="637" on="0"/>
        <pt x="245" y="487" on="1"/>
        <pt x="245" y="384" on="1"/>
        <pt x="273" y="384" on="1"/>
        <pt x="380" y="384" on="0"/>
        <pt x="461" y="392" on="1"/>
        <pt x="471" y="388" on="0"/>
        <pt x="471" y="376" on="1"/>
        <pt x="460" y="358" on="0"/>
        <pt x="457" y="336" on="1"/>
        <pt x="245" y="336" on="1"/>
        <pt x="245" y="172" on="1"/>
        <pt x="245" y="83" on="0"/>
        <pt x="249" y="53" on="1"/>
        <pt x="316" y="36" on="0"/>
        <pt x="389" y="36" on="1"/>
        <pt x="535" y="36" on="0"/>
        <pt x="676" y="197" on="0"/>
        <pt x="676" y="347" on="1"/>
        <pt x="676" y="483" on="0"/>
        <pt x="598" y="580" on="1"/>
        <pt x="558" y="628" on="0"/>
        <pt x="421" y="685" on="0"/>
      </contour>
    </TTGlyph>
    <TTGlyph name="Euro" xMin="20" yMin="-20" xMax="457" yMax="509">
      <contour>
        <pt x="185" y="207" on="1"/>
        <pt x="276" y="207" on="0"/>
        <pt x="355" y="213" on="1"/>
        <pt x="363" y="211" on="0"/>
        <pt x="363" y="201" on="1"/>
        <pt x="359" y="194" on="0"/>
        <pt x="352" y="167" on="1"/>
        <pt x="173" y="167" on="1"/>
        <pt x="207" y="47" on="0"/>
        <pt x="308" y="47" on="1"/>
        <pt x="369" y="47" on="0"/>
        <pt x="451" y="73" on="1"/>
        <pt x="457" y="65" on="0"/>
        <pt x="457" y="52" on="1"/>
        <pt x="355" y="-8" on="1"/>
        <pt x="337" y="-20" on="0"/>
        <pt x="288" y="-20" on="1"/>
        <pt x="205" y="-20" on="0"/>
        <pt x="104" y="82" on="0"/>
        <pt x="87" y="165" on="1"/>
        <pt x="28" y="160" on="1"/>
        <pt x="20" y="163" on="0"/>
        <pt x="20" y="172" on="1"/>
        <pt x="28" y="189" on="0"/>
        <pt x="31" y="207" on="1"/>
      </contour>
      <contour>
        <pt x="431" y="365" on="1"/>
        <pt x="417" y="368" on="1"/>
        <pt x="408" y="420" on="0"/>
        <pt x="396" y="447" on="1"/>
        <pt x="359" y="475" on="0"/>
        <pt x="237" y="475" on="0"/>
        <pt x="168" y="378" on="0"/>
        <pt x="160" y="312" on="1"/>
        <pt x="197" y="312" on="1"/>
        <pt x="292" y="312" on="0"/>
        <pt x="372" y="319" on="1"/>
        <pt x="380" y="316" on="0"/>
        <pt x="380" y="307" on="1"/>
        <pt x="375" y="295" on="0"/>
        <pt x="369" y="271" on="1"/>
        <pt x="199" y="271" on="1"/>
        <pt x="89" y="271" on="0"/>
        <pt x="39" y="265" on="1"/>
        <pt x="31" y="268" on="0"/>
        <pt x="31" y="277" on="1"/>
        <pt x="40" y="296" on="0"/>
        <pt x="41" y="312" on="1"/>
        <pt x="88" y="312" on="1"/>
        <pt x="100" y="371" on="0"/>
        <pt x="166" y="457" on="0"/>
        <pt x="204" y="476" on="1"/>
        <pt x="271" y="509" on="0"/>
        <pt x="304" y="509" on="1"/>
        <pt x="382" y="509" on="0"/>
        <pt x="452" y="483" on="1"/>
        <pt x="448" y="450" on="0"/>
        <pt x="445" y="369" on="1"/>
        <pt x="437" y="365" on="0"/>
      </contour>
    </TTGlyph>
    <TTGlyph name="F" xMin="35" yMin="-8" xMax="583" yMax="727">
      <contour>
        <pt x="501" y="360" on="1"/>
        <pt x="503" y="273" on="1"/>
        <pt x="489" y="269" on="0"/>
        <pt x="483" y="269" on="1"/>
        <pt x="471" y="271" on="1"/>
        <pt x="460" y="336" on="1"/>
        <pt x="424" y="345" on="0"/>
        <pt x="247" y="345" on="0"/>
        <pt x="219" y="340" on="1"/>
        <pt x="219" y="224" on="1"/>
        <pt x="219" y="121" on="0"/>
        <pt x="227" y="37" on="1"/>
        <pt x="273" y="31" on="0"/>
        <pt x="352" y="31" on="1"/>
        <pt x="356" y="21" on="0"/>
        <pt x="356" y="2" on="0"/>
        <pt x="352" y="-3" on="1"/>
        <pt x="179" y="0" on="1"/>
        <pt x="103" y="0" on="0"/>
        <pt x="40" y="-8" on="1"/>
        <pt x="35" y="-2" on="0"/>
        <pt x="35" y="9" on="1"/>
        <pt x="36" y="17" on="1"/>
        <pt x="88" y="29" on="0"/>
        <pt x="104" y="54" on="1"/>
        <pt x="117" y="74" on="0"/>
        <pt x="121" y="104" on="1"/>
        <pt x="133" y="195" on="0"/>
        <pt x="133" y="332" on="1"/>
        <pt x="133" y="680" on="0"/>
        <pt x="115" y="687" on="1"/>
        <pt x="96" y="692" on="0"/>
        <pt x="49" y="692" on="1"/>
        <pt x="47" y="699" on="0"/>
        <pt x="47" y="717" on="0"/>
        <pt x="49" y="723" on="1"/>
        <pt x="201" y="720" on="1"/>
        <pt x="329" y="720" on="1"/>
        <pt x="329" y="720" on="0"/>
        <pt x="565" y="727" on="1"/>
        <pt x="583" y="727" on="0"/>
        <pt x="583" y="716" on="1"/>
        <pt x="583" y="715" on="0"/>
        <pt x="580" y="692" on="1"/>
        <pt x="569" y="620" on="0"/>
        <pt x="565" y="553" on="1"/>
        <pt x="553" y="547" on="0"/>
        <pt x="534" y="547" on="0"/>
        <pt x="527" y="551" on="1"/>
        <pt x="516" y="634" on="0"/>
        <pt x="508" y="664" on="1"/>
        <pt x="417" y="685" on="0"/>
        <pt x="264" y="685" on="0"/>
        <pt x="231" y="681" on="1"/>
        <pt x="219" y="635" on="0"/>
        <pt x="219" y="385" on="1"/>
        <pt x="243" y="381" on="0"/>
        <pt x="365" y="381" on="0"/>
        <pt x="441" y="389" on="0"/>
        <pt x="474" y="414" on="0"/>
        <pt x="480" y="452" on="1"/>
        <pt x="499" y="452" on="0"/>
        <pt x="511" y="445" on="1"/>
        <pt x="501" y="388" on="0"/>
      </contour>
    </TTGlyph>
    <TTGlyph name="G" xMin="64" yMin="-20" xMax="751" yMax="736">
      <contour>
        <pt x="495" y="292" on="1"/>
        <pt x="655" y="289" on="1"/>
        <pt x="702" y="289" on="0"/>
        <pt x="747" y="297" on="1"/>
        <pt x="751" y="287" on="0"/>
        <pt x="751" y="280" on="1"/>
        <pt x="749" y="268" on="1"/>
        <pt x="711" y="252" on="0"/>
        <pt x="707" y="203" on="1"/>
        <pt x="700" y="135" on="0"/>
        <pt x="700" y="11" on="1"/>
        <pt x="640" y="11" on="0"/>
        <pt x="482" y="-20" on="0"/>
        <pt x="435" y="-20" on="1"/>
        <pt x="263" y="-20" on="0"/>
        <pt x="64" y="195" on="0"/>
        <pt x="64" y="522" on="0"/>
        <pt x="280" y="736" on="0"/>
        <pt x="448" y="736" on="1"/>
        <pt x="584" y="736" on="0"/>
        <pt x="689" y="707" on="1"/>
        <pt x="696" y="705" on="0"/>
        <pt x="696" y="695" on="0"/>
        <pt x="695" y="679" on="0"/>
        <pt x="692" y="650" on="0"/>
        <pt x="691" y="632" on="1"/>
        <pt x="689" y="594" on="0"/>
        <pt x="689" y="532" on="1"/>
        <pt x="682" y="528" on="0"/>
        <pt x="658" y="528" on="0"/>
        <pt x="651" y="531" on="1"/>
        <pt x="633" y="612" on="0"/>
        <pt x="625" y="632" on="1"/>
        <pt x="546" y="700" on="0"/>
        <pt x="321" y="700" on="0"/>
        <pt x="172" y="540" on="0"/>
        <pt x="172" y="401" on="1"/>
        <pt x="172" y="303" on="0"/>
        <pt x="237" y="131" on="0"/>
        <pt x="366" y="20" on="0"/>
        <pt x="537" y="20" on="0"/>
        <pt x="615" y="56" on="1"/>
        <pt x="615" y="117" on="1"/>
        <pt x="615" y="192" on="0"/>
        <pt x="609" y="253" on="1"/>
        <pt x="558" y="259" on="0"/>
        <pt x="495" y="259" on="1"/>
        <pt x="491" y="266" on="0"/>
        <pt x="491" y="275" on="1"/>
      </contour>
    </TTGlyph>
    <TTGlyph name="H" xMin="35" yMin="-8" xMax="793" yMax="728">
      <contour>
        <pt x="620" y="352" on="1"/>
        <pt x="433" y="357" on="1"/>
        <pt x="349" y="357" on="0"/>
        <pt x="219" y="352" on="1"/>
        <pt x="219" y="168" on="1"/>
        <pt x="219" y="32" on="0"/>
        <pt x="231" y="31" on="1"/>
        <pt x="249" y="28" on="0"/>
        <pt x="299" y="28" on="1"/>
        <pt x="301" y="21" on="0"/>
        <pt x="301" y="3" on="0"/>
        <pt x="299" y="-3" on="1"/>
        <pt x="200" y="0" on="1"/>
        <pt x="103" y="0" on="0"/>
        <pt x="40" y="-8" on="1"/>
        <pt x="35" y="-2" on="0"/>
        <pt x="35" y="9" on="1"/>
        <pt x="36" y="17" on="1"/>
        <pt x="88" y="29" on="0"/>
        <pt x="104" y="54" on="1"/>
        <pt x="117" y="74" on="0"/>
        <pt x="121" y="104" on="1"/>
        <pt x="133" y="195" on="0"/>
        <pt x="133" y="385" on="1"/>
        <pt x="133" y="552" on="1"/>
        <pt x="133" y="688" on="0"/>
        <pt x="121" y="689" on="1"/>
        <pt x="103" y="692" on="0"/>
        <pt x="53" y="692" on="1"/>
        <pt x="51" y="699" on="0"/>
        <pt x="51" y="717" on="0"/>
        <pt x="53" y="723" on="1"/>
        <pt x="53" y="723" on="0"/>
        <pt x="156" y="720" on="1"/>
        <pt x="249" y="720" on="0"/>
        <pt x="299" y="728" on="1"/>
        <pt x="303" y="720" on="0"/>
        <pt x="303" y="703" on="1"/>
        <pt x="274" y="696" on="0"/>
        <pt x="242" y="665" on="0"/>
        <pt x="238" y="652" on="1"/>
        <pt x="223" y="604" on="0"/>
        <pt x="219" y="396" on="1"/>
        <pt x="319" y="392" on="0"/>
        <pt x="433" y="392" on="1"/>
        <pt x="620" y="396" on="1"/>
        <pt x="620" y="552" on="1"/>
        <pt x="620" y="688" on="0"/>
        <pt x="608" y="689" on="1"/>
        <pt x="589" y="692" on="0"/>
        <pt x="540" y="692" on="1"/>
        <pt x="537" y="699" on="0"/>
        <pt x="537" y="717" on="0"/>
        <pt x="540" y="723" on="1"/>
        <pt x="643" y="720" on="1"/>
        <pt x="736" y="720" on="0"/>
        <pt x="785" y="728" on="1"/>
        <pt x="789" y="719" on="0"/>
        <pt x="789" y="703" on="1"/>
        <pt x="760" y="695" on="0"/>
        <pt x="728" y="665" on="0"/>
        <pt x="719" y="638" on="0"/>
        <pt x="717" y="616" on="1"/>
        <pt x="705" y="510" on="0"/>
        <pt x="705" y="380" on="1"/>
        <pt x="705" y="168" on="1"/>
        <pt x="705" y="32" on="0"/>
        <pt x="717" y="31" on="1"/>
        <pt x="736" y="28" on="0"/>
        <pt x="791" y="28" on="1"/>
        <pt x="793" y="21" on="0"/>
        <pt x="793" y="3" on="0"/>
        <pt x="791" y="-3" on="1"/>
        <pt x="687" y="0" on="1"/>
        <pt x="580" y="0" on="0"/>
        <pt x="513" y="-8" on="1"/>
        <pt x="508" y="-2" on="0"/>
        <pt x="508" y="9" on="1"/>
        <pt x="509" y="17" on="1"/>
        <pt x="569" y="31" on="0"/>
        <pt x="604" y="65" on="0"/>
        <pt x="608" y="104" on="1"/>
        <pt x="619" y="206" on="0"/>
      </contour>
    </TTGlyph>
    <TTGlyph name="I" xMin="23" yMin="-8" xMax="329" yMax="723">
      <contour>
        <pt x="49" y="723" on="1"/>
        <pt x="179" y="720" on="1"/>
        <pt x="307" y="723" on="1"/>
        <pt x="309" y="717" on="0"/>
        <pt x="309" y="708" on="1"/>
        <pt x="307" y="692" on="1"/>
        <pt x="263" y="692" on="0"/>
        <pt x="240" y="689" on="1"/>
        <pt x="223" y="687" on="0"/>
        <pt x="223" y="464" on="1"/>
        <pt x="223" y="301" on="1"/>
        <pt x="223" y="206" on="0"/>
        <pt x="232" y="32" on="0"/>
        <pt x="239" y="31" on="1"/>
        <pt x="265" y="28" on="0"/>
        <pt x="327" y="28" on="1"/>
        <pt x="329" y="21" on="0"/>
        <pt x="329" y="3" on="0"/>
        <pt x="327" y="-3" on="1"/>
        <pt x="200" y="0" on="1"/>
        <pt x="95" y="0" on="0"/>
        <pt x="28" y="-8" on="1"/>
        <pt x="23" y="-3" on="0"/>
        <pt x="23" y="9" on="1"/>
        <pt x="24" y="17" on="1"/>
        <pt x="89" y="31" on="0"/>
        <pt x="104" y="50" on="1"/>
        <pt x="113" y="62" on="0"/>
        <pt x="119" y="80" on="0"/>
        <pt x="121" y="99" on="1"/>
        <pt x="133" y="177" on="0"/>
        <pt x="133" y="352" on="1"/>
        <pt x="133" y="464" on="1"/>
        <pt x="133" y="687" on="0"/>
        <pt x="116" y="689" on="1"/>
        <pt x="93" y="692" on="0"/>
        <pt x="49" y="692" on="1"/>
        <pt x="47" y="699" on="0"/>
        <pt x="47" y="717" on="0"/>
      </contour>
    </TTGlyph>
    <TTGlyph name="Iacute" xMin="23" yMin="-8" xMax="335" yMax="953">
      <contour>
        <pt x="335" y="895" on="1"/>
        <pt x="143" y="771" on="1"/>
        <pt x="135" y="771" on="0"/>
        <pt x="125" y="781" on="0"/>
        <pt x="123" y="791" on="1"/>
        <pt x="213" y="876" on="0"/>
        <pt x="287" y="953" on="1"/>
        <pt x="325" y="929" on="0"/>
      </contour>
      <contour>
        <pt x="49" y="723" on="1"/>
        <pt x="179" y="720" on="1"/>
        <pt x="179" y="720" on="0"/>
        <pt x="307" y="723" on="1"/>
        <pt x="309" y="717" on="0"/>
        <pt x="309" y="708" on="1"/>
        <pt x="307" y="692" on="1"/>
        <pt x="263" y="692" on="0"/>
        <pt x="240" y="689" on="1"/>
        <pt x="223" y="687" on="0"/>
        <pt x="223" y="464" on="1"/>
        <pt x="223" y="301" on="1"/>
        <pt x="223" y="206" on="0"/>
        <pt x="232" y="32" on="0"/>
        <pt x="239" y="31" on="1"/>
        <pt x="265" y="28" on="0"/>
        <pt x="327" y="28" on="1"/>
        <pt x="329" y="21" on="0"/>
        <pt x="329" y="3" on="0"/>
        <pt x="327" y="-3" on="1"/>
        <pt x="200" y="0" on="1"/>
        <pt x="95" y="0" on="0"/>
        <pt x="28" y="-8" on="1"/>
        <pt x="23" y="-3" on="0"/>
        <pt x="23" y="9" on="1"/>
        <pt x="24" y="17" on="1"/>
        <pt x="89" y="31" on="0"/>
        <pt x="104" y="50" on="1"/>
        <pt x="113" y="62" on="0"/>
        <pt x="119" y="80" on="0"/>
        <pt x="121" y="99" on="1"/>
        <pt x="133" y="177" on="0"/>
        <pt x="133" y="352" on="1"/>
        <pt x="133" y="464" on="1"/>
        <pt x="133" y="687" on="0"/>
        <pt x="116" y="689" on="1"/>
        <pt x="93" y="692" on="0"/>
        <pt x="49" y="692" on="1"/>
        <pt x="47" y="699" on="0"/>
        <pt x="47" y="717" on="0"/>
      </contour>
    </TTGlyph>
    <TTGlyph name="Icircumflex" xMin="23" yMin="-8" xMax="367" yMax="944">
      <contour>
        <pt x="347" y="761" on="1"/>
        <pt x="197" y="857" on="1"/>
        <pt x="47" y="761" on="1"/>
        <pt x="39" y="762" on="0"/>
        <pt x="29" y="772" on="0"/>
        <pt x="27" y="781" on="1"/>
        <pt x="117" y="867" on="0"/>
        <pt x="191" y="944" on="1"/>
        <pt x="203" y="944" on="1"/>
        <pt x="275" y="867" on="0"/>
        <pt x="342" y="804" on="1"/>
        <pt x="367" y="781" on="1"/>
        <pt x="364" y="763" on="0"/>
      </contour>
      <contour>
        <pt x="307" y="723" on="1"/>
        <pt x="309" y="717" on="0"/>
        <pt x="309" y="699" on="0"/>
        <pt x="307" y="692" on="1"/>
        <pt x="263" y="692" on="0"/>
        <pt x="240" y="689" on="1"/>
        <pt x="223" y="687" on="0"/>
        <pt x="223" y="464" on="1"/>
        <pt x="223" y="301" on="1"/>
        <pt x="223" y="206" on="0"/>
        <pt x="232" y="32" on="0"/>
        <pt x="239" y="31" on="1"/>
        <pt x="265" y="28" on="0"/>
        <pt x="327" y="28" on="1"/>
        <pt x="329" y="12" on="1"/>
        <pt x="329" y="3" on="0"/>
        <pt x="327" y="-3" on="1"/>
        <pt x="200" y="0" on="1"/>
        <pt x="95" y="0" on="0"/>
        <pt x="28" y="-8" on="1"/>
        <pt x="23" y="-3" on="0"/>
        <pt x="23" y="13" on="0"/>
        <pt x="24" y="17" on="1"/>
        <pt x="89" y="31" on="0"/>
        <pt x="104" y="50" on="1"/>
        <pt x="113" y="62" on="0"/>
        <pt x="119" y="80" on="0"/>
        <pt x="121" y="99" on="1"/>
        <pt x="133" y="177" on="0"/>
        <pt x="133" y="352" on="1"/>
        <pt x="133" y="464" on="1"/>
        <pt x="133" y="687" on="0"/>
        <pt x="116" y="689" on="1"/>
        <pt x="93" y="692" on="0"/>
        <pt x="49" y="692" on="1"/>
        <pt x="47" y="708" on="1"/>
        <pt x="47" y="717" on="0"/>
        <pt x="49" y="723" on="1"/>
        <pt x="179" y="720" on="1"/>
      </contour>
    </TTGlyph>
    <TTGlyph name="Idieresis" xMin="11" yMin="-8" xMax="344" yMax="920">
      <contour>
        <pt x="307" y="723" on="1"/>
        <pt x="309" y="717" on="0"/>
        <pt x="309" y="699" on="0"/>
        <pt x="307" y="692" on="1"/>
        <pt x="263" y="692" on="0"/>
        <pt x="240" y="689" on="1"/>
        <pt x="223" y="687" on="0"/>
        <pt x="223" y="464" on="1"/>
        <pt x="223" y="301" on="1"/>
        <pt x="223" y="206" on="0"/>
        <pt x="232" y="32" on="0"/>
        <pt x="239" y="31" on="1"/>
        <pt x="265" y="28" on="0"/>
        <pt x="327" y="28" on="1"/>
        <pt x="329" y="12" on="1"/>
        <pt x="329" y="3" on="0"/>
        <pt x="327" y="-3" on="1"/>
        <pt x="200" y="0" on="1"/>
        <pt x="95" y="0" on="0"/>
        <pt x="28" y="-8" on="1"/>
        <pt x="23" y="-3" on="0"/>
        <pt x="23" y="13" on="0"/>
        <pt x="24" y="17" on="1"/>
        <pt x="89" y="31" on="0"/>
        <pt x="104" y="50" on="1"/>
        <pt x="113" y="62" on="0"/>
        <pt x="119" y="80" on="0"/>
        <pt x="121" y="99" on="1"/>
        <pt x="133" y="177" on="0"/>
        <pt x="133" y="352" on="1"/>
        <pt x="133" y="464" on="1"/>
        <pt x="133" y="687" on="0"/>
        <pt x="116" y="689" on="1"/>
        <pt x="93" y="692" on="0"/>
        <pt x="49" y="692" on="1"/>
        <pt x="47" y="708" on="1"/>
        <pt x="47" y="717" on="0"/>
        <pt x="49" y="723" on="1"/>
        <pt x="179" y="720" on="1"/>
      </contour>
      <contour>
        <pt x="61" y="803" on="1"/>
        <pt x="27" y="827" on="0"/>
        <pt x="11" y="869" on="1"/>
        <pt x="23" y="883" on="0"/>
        <pt x="64" y="914" on="0"/>
        <pt x="79" y="920" on="1"/>
        <pt x="116" y="892" on="0"/>
        <pt x="128" y="853" on="1"/>
        <pt x="100" y="817" on="0"/>
      </contour>
      <contour>
        <pt x="277" y="803" on="1"/>
        <pt x="243" y="827" on="0"/>
        <pt x="227" y="869" on="1"/>
        <pt x="239" y="883" on="0"/>
        <pt x="280" y="914" on="0"/>
        <pt x="295" y="920" on="1"/>
        <pt x="332" y="892" on="0"/>
        <pt x="344" y="853" on="1"/>
        <pt x="316" y="817" on="0"/>
      </contour>
    </TTGlyph>
    <TTGlyph name="Igrave" xMin="23" yMin="-8" xMax="329" yMax="953">
      <contour>
        <pt x="259" y="771" on="1"/>
        <pt x="67" y="895" on="1"/>
        <pt x="75" y="930" on="0"/>
        <pt x="115" y="953" on="1"/>
        <pt x="179" y="885" on="0"/>
        <pt x="254" y="814" on="1"/>
        <pt x="279" y="791" on="1"/>
        <pt x="276" y="772" on="0"/>
      </contour>
      <contour>
        <pt x="307" y="723" on="1"/>
        <pt x="309" y="717" on="0"/>
        <pt x="309" y="699" on="0"/>
        <pt x="307" y="692" on="1"/>
        <pt x="263" y="692" on="0"/>
        <pt x="240" y="689" on="1"/>
        <pt x="223" y="687" on="0"/>
        <pt x="223" y="464" on="1"/>
        <pt x="223" y="301" on="1"/>
        <pt x="223" y="206" on="0"/>
        <pt x="232" y="32" on="0"/>
        <pt x="239" y="31" on="1"/>
        <pt x="265" y="28" on="0"/>
        <pt x="327" y="28" on="1"/>
        <pt x="329" y="12" on="1"/>
        <pt x="329" y="3" on="0"/>
        <pt x="327" y="-3" on="1"/>
        <pt x="200" y="0" on="1"/>
        <pt x="95" y="0" on="0"/>
        <pt x="28" y="-8" on="1"/>
        <pt x="23" y="-3" on="0"/>
        <pt x="23" y="13" on="0"/>
        <pt x="24" y="17" on="1"/>
        <pt x="89" y="31" on="0"/>
        <pt x="104" y="50" on="1"/>
        <pt x="113" y="62" on="0"/>
        <pt x="119" y="80" on="0"/>
        <pt x="121" y="99" on="1"/>
        <pt x="133" y="177" on="0"/>
        <pt x="133" y="352" on="1"/>
        <pt x="133" y="464" on="1"/>
        <pt x="133" y="687" on="0"/>
        <pt x="116" y="689" on="1"/>
        <pt x="93" y="692" on="0"/>
        <pt x="49" y="692" on="1"/>
        <pt x="47" y="708" on="1"/>
        <pt x="47" y="717" on="0"/>
        <pt x="49" y="723" on="1"/>
        <pt x="179" y="720" on="1"/>
      </contour>
    </TTGlyph>
    <TTGlyph name="Itilde" xMin="13" yMin="-8" xMax="345" yMax="887">
      <contour>
        <pt x="307" y="723" on="1"/>
        <pt x="309" y="717" on="0"/>
        <pt x="309" y="699" on="0"/>
        <pt x="307" y="692" on="1"/>
        <pt x="263" y="692" on="0"/>
        <pt x="240" y="689" on="1"/>
        <pt x="223" y="687" on="0"/>
        <pt x="223" y="464" on="1"/>
        <pt x="223" y="301" on="1"/>
        <pt x="223" y="206" on="0"/>
        <pt x="232" y="32" on="0"/>
        <pt x="239" y="31" on="1"/>
        <pt x="265" y="28" on="0"/>
        <pt x="327" y="28" on="1"/>
        <pt x="329" y="12" on="1"/>
        <pt x="329" y="3" on="0"/>
        <pt x="327" y="-3" on="1"/>
        <pt x="200" y="0" on="1"/>
        <pt x="95" y="0" on="0"/>
        <pt x="28" y="-8" on="1"/>
        <pt x="23" y="-3" on="0"/>
        <pt x="23" y="13" on="0"/>
        <pt x="24" y="17" on="1"/>
        <pt x="89" y="31" on="0"/>
        <pt x="104" y="50" on="1"/>
        <pt x="113" y="62" on="0"/>
        <pt x="119" y="80" on="0"/>
        <pt x="121" y="99" on="1"/>
        <pt x="133" y="177" on="0"/>
        <pt x="133" y="352" on="1"/>
        <pt x="133" y="464" on="1"/>
        <pt x="133" y="687" on="0"/>
        <pt x="116" y="689" on="1"/>
        <pt x="93" y="692" on="0"/>
        <pt x="49" y="692" on="1"/>
        <pt x="47" y="708" on="1"/>
        <pt x="47" y="717" on="0"/>
        <pt x="49" y="723" on="1"/>
        <pt x="179" y="720" on="1"/>
      </contour>
      <contour>
        <pt x="251" y="793" on="1"/>
        <pt x="223" y="793" on="0"/>
        <pt x="124" y="824" on="0"/>
        <pt x="76" y="824" on="0"/>
        <pt x="29" y="796" on="1"/>
        <pt x="20" y="801" on="0"/>
        <pt x="13" y="816" on="1"/>
        <pt x="31" y="829" on="0"/>
        <pt x="49" y="845" on="1"/>
        <pt x="96" y="887" on="0"/>
        <pt x="141" y="887" on="0"/>
        <pt x="234" y="856" on="0"/>
        <pt x="273" y="856" on="0"/>
        <pt x="285" y="859" on="0"/>
        <pt x="300" y="867" on="0"/>
        <pt x="307" y="871" on="0"/>
        <pt x="326" y="884" on="0"/>
        <pt x="328" y="885" on="1"/>
        <pt x="341" y="882" on="0"/>
        <pt x="345" y="863" on="1"/>
        <pt x="331" y="852" on="0"/>
        <pt x="264" y="793" on="0"/>
      </contour>
    </TTGlyph>
    <TTGlyph name="J" xMin="-5" yMin="-276" xMax="297" yMax="728">
      <contour>
        <pt x="39" y="723" on="1"/>
        <pt x="164" y="720" on="1"/>
        <pt x="248" y="720" on="0"/>
        <pt x="292" y="728" on="1"/>
        <pt x="297" y="722" on="0"/>
        <pt x="297" y="711" on="1"/>
        <pt x="296" y="703" on="1"/>
        <pt x="252" y="695" on="0"/>
        <pt x="239" y="616" on="1"/>
        <pt x="229" y="571" on="0"/>
        <pt x="229" y="395" on="1"/>
        <pt x="229" y="84" on="1"/>
        <pt x="229" y="-38" on="0"/>
        <pt x="188" y="-142" on="0"/>
        <pt x="113" y="-200" on="1"/>
        <pt x="13" y="-276" on="1"/>
        <pt x="-5" y="-272" on="0"/>
        <pt x="-5" y="-253" on="1"/>
        <pt x="51" y="-196" on="1"/>
        <pt x="109" y="-137" on="0"/>
        <pt x="140" y="26" on="0"/>
        <pt x="140" y="167" on="1"/>
        <pt x="140" y="433" on="1"/>
        <pt x="140" y="687" on="0"/>
        <pt x="124" y="689" on="1"/>
        <pt x="97" y="692" on="0"/>
        <pt x="39" y="692" on="1"/>
        <pt x="36" y="699" on="0"/>
        <pt x="36" y="717" on="0"/>
      </contour>
    </TTGlyph>
    <TTGlyph name="Jcircumflex" xMin="-5" yMin="-276" xMax="345" yMax="944">
      <contour>
        <pt x="325" y="761" on="1"/>
        <pt x="176" y="857" on="1"/>
        <pt x="25" y="761" on="1"/>
        <pt x="17" y="762" on="0"/>
        <pt x="7" y="772" on="0"/>
        <pt x="5" y="781" on="1"/>
        <pt x="96" y="867" on="0"/>
        <pt x="169" y="944" on="1"/>
        <pt x="181" y="944" on="1"/>
        <pt x="261" y="862" on="0"/>
        <pt x="320" y="804" on="1"/>
        <pt x="345" y="781" on="1"/>
        <pt x="343" y="763" on="0"/>
      </contour>
      <contour>
        <pt x="164" y="720" on="1"/>
        <pt x="248" y="720" on="0"/>
        <pt x="292" y="728" on="1"/>
        <pt x="297" y="722" on="0"/>
        <pt x="297" y="707" on="0"/>
        <pt x="296" y="703" on="1"/>
        <pt x="252" y="695" on="0"/>
        <pt x="239" y="616" on="1"/>
        <pt x="229" y="571" on="0"/>
        <pt x="229" y="395" on="1"/>
        <pt x="229" y="84" on="1"/>
        <pt x="229" y="-38" on="0"/>
        <pt x="188" y="-142" on="0"/>
        <pt x="113" y="-200" on="1"/>
        <pt x="13" y="-276" on="1"/>
        <pt x="-5" y="-272" on="0"/>
        <pt x="-5" y="-253" on="1"/>
        <pt x="51" y="-196" on="1"/>
        <pt x="109" y="-137" on="0"/>
        <pt x="140" y="26" on="0"/>
        <pt x="140" y="167" on="1"/>
        <pt x="140" y="433" on="1"/>
        <pt x="140" y="687" on="0"/>
        <pt x="124" y="689" on="1"/>
        <pt x="97" y="692" on="0"/>
        <pt x="39" y="692" on="1"/>
        <pt x="36" y="708" on="1"/>
        <pt x="36" y="717" on="0"/>
        <pt x="39" y="723" on="1"/>
      </contour>
    </TTGlyph>
    <TTGlyph name="K" xMin="20" yMin="-20" xMax="712" yMax="728">
      <contour>
        <pt x="316" y="-3" on="1"/>
        <pt x="183" y="0" on="1"/>
        <pt x="84" y="0" on="0"/>
        <pt x="25" y="-8" on="1"/>
        <pt x="20" y="-2" on="0"/>
        <pt x="20" y="9" on="1"/>
        <pt x="21" y="17" on="1"/>
        <pt x="81" y="31" on="0"/>
        <pt x="116" y="65" on="0"/>
        <pt x="121" y="104" on="1"/>
        <pt x="133" y="219" on="0"/>
        <pt x="133" y="352" on="1"/>
        <pt x="133" y="468" on="1"/>
        <pt x="133" y="687" on="0"/>
        <pt x="116" y="689" on="1"/>
        <pt x="93" y="692" on="0"/>
        <pt x="47" y="692" on="1"/>
        <pt x="44" y="699" on="0"/>
        <pt x="44" y="717" on="0"/>
        <pt x="47" y="723" on="1"/>
        <pt x="159" y="720" on="1"/>
        <pt x="252" y="720" on="0"/>
        <pt x="300" y="728" on="1"/>
        <pt x="304" y="723" on="0"/>
        <pt x="304" y="703" on="1"/>
        <pt x="269" y="698" on="0"/>
        <pt x="240" y="659" on="0"/>
        <pt x="233" y="629" on="1"/>
        <pt x="223" y="577" on="0"/>
        <pt x="223" y="395" on="1"/>
        <pt x="223" y="211" on="1"/>
        <pt x="223" y="96" on="0"/>
        <pt x="229" y="33" on="1"/>
        <pt x="256" y="28" on="0"/>
        <pt x="316" y="28" on="1"/>
        <pt x="319" y="21" on="0"/>
        <pt x="319" y="12" on="1"/>
      </contour>
      <contour>
        <pt x="709" y="31" on="1"/>
        <pt x="712" y="25" on="0"/>
        <pt x="712" y="3" on="0"/>
        <pt x="711" y="0" on="1"/>
        <pt x="645" y="-3" on="0"/>
        <pt x="556" y="-20" on="0"/>
        <pt x="551" y="-20" on="1"/>
        <pt x="520" y="-20" on="0"/>
        <pt x="336" y="274" on="1"/>
        <pt x="263" y="390" on="0"/>
        <pt x="255" y="401" on="1"/>
        <pt x="385" y="524" on="1"/>
        <pt x="476" y="609" on="0"/>
        <pt x="511" y="681" on="1"/>
        <pt x="493" y="691" on="0"/>
        <pt x="433" y="693" on="1"/>
        <pt x="432" y="697" on="0"/>
        <pt x="432" y="704" on="1"/>
        <pt x="436" y="724" on="1"/>
        <pt x="537" y="720" on="0"/>
        <pt x="580" y="720" on="0"/>
        <pt x="640" y="725" on="1"/>
        <pt x="648" y="718" on="0"/>
        <pt x="648" y="700" on="1"/>
        <pt x="588" y="663" on="0"/>
        <pt x="544" y="624" on="1"/>
        <pt x="340" y="444" on="1"/>
        <pt x="529" y="143" on="0"/>
        <pt x="584" y="79" on="1"/>
        <pt x="621" y="36" on="0"/>
        <pt x="648" y="33" on="1"/>
        <pt x="665" y="31" on="0"/>
      </contour>
    </TTGlyph>
    <TTGlyph name="L" xMin="35" yMin="-8" xMax="596" yMax="728">
      <contour>
        <pt x="444" y="-4" on="1"/>
        <pt x="273" y="0" on="1"/>
        <pt x="207" y="0" on="1"/>
        <pt x="94" y="0" on="0"/>
        <pt x="40" y="-8" on="1"/>
        <pt x="35" y="-2" on="0"/>
        <pt x="35" y="9" on="1"/>
        <pt x="36" y="17" on="1"/>
        <pt x="88" y="29" on="0"/>
        <pt x="104" y="54" on="1"/>
        <pt x="117" y="74" on="0"/>
        <pt x="132" y="187" on="0"/>
        <pt x="132" y="349" on="1"/>
        <pt x="132" y="551" on="1"/>
        <pt x="132" y="688" on="0"/>
        <pt x="119" y="689" on="1"/>
        <pt x="100" y="692" on="0"/>
        <pt x="59" y="692" on="1"/>
        <pt x="56" y="699" on="0"/>
        <pt x="56" y="717" on="0"/>
        <pt x="59" y="723" on="1"/>
        <pt x="155" y="720" on="1"/>
        <pt x="247" y="720" on="0"/>
        <pt x="297" y="728" on="1"/>
        <pt x="303" y="720" on="0"/>
        <pt x="303" y="712" on="1"/>
        <pt x="301" y="703" on="1"/>
        <pt x="260" y="692" on="0"/>
        <pt x="234" y="659" on="0"/>
        <pt x="231" y="628" on="1"/>
        <pt x="219" y="505" on="0"/>
        <pt x="219" y="361" on="1"/>
        <pt x="219" y="172" on="1"/>
        <pt x="219" y="78" on="0"/>
        <pt x="225" y="40" on="1"/>
        <pt x="261" y="36" on="0"/>
        <pt x="309" y="36" on="1"/>
        <pt x="412" y="36" on="0"/>
        <pt x="513" y="63" on="1"/>
        <pt x="529" y="86" on="0"/>
        <pt x="556" y="163" on="0"/>
        <pt x="559" y="171" on="1"/>
        <pt x="564" y="172" on="0"/>
        <pt x="584" y="172" on="0"/>
        <pt x="596" y="163" on="1"/>
        <pt x="592" y="142" on="0"/>
        <pt x="574" y="8" on="0"/>
        <pt x="572" y="6" on="1"/>
        <pt x="559" y="-4" on="0"/>
      </contour>
    </TTGlyph>
    <TTGlyph name="Lslash" xMin="61" yMin="-8" xMax="623" yMax="728">
      <contour>
        <pt x="85" y="723" on="1"/>
        <pt x="181" y="720" on="1"/>
        <pt x="273" y="720" on="0"/>
        <pt x="324" y="728" on="1"/>
        <pt x="329" y="722" on="0"/>
        <pt x="329" y="712" on="1"/>
        <pt x="328" y="703" on="1"/>
        <pt x="287" y="692" on="0"/>
        <pt x="260" y="659" on="0"/>
        <pt x="257" y="628" on="1"/>
        <pt x="245" y="511" on="0"/>
        <pt x="245" y="380" on="1"/>
        <pt x="288" y="405" on="1"/>
        <pt x="314" y="421" on="0"/>
        <pt x="478" y="529" on="0"/>
        <pt x="512" y="555" on="1"/>
        <pt x="524" y="552" on="0"/>
        <pt x="528" y="545" on="1"/>
        <pt x="528" y="493" on="1"/>
        <pt x="245" y="325" on="1"/>
        <pt x="245" y="172" on="1"/>
        <pt x="245" y="85" on="0"/>
        <pt x="252" y="40" on="1"/>
        <pt x="288" y="36" on="0"/>
        <pt x="336" y="36" on="1"/>
        <pt x="439" y="36" on="0"/>
        <pt x="540" y="63" on="1"/>
        <pt x="555" y="87" on="0"/>
        <pt x="583" y="164" on="0"/>
        <pt x="585" y="171" on="1"/>
        <pt x="591" y="172" on="0"/>
        <pt x="611" y="172" on="0"/>
        <pt x="623" y="163" on="1"/>
        <pt x="615" y="120" on="0"/>
        <pt x="601" y="16" on="1"/>
        <pt x="600" y="4" on="0"/>
        <pt x="588" y="3" on="1"/>
        <pt x="544" y="-4" on="0"/>
        <pt x="471" y="-4" on="1"/>
        <pt x="300" y="0" on="1"/>
        <pt x="233" y="0" on="1"/>
        <pt x="120" y="0" on="0"/>
        <pt x="67" y="-8" on="1"/>
        <pt x="61" y="0" on="0"/>
        <pt x="61" y="9" on="1"/>
        <pt x="63" y="17" on="1"/>
        <pt x="115" y="29" on="0"/>
        <pt x="132" y="54" on="1"/>
        <pt x="144" y="74" on="0"/>
        <pt x="156" y="164" on="0"/>
        <pt x="157" y="271" on="1"/>
        <pt x="152" y="268" on="0"/>
        <pt x="104" y="229" on="1"/>
        <pt x="90" y="229" on="0"/>
        <pt x="87" y="239" on="1"/>
        <pt x="87" y="285" on="1"/>
        <pt x="159" y="328" on="1"/>
        <pt x="159" y="551" on="1"/>
        <pt x="159" y="688" on="0"/>
        <pt x="145" y="689" on="1"/>
        <pt x="127" y="692" on="0"/>
        <pt x="85" y="692" on="1"/>
        <pt x="83" y="699" on="0"/>
        <pt x="83" y="717" on="0"/>
      </contour>
    </TTGlyph>
    <TTGlyph name="M" xMin="37" yMin="-20" xMax="979" yMax="733">
      <contour>
        <pt x="976" y="-3" on="1"/>
        <pt x="872" y="0" on="1"/>
        <pt x="764" y="0" on="0"/>
        <pt x="697" y="-8" on="1"/>
        <pt x="692" y="-2" on="0"/>
        <pt x="692" y="9" on="1"/>
        <pt x="693" y="17" on="1"/>
        <pt x="753" y="31" on="0"/>
        <pt x="785" y="63" on="0"/>
        <pt x="791" y="167" on="0"/>
        <pt x="791" y="280" on="0"/>
        <pt x="785" y="396" on="1"/>
        <pt x="777" y="560" on="1"/>
        <pt x="731" y="475" on="0"/>
        <pt x="536" y="67" on="0"/>
        <pt x="507" y="-20" on="1"/>
        <pt x="479" y="-20" on="1"/>
        <pt x="284" y="421" on="0"/>
        <pt x="229" y="517" on="1"/>
        <pt x="187" y="589" on="1"/>
        <pt x="183" y="465" on="0"/>
        <pt x="183" y="108" on="0"/>
        <pt x="195" y="31" on="1"/>
        <pt x="217" y="28" on="0"/>
        <pt x="273" y="28" on="1"/>
        <pt x="276" y="20" on="0"/>
        <pt x="276" y="1" on="0"/>
        <pt x="273" y="-3" on="1"/>
        <pt x="160" y="0" on="1"/>
        <pt x="91" y="0" on="0"/>
        <pt x="44" y="-8" on="1"/>
        <pt x="39" y="-2" on="0"/>
        <pt x="39" y="9" on="1"/>
        <pt x="40" y="17" on="1"/>
        <pt x="89" y="28" on="0"/>
        <pt x="122" y="70" on="0"/>
        <pt x="127" y="104" on="1"/>
        <pt x="151" y="275" on="0"/>
        <pt x="155" y="643" on="1"/>
        <pt x="128" y="677" on="0"/>
        <pt x="96" y="691" on="1"/>
        <pt x="92" y="692" on="0"/>
        <pt x="40" y="699" on="1"/>
        <pt x="37" y="713" on="1"/>
        <pt x="37" y="723" on="0"/>
        <pt x="40" y="729" on="1"/>
        <pt x="200" y="733" on="1"/>
        <pt x="215" y="733" on="0"/>
        <pt x="288" y="627" on="0"/>
        <pt x="360" y="498" on="0"/>
        <pt x="455" y="292" on="0"/>
        <pt x="519" y="142" on="0"/>
        <pt x="523" y="135" on="1"/>
        <pt x="536" y="164" on="0"/>
        <pt x="756" y="629" on="0"/>
        <pt x="791" y="720" on="1"/>
        <pt x="892" y="720" on="0"/>
        <pt x="952" y="729" on="1"/>
        <pt x="957" y="720" on="0"/>
        <pt x="957" y="704" on="1"/>
        <pt x="907" y="693" on="0"/>
        <pt x="873" y="649" on="0"/>
        <pt x="869" y="599" on="0"/>
        <pt x="869" y="461" on="0"/>
        <pt x="882" y="131" on="0"/>
        <pt x="896" y="31" on="1"/>
        <pt x="915" y="28" on="0"/>
        <pt x="976" y="28" on="1"/>
        <pt x="979" y="21" on="0"/>
        <pt x="979" y="3" on="0"/>
      </contour>
    </TTGlyph>
    <TTGlyph name="N" xMin="29" yMin="-25" xMax="821" yMax="733">
      <contour>
        <pt x="264" y="-3" on="1"/>
        <pt x="151" y="0" on="1"/>
        <pt x="82" y="0" on="0"/>
        <pt x="35" y="-8" on="1"/>
        <pt x="29" y="0" on="0"/>
        <pt x="29" y="9" on="1"/>
        <pt x="31" y="17" on="1"/>
        <pt x="83" y="29" on="0"/>
        <pt x="100" y="54" on="1"/>
        <pt x="113" y="74" on="0"/>
        <pt x="117" y="104" on="1"/>
        <pt x="135" y="234" on="0"/>
        <pt x="140" y="653" on="1"/>
        <pt x="115" y="680" on="0"/>
        <pt x="77" y="696" on="0"/>
        <pt x="35" y="699" on="1"/>
        <pt x="32" y="705" on="0"/>
        <pt x="32" y="724" on="0"/>
        <pt x="35" y="729" on="1"/>
        <pt x="199" y="733" on="1"/>
        <pt x="229" y="733" on="0"/>
        <pt x="401" y="527" on="1"/>
        <pt x="499" y="411" on="0"/>
        <pt x="688" y="157" on="1"/>
        <pt x="685" y="235" on="0"/>
        <pt x="678" y="636" on="0"/>
        <pt x="669" y="689" on="1"/>
        <pt x="647" y="692" on="0"/>
        <pt x="588" y="692" on="1"/>
        <pt x="584" y="700" on="0"/>
        <pt x="584" y="717" on="0"/>
        <pt x="587" y="723" on="1"/>
        <pt x="700" y="720" on="1"/>
        <pt x="769" y="720" on="0"/>
        <pt x="816" y="728" on="1"/>
        <pt x="821" y="722" on="0"/>
        <pt x="821" y="711" on="1"/>
        <pt x="820" y="703" on="1"/>
        <pt x="771" y="692" on="0"/>
        <pt x="739" y="652" on="0"/>
        <pt x="736" y="616" on="1"/>
        <pt x="723" y="408" on="0"/>
        <pt x="723" y="-15" on="1"/>
        <pt x="699" y="-25" on="1"/>
        <pt x="677" y="3" on="1"/>
        <pt x="486" y="255" on="0"/>
        <pt x="303" y="481" on="1"/>
        <pt x="231" y="569" on="0"/>
        <pt x="172" y="623" on="1"/>
        <pt x="172" y="488" on="0"/>
        <pt x="173" y="116" on="0"/>
        <pt x="185" y="31" on="1"/>
        <pt x="208" y="28" on="0"/>
        <pt x="264" y="28" on="1"/>
        <pt x="267" y="20" on="0"/>
        <pt x="267" y="4" on="0"/>
      </contour>
    </TTGlyph>
    <TTGlyph name="Nacute" xMin="29" yMin="-25" xMax="821" yMax="953">
      <contour>
        <pt x="563" y="895" on="1"/>
        <pt x="371" y="771" on="1"/>
        <pt x="363" y="771" on="0"/>
        <pt x="353" y="781" on="0"/>
        <pt x="351" y="791" on="1"/>
        <pt x="441" y="876" on="0"/>
        <pt x="515" y="953" on="1"/>
        <pt x="553" y="929" on="0"/>
      </contour>
      <contour>
        <pt x="264" y="-3" on="1"/>
        <pt x="151" y="0" on="1"/>
        <pt x="82" y="0" on="0"/>
        <pt x="35" y="-8" on="1"/>
        <pt x="29" y="0" on="0"/>
        <pt x="29" y="9" on="1"/>
        <pt x="31" y="17" on="1"/>
        <pt x="83" y="29" on="0"/>
        <pt x="100" y="54" on="1"/>
        <pt x="113" y="74" on="0"/>
        <pt x="117" y="104" on="1"/>
        <pt x="135" y="234" on="0"/>
        <pt x="140" y="653" on="1"/>
        <pt x="115" y="680" on="0"/>
        <pt x="77" y="696" on="0"/>
        <pt x="35" y="699" on="1"/>
        <pt x="32" y="705" on="0"/>
        <pt x="32" y="724" on="0"/>
        <pt x="35" y="729" on="1"/>
        <pt x="199" y="733" on="1"/>
        <pt x="229" y="733" on="0"/>
        <pt x="401" y="527" on="1"/>
        <pt x="499" y="411" on="0"/>
        <pt x="688" y="157" on="1"/>
        <pt x="685" y="235" on="0"/>
        <pt x="678" y="636" on="0"/>
        <pt x="669" y="689" on="1"/>
        <pt x="647" y="692" on="0"/>
        <pt x="588" y="692" on="1"/>
        <pt x="584" y="700" on="0"/>
        <pt x="584" y="717" on="0"/>
        <pt x="587" y="723" on="1"/>
        <pt x="700" y="720" on="1"/>
        <pt x="769" y="720" on="0"/>
        <pt x="816" y="728" on="1"/>
        <pt x="821" y="722" on="0"/>
        <pt x="821" y="711" on="1"/>
        <pt x="820" y="703" on="1"/>
        <pt x="771" y="692" on="0"/>
        <pt x="739" y="652" on="0"/>
        <pt x="736" y="616" on="1"/>
        <pt x="723" y="408" on="0"/>
        <pt x="723" y="-15" on="1"/>
        <pt x="699" y="-25" on="1"/>
        <pt x="677" y="3" on="1"/>
        <pt x="486" y="255" on="0"/>
        <pt x="303" y="481" on="1"/>
        <pt x="231" y="569" on="0"/>
        <pt x="172" y="623" on="1"/>
        <pt x="172" y="488" on="0"/>
        <pt x="173" y="116" on="0"/>
        <pt x="185" y="31" on="1"/>
        <pt x="208" y="28" on="0"/>
        <pt x="264" y="28" on="1"/>
        <pt x="267" y="20" on="0"/>
        <pt x="267" y="4" on="0"/>
      </contour>
    </TTGlyph>
    <TTGlyph name="Ntilde" xMin="29" yMin="-25" xMax="821" yMax="908">
      <contour>
        <pt x="264" y="-3" on="1"/>
        <pt x="151" y="0" on="1"/>
        <pt x="82" y="0" on="0"/>
        <pt x="35" y="-8" on="1"/>
        <pt x="29" y="0" on="0"/>
        <pt x="29" y="9" on="1"/>
        <pt x="31" y="17" on="1"/>
        <pt x="83" y="29" on="0"/>
        <pt x="100" y="54" on="1"/>
        <pt x="113" y="74" on="0"/>
        <pt x="117" y="104" on="1"/>
        <pt x="135" y="234" on="0"/>
        <pt x="140" y="653" on="1"/>
        <pt x="115" y="680" on="0"/>
        <pt x="77" y="696" on="0"/>
        <pt x="35" y="699" on="1"/>
        <pt x="32" y="705" on="0"/>
        <pt x="32" y="724" on="0"/>
        <pt x="35" y="729" on="1"/>
        <pt x="199" y="733" on="1"/>
        <pt x="229" y="733" on="0"/>
        <pt x="401" y="527" on="1"/>
        <pt x="499" y="411" on="0"/>
        <pt x="688" y="157" on="1"/>
        <pt x="685" y="235" on="0"/>
        <pt x="678" y="636" on="0"/>
        <pt x="669" y="689" on="1"/>
        <pt x="647" y="692" on="0"/>
        <pt x="588" y="692" on="1"/>
        <pt x="584" y="700" on="0"/>
        <pt x="584" y="717" on="0"/>
        <pt x="587" y="723" on="1"/>
        <pt x="700" y="720" on="1"/>
        <pt x="769" y="720" on="0"/>
        <pt x="816" y="728" on="1"/>
        <pt x="821" y="722" on="0"/>
        <pt x="821" y="711" on="1"/>
        <pt x="820" y="703" on="1"/>
        <pt x="771" y="692" on="0"/>
        <pt x="739" y="652" on="0"/>
        <pt x="736" y="616" on="1"/>
        <pt x="723" y="408" on="0"/>
        <pt x="723" y="-15" on="1"/>
        <pt x="699" y="-25" on="1"/>
        <pt x="677" y="3" on="1"/>
        <pt x="486" y="255" on="0"/>
        <pt x="303" y="481" on="1"/>
        <pt x="231" y="569" on="0"/>
        <pt x="172" y="623" on="1"/>
        <pt x="172" y="488" on="0"/>
        <pt x="173" y="116" on="0"/>
        <pt x="185" y="31" on="1"/>
        <pt x="208" y="28" on="0"/>
        <pt x="264" y="28" on="1"/>
        <pt x="267" y="20" on="0"/>
        <pt x="267" y="4" on="0"/>
      </contour>
      <contour>
        <pt x="509" y="815" on="1"/>
        <pt x="481" y="815" on="0"/>
        <pt x="383" y="845" on="0"/>
        <pt x="327" y="845" on="0"/>
        <pt x="288" y="817" on="1"/>
        <pt x="278" y="824" on="0"/>
        <pt x="272" y="837" on="1"/>
        <pt x="301" y="860" on="0"/>
        <pt x="359" y="908" on="0"/>
        <pt x="400" y="908" on="0"/>
        <pt x="492" y="877" on="0"/>
        <pt x="525" y="877" on="1"/>
        <pt x="544" y="877" on="0"/>
        <pt x="587" y="907" on="1"/>
        <pt x="599" y="903" on="0"/>
        <pt x="604" y="884" on="1"/>
        <pt x="592" y="877" on="0"/>
        <pt x="523" y="815" on="0"/>
      </contour>
    </TTGlyph>
    <TTGlyph name="O" xMin="64" yMin="-20" xMax="779" yMax="736">
      <contour>
        <pt x="779" y="357" on="1"/>
        <pt x="779" y="287" on="0"/>
        <pt x="740" y="170" on="0"/>
        <pt x="681" y="95" on="0"/>
        <pt x="603" y="36" on="0"/>
        <pt x="532" y="5" on="0"/>
        <pt x="496" y="-5" on="1"/>
        <pt x="443" y="-20" on="0"/>
        <pt x="416" y="-20" on="1"/>
        <pt x="270" y="-20" on="0"/>
        <pt x="64" y="197" on="0"/>
        <pt x="64" y="357" on="1"/>
        <pt x="64" y="427" on="0"/>
        <pt x="103" y="544" on="0"/>
        <pt x="162" y="620" on="0"/>
        <pt x="240" y="679" on="0"/>
        <pt x="312" y="711" on="0"/>
        <pt x="347" y="721" on="1"/>
        <pt x="399" y="736" on="0"/>
        <pt x="428" y="736" on="1"/>
        <pt x="573" y="736" on="0"/>
        <pt x="779" y="515" on="0"/>
      </contour>
      <contour>
        <pt x="447" y="32" on="1"/>
        <pt x="560" y="32" on="0"/>
        <pt x="677" y="185" on="0"/>
        <pt x="677" y="305" on="1"/>
        <pt x="677" y="398" on="0"/>
        <pt x="610" y="570" on="0"/>
        <pt x="480" y="685" on="0"/>
        <pt x="399" y="685" on="1"/>
        <pt x="286" y="685" on="0"/>
        <pt x="165" y="528" on="0"/>
        <pt x="165" y="412" on="1"/>
        <pt x="165" y="319" on="0"/>
        <pt x="234" y="146" on="0"/>
        <pt x="366" y="32" on="0"/>
      </contour>
    </TTGlyph>
    <TTGlyph name="OE" xMin="64" yMin="-12" xMax="1025" yMax="728">
      <contour>
        <pt x="421" y="728" on="1"/>
        <pt x="675" y="720" on="1"/>
        <pt x="759" y="720" on="1"/>
        <pt x="995" y="727" on="1"/>
        <pt x="1012" y="727" on="0"/>
        <pt x="1012" y="716" on="1"/>
        <pt x="1012" y="715" on="0"/>
        <pt x="1008" y="692" on="1"/>
        <pt x="999" y="630" on="0"/>
        <pt x="995" y="553" on="1"/>
        <pt x="983" y="547" on="0"/>
        <pt x="963" y="547" on="0"/>
        <pt x="956" y="551" on="1"/>
        <pt x="940" y="651" on="0"/>
        <pt x="937" y="664" on="1"/>
        <pt x="846" y="685" on="0"/>
        <pt x="701" y="685" on="0"/>
        <pt x="673" y="681" on="1"/>
        <pt x="661" y="617" on="0"/>
        <pt x="661" y="396" on="1"/>
        <pt x="677" y="392" on="0"/>
        <pt x="816" y="392" on="0"/>
        <pt x="884" y="400" on="0"/>
        <pt x="915" y="424" on="0"/>
        <pt x="923" y="461" on="1"/>
        <pt x="944" y="461" on="0"/>
        <pt x="953" y="455" on="1"/>
        <pt x="944" y="395" on="0"/>
        <pt x="944" y="371" on="1"/>
        <pt x="945" y="284" on="1"/>
        <pt x="939" y="279" on="0"/>
        <pt x="928" y="279" on="1"/>
        <pt x="913" y="281" on="1"/>
        <pt x="903" y="347" on="1"/>
        <pt x="849" y="356" on="0"/>
        <pt x="706" y="356" on="0"/>
        <pt x="661" y="351" on="1"/>
        <pt x="661" y="172" on="1"/>
        <pt x="661" y="85" on="0"/>
        <pt x="668" y="40" on="1"/>
        <pt x="699" y="36" on="0"/>
        <pt x="739" y="36" on="1"/>
        <pt x="840" y="36" on="0"/>
        <pt x="943" y="63" on="1"/>
        <pt x="958" y="87" on="0"/>
        <pt x="986" y="164" on="0"/>
        <pt x="988" y="171" on="1"/>
        <pt x="993" y="172" on="0"/>
        <pt x="1013" y="172" on="0"/>
        <pt x="1025" y="163" on="1"/>
        <pt x="1011" y="91" on="0"/>
        <pt x="1004" y="16" on="1"/>
        <pt x="1003" y="4" on="0"/>
        <pt x="991" y="3" on="1"/>
        <pt x="947" y="-4" on="0"/>
        <pt x="873" y="-4" on="1"/>
        <pt x="703" y="0" on="1"/>
        <pt x="649" y="0" on="1"/>
        <pt x="614" y="0" on="0"/>
        <pt x="478" y="-12" on="0"/>
        <pt x="409" y="-12" on="1"/>
        <pt x="265" y="-12" on="0"/>
        <pt x="64" y="200" on="0"/>
        <pt x="64" y="357" on="1"/>
        <pt x="64" y="426" on="0"/>
        <pt x="102" y="541" on="0"/>
        <pt x="160" y="615" on="0"/>
        <pt x="236" y="673" on="0"/>
        <pt x="307" y="703" on="0"/>
        <pt x="342" y="713" on="1"/>
        <pt x="393" y="728" on="0"/>
      </contour>
      <contour>
        <pt x="232" y="151" on="0"/>
        <pt x="361" y="39" on="0"/>
        <pt x="506" y="39" on="0"/>
        <pt x="556" y="63" on="1"/>
        <pt x="559" y="74" on="0"/>
        <pt x="576" y="195" on="0"/>
        <pt x="576" y="509" on="0"/>
        <pt x="571" y="634" on="0"/>
        <pt x="567" y="665" on="1"/>
        <pt x="509" y="683" on="0"/>
        <pt x="288" y="683" on="0"/>
        <pt x="164" y="524" on="0"/>
        <pt x="164" y="411" on="1"/>
        <pt x="164" y="320" on="0"/>
      </contour>
    </TTGlyph>
    <TTGlyph name="Oacute" xMin="64" yMin="-20" xMax="779" yMax="953">
      <contour>
        <pt x="545" y="895" on="1"/>
        <pt x="353" y="771" on="1"/>
        <pt x="345" y="771" on="0"/>
        <pt x="335" y="781" on="0"/>
        <pt x="333" y="791" on="1"/>
        <pt x="424" y="876" on="0"/>
        <pt x="497" y="953" on="1"/>
        <pt x="537" y="930" on="0"/>
      </contour>
      <contour>
        <pt x="779" y="357" on="1"/>
        <pt x="779" y="287" on="0"/>
        <pt x="740" y="170" on="0"/>
        <pt x="681" y="95" on="0"/>
        <pt x="603" y="36" on="0"/>
        <pt x="532" y="5" on="0"/>
        <pt x="496" y="-5" on="1"/>
        <pt x="443" y="-20" on="0"/>
        <pt x="416" y="-20" on="1"/>
        <pt x="270" y="-20" on="0"/>
        <pt x="64" y="197" on="0"/>
        <pt x="64" y="357" on="1"/>
        <pt x="64" y="427" on="0"/>
        <pt x="103" y="544" on="0"/>
        <pt x="162" y="620" on="0"/>
        <pt x="240" y="679" on="0"/>
        <pt x="312" y="711" on="0"/>
        <pt x="347" y="721" on="1"/>
        <pt x="399" y="736" on="0"/>
        <pt x="428" y="736" on="1"/>
        <pt x="573" y="736" on="0"/>
        <pt x="779" y="515" on="0"/>
      </contour>
      <contour>
        <pt x="447" y="32" on="1"/>
        <pt x="560" y="32" on="0"/>
        <pt x="677" y="185" on="0"/>
        <pt x="677" y="305" on="1"/>
        <pt x="677" y="398" on="0"/>
        <pt x="610" y="570" on="0"/>
        <pt x="480" y="685" on="0"/>
        <pt x="399" y="685" on="1"/>
        <pt x="286" y="685" on="0"/>
        <pt x="165" y="528" on="0"/>
        <pt x="165" y="412" on="1"/>
        <pt x="165" y="319" on="0"/>
        <pt x="234" y="146" on="0"/>
        <pt x="366" y="32" on="0"/>
      </contour>
    </TTGlyph>
    <TTGlyph name="Ocircumflex" xMin="64" yMin="-20" xMax="779" yMax="944">
      <contour>
        <pt x="571" y="761" on="1"/>
        <pt x="421" y="857" on="1"/>
        <pt x="271" y="761" on="1"/>
        <pt x="263" y="762" on="0"/>
        <pt x="253" y="772" on="0"/>
        <pt x="251" y="781" on="1"/>
        <pt x="341" y="867" on="0"/>
        <pt x="415" y="944" on="1"/>
        <pt x="427" y="944" on="1"/>
        <pt x="499" y="867" on="0"/>
        <pt x="566" y="804" on="1"/>
        <pt x="591" y="781" on="1"/>
        <pt x="588" y="763" on="0"/>
      </contour>
      <contour>
        <pt x="779" y="357" on="1"/>
        <pt x="779" y="287" on="0"/>
        <pt x="740" y="170" on="0"/>
        <pt x="681" y="95" on="0"/>
        <pt x="603" y="36" on="0"/>
        <pt x="532" y="5" on="0"/>
        <pt x="496" y="-5" on="1"/>
        <pt x="443" y="-20" on="0"/>
        <pt x="416" y="-20" on="1"/>
        <pt x="270" y="-20" on="0"/>
        <pt x="64" y="197" on="0"/>
        <pt x="64" y="357" on="1"/>
        <pt x="64" y="427" on="0"/>
        <pt x="103" y="544" on="0"/>
        <pt x="162" y="620" on="0"/>
        <pt x="240" y="679" on="0"/>
        <pt x="312" y="711" on="0"/>
        <pt x="347" y="721" on="1"/>
        <pt x="399" y="736" on="0"/>
        <pt x="428" y="736" on="1"/>
        <pt x="573" y="736" on="0"/>
        <pt x="779" y="515" on="0"/>
      </contour>
      <contour>
        <pt x="447" y="32" on="1"/>
        <pt x="560" y="32" on="0"/>
        <pt x="677" y="185" on="0"/>
        <pt x="677" y="305" on="1"/>
        <pt x="677" y="398" on="0"/>
        <pt x="610" y="570" on="0"/>
        <pt x="480" y="685" on="0"/>
        <pt x="399" y="685" on="1"/>
        <pt x="286" y="685" on="0"/>
        <pt x="165" y="528" on="0"/>
        <pt x="165" y="412" on="1"/>
        <pt x="165" y="319" on="0"/>
        <pt x="234" y="146" on="0"/>
        <pt x="366" y="32" on="0"/>
      </contour>
    </TTGlyph>
    <TTGlyph name="Odieresis" xMin="64" yMin="-20" xMax="779" yMax="920">
      <contour>
        <pt x="779" y="357" on="1"/>
        <pt x="779" y="287" on="0"/>
        <pt x="740" y="170" on="0"/>
        <pt x="681" y="95" on="0"/>
        <pt x="603" y="36" on="0"/>
        <pt x="532" y="5" on="0"/>
        <pt x="496" y="-5" on="1"/>
        <pt x="443" y="-20" on="0"/>
        <pt x="416" y="-20" on="1"/>
        <pt x="270" y="-20" on="0"/>
        <pt x="64" y="197" on="0"/>
        <pt x="64" y="357" on="1"/>
        <pt x="64" y="427" on="0"/>
        <pt x="103" y="544" on="0"/>
        <pt x="162" y="620" on="0"/>
        <pt x="240" y="679" on="0"/>
        <pt x="312" y="711" on="0"/>
        <pt x="347" y="721" on="1"/>
        <pt x="399" y="736" on="0"/>
        <pt x="428" y="736" on="1"/>
        <pt x="573" y="736" on="0"/>
        <pt x="779" y="515" on="0"/>
      </contour>
      <contour>
        <pt x="447" y="32" on="1"/>
        <pt x="560" y="32" on="0"/>
        <pt x="677" y="185" on="0"/>
        <pt x="677" y="305" on="1"/>
        <pt x="677" y="398" on="0"/>
        <pt x="610" y="570" on="0"/>
        <pt x="480" y="685" on="0"/>
        <pt x="399" y="685" on="1"/>
        <pt x="286" y="685" on="0"/>
        <pt x="165" y="528" on="0"/>
        <pt x="165" y="412" on="1"/>
        <pt x="165" y="319" on="0"/>
        <pt x="234" y="146" on="0"/>
        <pt x="366" y="32" on="0"/>
      </contour>
      <contour>
        <pt x="305" y="803" on="1"/>
        <pt x="271" y="827" on="0"/>
        <pt x="255" y="869" on="1"/>
        <pt x="267" y="883" on="0"/>
        <pt x="308" y="914" on="0"/>
        <pt x="323" y="920" on="1"/>
        <pt x="360" y="892" on="0"/>
        <pt x="372" y="853" on="1"/>
        <pt x="344" y="817" on="0"/>
      </contour>
      <contour>
        <pt x="521" y="803" on="1"/>
        <pt x="487" y="827" on="0"/>
        <pt x="471" y="869" on="1"/>
        <pt x="483" y="883" on="0"/>
        <pt x="524" y="914" on="0"/>
        <pt x="539" y="920" on="1"/>
        <pt x="576" y="892" on="0"/>
        <pt x="588" y="853" on="1"/>
        <pt x="560" y="817" on="0"/>
      </contour>
    </TTGlyph>
    <TTGlyph name="Ograve" xMin="64" yMin="-20" xMax="779" yMax="953">
      <contour>
        <pt x="511" y="771" on="1"/>
        <pt x="319" y="895" on="1"/>
        <pt x="327" y="930" on="0"/>
        <pt x="367" y="953" on="1"/>
        <pt x="431" y="885" on="0"/>
        <pt x="506" y="814" on="1"/>
        <pt x="531" y="791" on="1"/>
        <pt x="528" y="772" on="0"/>
      </contour>
      <contour>
        <pt x="779" y="357" on="1"/>
        <pt x="779" y="287" on="0"/>
        <pt x="740" y="170" on="0"/>
        <pt x="681" y="95" on="0"/>
        <pt x="603" y="36" on="0"/>
        <pt x="532" y="5" on="0"/>
        <pt x="496" y="-5" on="1"/>
        <pt x="443" y="-20" on="0"/>
        <pt x="416" y="-20" on="1"/>
        <pt x="270" y="-20" on="0"/>
        <pt x="64" y="197" on="0"/>
        <pt x="64" y="357" on="1"/>
        <pt x="64" y="427" on="0"/>
        <pt x="103" y="544" on="0"/>
        <pt x="162" y="620" on="0"/>
        <pt x="240" y="679" on="0"/>
        <pt x="312" y="711" on="0"/>
        <pt x="347" y="721" on="1"/>
        <pt x="399" y="736" on="0"/>
        <pt x="428" y="736" on="1"/>
        <pt x="573" y="736" on="0"/>
        <pt x="779" y="515" on="0"/>
      </contour>
      <contour>
        <pt x="447" y="32" on="1"/>
        <pt x="560" y="32" on="0"/>
        <pt x="677" y="185" on="0"/>
        <pt x="677" y="305" on="1"/>
        <pt x="677" y="398" on="0"/>
        <pt x="610" y="570" on="0"/>
        <pt x="480" y="685" on="0"/>
        <pt x="399" y="685" on="1"/>
        <pt x="286" y="685" on="0"/>
        <pt x="165" y="528" on="0"/>
        <pt x="165" y="412" on="1"/>
        <pt x="165" y="319" on="0"/>
        <pt x="234" y="146" on="0"/>
        <pt x="366" y="32" on="0"/>
      </contour>
    </TTGlyph>
    <TTGlyph name="Oslash" xMin="64" yMin="-85" xMax="779" yMax="800">
      <contour>
        <pt x="703" y="609" on="0"/>
        <pt x="779" y="450" on="0"/>
        <pt x="779" y="287" on="0"/>
        <pt x="740" y="170" on="0"/>
        <pt x="681" y="95" on="0"/>
        <pt x="603" y="36" on="0"/>
        <pt x="532" y="5" on="0"/>
        <pt x="496" y="-5" on="1"/>
        <pt x="443" y="-20" on="0"/>
        <pt x="416" y="-20" on="1"/>
        <pt x="329" y="-20" on="0"/>
        <pt x="252" y="21" on="1"/>
        <pt x="232" y="-12" on="0"/>
        <pt x="200" y="-83" on="1"/>
        <pt x="197" y="-85" on="0"/>
        <pt x="188" y="-85" on="0"/>
        <pt x="183" y="-81" on="1"/>
        <pt x="163" y="-55" on="0"/>
        <pt x="151" y="-43" on="1"/>
        <pt x="207" y="52" on="1"/>
        <pt x="140" y="103" on="0"/>
        <pt x="64" y="262" on="0"/>
        <pt x="64" y="427" on="0"/>
        <pt x="103" y="544" on="0"/>
        <pt x="162" y="620" on="0"/>
        <pt x="240" y="679" on="0"/>
        <pt x="312" y="711" on="0"/>
        <pt x="347" y="721" on="1"/>
        <pt x="399" y="736" on="0"/>
        <pt x="428" y="736" on="1"/>
        <pt x="511" y="736" on="0"/>
        <pt x="589" y="693" on="1"/>
        <pt x="625" y="756" on="0"/>
        <pt x="643" y="799" on="1"/>
        <pt x="647" y="800" on="0"/>
        <pt x="656" y="800" on="0"/>
        <pt x="660" y="797" on="1"/>
        <pt x="665" y="789" on="0"/>
        <pt x="690" y="760" on="0"/>
        <pt x="693" y="756" on="1"/>
        <pt x="636" y="663" on="1"/>
      </contour>
      <contour>
        <pt x="399" y="685" on="1"/>
        <pt x="286" y="685" on="0"/>
        <pt x="165" y="528" on="0"/>
        <pt x="165" y="412" on="1"/>
        <pt x="165" y="253" on="0"/>
        <pt x="256" y="133" on="1"/>
        <pt x="551" y="623" on="1"/>
        <pt x="481" y="685" on="0"/>
      </contour>
      <contour>
        <pt x="447" y="32" on="1"/>
        <pt x="560" y="32" on="0"/>
        <pt x="677" y="185" on="0"/>
        <pt x="677" y="305" on="1"/>
        <pt x="677" y="380" on="0"/>
        <pt x="630" y="526" on="0"/>
        <pt x="588" y="581" on="1"/>
        <pt x="293" y="93" on="1"/>
        <pt x="362" y="32" on="0"/>
      </contour>
    </TTGlyph>
    <TTGlyph name="Otilde" xMin="64" yMin="-20" xMax="779" yMax="907">
      <contour>
        <pt x="779" y="357" on="1"/>
        <pt x="779" y="287" on="0"/>
        <pt x="740" y="170" on="0"/>
        <pt x="681" y="95" on="0"/>
        <pt x="603" y="36" on="0"/>
        <pt x="532" y="5" on="0"/>
        <pt x="496" y="-5" on="1"/>
        <pt x="443" y="-20" on="0"/>
        <pt x="416" y="-20" on="1"/>
        <pt x="270" y="-20" on="0"/>
        <pt x="64" y="197" on="0"/>
        <pt x="64" y="357" on="1"/>
        <pt x="64" y="427" on="0"/>
        <pt x="103" y="544" on="0"/>
        <pt x="162" y="620" on="0"/>
        <pt x="240" y="679" on="0"/>
        <pt x="312" y="711" on="0"/>
        <pt x="347" y="721" on="1"/>
        <pt x="399" y="736" on="0"/>
        <pt x="428" y="736" on="1"/>
        <pt x="573" y="736" on="0"/>
        <pt x="779" y="515" on="0"/>
      </contour>
      <contour>
        <pt x="447" y="32" on="1"/>
        <pt x="560" y="32" on="0"/>
        <pt x="677" y="185" on="0"/>
        <pt x="677" y="305" on="1"/>
        <pt x="677" y="398" on="0"/>
        <pt x="610" y="570" on="0"/>
        <pt x="480" y="685" on="0"/>
        <pt x="399" y="685" on="1"/>
        <pt x="286" y="685" on="0"/>
        <pt x="165" y="528" on="0"/>
        <pt x="165" y="412" on="1"/>
        <pt x="165" y="319" on="0"/>
        <pt x="234" y="146" on="0"/>
        <pt x="366" y="32" on="0"/>
      </contour>
      <contour>
        <pt x="496" y="813" on="1"/>
        <pt x="468" y="813" on="0"/>
        <pt x="369" y="844" on="0"/>
        <pt x="320" y="844" on="0"/>
        <pt x="275" y="816" on="1"/>
        <pt x="264" y="822" on="0"/>
        <pt x="259" y="836" on="1"/>
        <pt x="275" y="849" on="0"/>
        <pt x="311" y="880" on="0"/>
        <pt x="316" y="884" on="1"/>
        <pt x="344" y="907" on="0"/>
        <pt x="387" y="907" on="0"/>
        <pt x="479" y="876" on="0"/>
        <pt x="518" y="876" on="0"/>
        <pt x="530" y="879" on="0"/>
        <pt x="545" y="887" on="0"/>
        <pt x="552" y="891" on="0"/>
        <pt x="571" y="904" on="0"/>
        <pt x="573" y="905" on="1"/>
        <pt x="585" y="902" on="0"/>
        <pt x="591" y="883" on="1"/>
        <pt x="571" y="868" on="0"/>
        <pt x="557" y="856" on="1"/>
        <pt x="510" y="813" on="0"/>
      </contour>
    </TTGlyph>
    <TTGlyph name="P" xMin="35" yMin="-8" xMax="591" yMax="723">
      <contour>
        <pt x="49" y="723" on="1"/>
        <pt x="201" y="720" on="1"/>
        <pt x="329" y="720" on="1"/>
        <pt x="451" y="720" on="0"/>
        <pt x="591" y="616" on="0"/>
        <pt x="591" y="395" on="0"/>
        <pt x="441" y="283" on="0"/>
        <pt x="320" y="283" on="1"/>
        <pt x="283" y="283" on="0"/>
        <pt x="264" y="284" on="1"/>
        <pt x="259" y="290" on="0"/>
        <pt x="259" y="301" on="1"/>
        <pt x="264" y="321" on="1"/>
        <pt x="277" y="320" on="0"/>
        <pt x="316" y="320" on="1"/>
        <pt x="396" y="320" on="0"/>
        <pt x="503" y="415" on="0"/>
        <pt x="503" y="572" on="0"/>
        <pt x="408" y="685" on="0"/>
        <pt x="268" y="685" on="0"/>
        <pt x="231" y="681" on="1"/>
        <pt x="225" y="664" on="0"/>
        <pt x="219" y="548" on="0"/>
        <pt x="219" y="295" on="1"/>
        <pt x="219" y="172" on="1"/>
        <pt x="219" y="90" on="0"/>
        <pt x="224" y="37" on="1"/>
        <pt x="271" y="31" on="0"/>
        <pt x="352" y="31" on="1"/>
        <pt x="356" y="21" on="0"/>
        <pt x="356" y="2" on="0"/>
        <pt x="352" y="-3" on="1"/>
        <pt x="179" y="0" on="1"/>
        <pt x="103" y="0" on="0"/>
        <pt x="40" y="-8" on="1"/>
        <pt x="35" y="-2" on="0"/>
        <pt x="35" y="9" on="1"/>
        <pt x="36" y="17" on="1"/>
        <pt x="88" y="29" on="0"/>
        <pt x="104" y="54" on="1"/>
        <pt x="117" y="74" on="0"/>
        <pt x="121" y="104" on="1"/>
        <pt x="133" y="195" on="0"/>
        <pt x="133" y="350" on="1"/>
        <pt x="133" y="681" on="0"/>
        <pt x="115" y="687" on="1"/>
        <pt x="96" y="692" on="0"/>
        <pt x="49" y="692" on="1"/>
        <pt x="47" y="699" on="0"/>
        <pt x="47" y="717" on="0"/>
      </contour>
    </TTGlyph>
    <TTGlyph name="Q" xMin="64" yMin="-231" xMax="887" yMax="736">
      <contour>
        <pt x="779" y="357" on="1"/>
        <pt x="779" y="123" on="0"/>
        <pt x="573" y="24" on="1"/>
        <pt x="589" y="3" on="0"/>
        <pt x="651" y="-69" on="0"/>
        <pt x="698" y="-114" on="0"/>
        <pt x="720" y="-128" on="1"/>
        <pt x="749" y="-146" on="0"/>
        <pt x="797" y="-165" on="1"/>
        <pt x="824" y="-165" on="0"/>
        <pt x="876" y="-153" on="1"/>
        <pt x="887" y="-163" on="0"/>
        <pt x="887" y="-183" on="1"/>
        <pt x="876" y="-186" on="0"/>
        <pt x="838" y="-199" on="1"/>
        <pt x="743" y="-231" on="0"/>
        <pt x="729" y="-231" on="1"/>
        <pt x="674" y="-231" on="0"/>
        <pt x="532" y="-75" on="1"/>
        <pt x="513" y="-55" on="0"/>
        <pt x="477" y="-9" on="1"/>
        <pt x="432" y="-20" on="0"/>
        <pt x="416" y="-20" on="1"/>
        <pt x="270" y="-20" on="0"/>
        <pt x="64" y="197" on="0"/>
        <pt x="64" y="357" on="1"/>
        <pt x="64" y="427" on="0"/>
        <pt x="103" y="544" on="0"/>
        <pt x="162" y="620" on="0"/>
        <pt x="240" y="679" on="0"/>
        <pt x="312" y="711" on="0"/>
        <pt x="347" y="721" on="1"/>
        <pt x="399" y="736" on="0"/>
        <pt x="428" y="736" on="1"/>
        <pt x="573" y="736" on="0"/>
        <pt x="779" y="515" on="0"/>
      </contour>
      <contour>
        <pt x="447" y="32" on="1"/>
        <pt x="560" y="32" on="0"/>
        <pt x="677" y="185" on="0"/>
        <pt x="677" y="305" on="1"/>
        <pt x="677" y="398" on="0"/>
        <pt x="610" y="570" on="0"/>
        <pt x="480" y="685" on="0"/>
        <pt x="399" y="685" on="1"/>
        <pt x="286" y="685" on="0"/>
        <pt x="165" y="528" on="0"/>
        <pt x="165" y="412" on="1"/>
        <pt x="165" y="319" on="0"/>
        <pt x="234" y="146" on="0"/>
        <pt x="366" y="32" on="0"/>
      </contour>
    </TTGlyph>
    <TTGlyph name="R" xMin="35" yMin="-20" xMax="709" yMax="723">
      <contour>
        <pt x="49" y="723" on="1"/>
        <pt x="201" y="720" on="1"/>
        <pt x="320" y="720" on="1"/>
        <pt x="433" y="720" on="0"/>
        <pt x="563" y="623" on="0"/>
        <pt x="563" y="521" on="1"/>
        <pt x="563" y="444" on="0"/>
        <pt x="482" y="345" on="0"/>
        <pt x="412" y="325" on="1"/>
        <pt x="447" y="264" on="0"/>
        <pt x="552" y="108" on="0"/>
        <pt x="617" y="35" on="0"/>
        <pt x="661" y="28" on="0"/>
        <pt x="707" y="28" on="1"/>
        <pt x="709" y="20" on="0"/>
        <pt x="709" y="5" on="0"/>
        <pt x="707" y="-3" on="1"/>
        <pt x="634" y="-7" on="0"/>
        <pt x="553" y="-20" on="0"/>
        <pt x="538" y="-20" on="0"/>
        <pt x="493" y="31" on="0"/>
        <pt x="433" y="122" on="0"/>
        <pt x="384" y="200" on="0"/>
        <pt x="323" y="301" on="0"/>
        <pt x="316" y="312" on="1"/>
        <pt x="252" y="312" on="0"/>
        <pt x="217" y="316" on="1"/>
        <pt x="217" y="167" on="1"/>
        <pt x="217" y="107" on="0"/>
        <pt x="224" y="35" on="1"/>
        <pt x="255" y="28" on="0"/>
        <pt x="312" y="28" on="1"/>
        <pt x="315" y="20" on="0"/>
        <pt x="315" y="1" on="0"/>
        <pt x="312" y="-3" on="1"/>
        <pt x="179" y="0" on="1"/>
        <pt x="103" y="0" on="0"/>
        <pt x="40" y="-8" on="1"/>
        <pt x="35" y="-2" on="0"/>
        <pt x="35" y="9" on="1"/>
        <pt x="36" y="17" on="1"/>
        <pt x="88" y="29" on="0"/>
        <pt x="104" y="54" on="1"/>
        <pt x="117" y="74" on="0"/>
        <pt x="121" y="104" on="1"/>
        <pt x="133" y="195" on="0"/>
        <pt x="133" y="350" on="1"/>
        <pt x="133" y="681" on="0"/>
        <pt x="115" y="687" on="1"/>
        <pt x="96" y="692" on="0"/>
        <pt x="49" y="692" on="1"/>
        <pt x="45" y="699" on="0"/>
        <pt x="45" y="711" on="0"/>
      </contour>
      <contour>
        <pt x="476" y="584" on="0"/>
        <pt x="393" y="688" on="0"/>
        <pt x="255" y="688" on="0"/>
        <pt x="228" y="684" on="1"/>
        <pt x="217" y="640" on="0"/>
        <pt x="217" y="352" on="1"/>
        <pt x="253" y="349" on="0"/>
        <pt x="381" y="349" on="0"/>
        <pt x="476" y="437" on="0"/>
      </contour>
    </TTGlyph>
    <TTGlyph name="Racute" xMin="35" yMin="-20" xMax="709" yMax="953">
      <contour>
        <pt x="440" y="895" on="1"/>
        <pt x="248" y="771" on="1"/>
        <pt x="240" y="771" on="0"/>
        <pt x="230" y="781" on="0"/>
        <pt x="228" y="791" on="1"/>
        <pt x="319" y="876" on="0"/>
        <pt x="392" y="953" on="1"/>
        <pt x="430" y="929" on="0"/>
      </contour>
      <contour>
        <pt x="49" y="723" on="1"/>
        <pt x="201" y="720" on="1"/>
        <pt x="320" y="720" on="1"/>
        <pt x="433" y="720" on="0"/>
        <pt x="563" y="623" on="0"/>
        <pt x="563" y="521" on="1"/>
        <pt x="563" y="444" on="0"/>
        <pt x="482" y="345" on="0"/>
        <pt x="412" y="325" on="1"/>
        <pt x="447" y="264" on="0"/>
        <pt x="554" y="107" on="0"/>
        <pt x="617" y="35" on="0"/>
        <pt x="661" y="28" on="0"/>
        <pt x="707" y="28" on="1"/>
        <pt x="709" y="20" on="0"/>
        <pt x="709" y="5" on="0"/>
        <pt x="707" y="-3" on="1"/>
        <pt x="634" y="-7" on="0"/>
        <pt x="553" y="-20" on="0"/>
        <pt x="538" y="-20" on="0"/>
        <pt x="493" y="31" on="0"/>
        <pt x="433" y="122" on="0"/>
        <pt x="384" y="200" on="0"/>
        <pt x="323" y="301" on="0"/>
        <pt x="316" y="312" on="1"/>
        <pt x="252" y="312" on="0"/>
        <pt x="217" y="316" on="1"/>
        <pt x="217" y="167" on="1"/>
        <pt x="217" y="107" on="0"/>
        <pt x="224" y="35" on="1"/>
        <pt x="255" y="28" on="0"/>
        <pt x="312" y="28" on="1"/>
        <pt x="315" y="20" on="0"/>
        <pt x="315" y="1" on="0"/>
        <pt x="312" y="-3" on="1"/>
        <pt x="179" y="0" on="1"/>
        <pt x="103" y="0" on="0"/>
        <pt x="40" y="-8" on="1"/>
        <pt x="35" y="-2" on="0"/>
        <pt x="35" y="9" on="1"/>
        <pt x="36" y="17" on="1"/>
        <pt x="88" y="29" on="0"/>
        <pt x="104" y="54" on="1"/>
        <pt x="117" y="74" on="0"/>
        <pt x="121" y="104" on="1"/>
        <pt x="133" y="195" on="0"/>
        <pt x="133" y="350" on="1"/>
        <pt x="133" y="681" on="0"/>
        <pt x="115" y="687" on="1"/>
        <pt x="96" y="692" on="0"/>
        <pt x="49" y="692" on="1"/>
        <pt x="45" y="699" on="0"/>
        <pt x="45" y="711" on="0"/>
      </contour>
      <contour>
        <pt x="476" y="584" on="0"/>
        <pt x="393" y="688" on="0"/>
        <pt x="255" y="688" on="0"/>
        <pt x="228" y="684" on="1"/>
        <pt x="217" y="640" on="0"/>
        <pt x="217" y="352" on="1"/>
        <pt x="253" y="349" on="0"/>
        <pt x="381" y="349" on="0"/>
        <pt x="476" y="437" on="0"/>
      </contour>
    </TTGlyph>
    <TTGlyph name="Rcaron" xMin="35" yMin="-20" xMax="709" yMax="944">
      <contour>
        <pt x="299" y="848" on="1"/>
        <pt x="448" y="944" on="1"/>
        <pt x="456" y="944" on="0"/>
        <pt x="466" y="934" on="0"/>
        <pt x="468" y="924" on="1"/>
        <pt x="377" y="839" on="0"/>
        <pt x="304" y="761" on="1"/>
        <pt x="292" y="761" on="1"/>
        <pt x="235" y="824" on="0"/>
        <pt x="153" y="900" on="1"/>
        <pt x="128" y="924" on="1"/>
        <pt x="131" y="943" on="0"/>
        <pt x="148" y="944" on="1"/>
      </contour>
      <contour>
        <pt x="49" y="723" on="1"/>
        <pt x="201" y="720" on="1"/>
        <pt x="320" y="720" on="1"/>
        <pt x="433" y="720" on="0"/>
        <pt x="563" y="623" on="0"/>
        <pt x="563" y="521" on="1"/>
        <pt x="563" y="444" on="0"/>
        <pt x="482" y="345" on="0"/>
        <pt x="412" y="325" on="1"/>
        <pt x="447" y="264" on="0"/>
        <pt x="552" y="108" on="0"/>
        <pt x="617" y="35" on="0"/>
        <pt x="661" y="28" on="0"/>
        <pt x="707" y="28" on="1"/>
        <pt x="709" y="20" on="0"/>
        <pt x="709" y="5" on="0"/>
        <pt x="707" y="-3" on="1"/>
        <pt x="634" y="-7" on="0"/>
        <pt x="553" y="-20" on="0"/>
        <pt x="538" y="-20" on="0"/>
        <pt x="493" y="31" on="0"/>
        <pt x="433" y="122" on="0"/>
        <pt x="384" y="200" on="0"/>
        <pt x="323" y="301" on="0"/>
        <pt x="316" y="312" on="1"/>
        <pt x="252" y="312" on="0"/>
        <pt x="217" y="316" on="1"/>
        <pt x="217" y="167" on="1"/>
        <pt x="217" y="107" on="0"/>
        <pt x="224" y="35" on="1"/>
        <pt x="255" y="28" on="0"/>
        <pt x="312" y="28" on="1"/>
        <pt x="315" y="20" on="0"/>
        <pt x="315" y="1" on="0"/>
        <pt x="312" y="-3" on="1"/>
        <pt x="179" y="0" on="1"/>
        <pt x="103" y="0" on="0"/>
        <pt x="40" y="-8" on="1"/>
        <pt x="35" y="-2" on="0"/>
        <pt x="35" y="9" on="1"/>
        <pt x="36" y="17" on="1"/>
        <pt x="88" y="29" on="0"/>
        <pt x="104" y="54" on="1"/>
        <pt x="117" y="74" on="0"/>
        <pt x="121" y="104" on="1"/>
        <pt x="133" y="195" on="0"/>
        <pt x="133" y="350" on="1"/>
        <pt x="133" y="681" on="0"/>
        <pt x="115" y="687" on="1"/>
        <pt x="96" y="692" on="0"/>
        <pt x="49" y="692" on="1"/>
        <pt x="45" y="699" on="0"/>
        <pt x="45" y="711" on="0"/>
      </contour>
      <contour>
        <pt x="476" y="584" on="0"/>
        <pt x="393" y="688" on="0"/>
        <pt x="255" y="688" on="0"/>
        <pt x="228" y="684" on="1"/>
        <pt x="217" y="638" on="0"/>
        <pt x="217" y="352" on="1"/>
        <pt x="253" y="349" on="0"/>
        <pt x="381" y="349" on="0"/>
        <pt x="476" y="437" on="0"/>
      </contour>
    </TTGlyph>
    <TTGlyph name="Rcommaaccent" xMin="35" yMin="-333" xMax="709" yMax="723">
      <contour>
        <pt x="420" y="-140" on="1"/>
        <pt x="420" y="-213" on="0"/>
        <pt x="360" y="-281" on="1"/>
        <pt x="330" y="-316" on="0"/>
        <pt x="297" y="-333" on="1"/>
        <pt x="284" y="-332" on="0"/>
        <pt x="281" y="-313" on="1"/>
        <pt x="349" y="-260" on="0"/>
        <pt x="355" y="-204" on="1"/>
        <pt x="315" y="-179" on="0"/>
        <pt x="293" y="-148" on="1"/>
        <pt x="319" y="-111" on="0"/>
        <pt x="357" y="-80" on="1"/>
        <pt x="378" y="-93" on="0"/>
        <pt x="415" y="-128" on="0"/>
      </contour>
      <contour>
        <pt x="49" y="723" on="1"/>
        <pt x="201" y="720" on="1"/>
        <pt x="320" y="720" on="1"/>
        <pt x="433" y="720" on="0"/>
        <pt x="563" y="623" on="0"/>
        <pt x="563" y="521" on="1"/>
        <pt x="563" y="444" on="0"/>
        <pt x="482" y="345" on="0"/>
        <pt x="412" y="325" on="1"/>
        <pt x="447" y="264" on="0"/>
        <pt x="554" y="107" on="0"/>
        <pt x="617" y="35" on="0"/>
        <pt x="661" y="28" on="0"/>
        <pt x="707" y="28" on="1"/>
        <pt x="709" y="20" on="0"/>
        <pt x="709" y="5" on="0"/>
        <pt x="707" y="-3" on="1"/>
        <pt x="634" y="-7" on="0"/>
        <pt x="553" y="-20" on="0"/>
        <pt x="538" y="-20" on="0"/>
        <pt x="493" y="31" on="0"/>
        <pt x="433" y="122" on="0"/>
        <pt x="384" y="200" on="0"/>
        <pt x="323" y="301" on="0"/>
        <pt x="316" y="312" on="1"/>
        <pt x="252" y="312" on="0"/>
        <pt x="217" y="316" on="1"/>
        <pt x="217" y="167" on="1"/>
        <pt x="217" y="107" on="0"/>
        <pt x="224" y="35" on="1"/>
        <pt x="255" y="28" on="0"/>
        <pt x="312" y="28" on="1"/>
        <pt x="315" y="20" on="0"/>
        <pt x="315" y="1" on="0"/>
        <pt x="312" y="-3" on="1"/>
        <pt x="179" y="0" on="1"/>
        <pt x="103" y="0" on="0"/>
        <pt x="40" y="-8" on="1"/>
        <pt x="35" y="-2" on="0"/>
        <pt x="35" y="9" on="1"/>
        <pt x="36" y="17" on="1"/>
        <pt x="88" y="29" on="0"/>
        <pt x="104" y="54" on="1"/>
        <pt x="117" y="74" on="0"/>
        <pt x="121" y="104" on="1"/>
        <pt x="133" y="195" on="0"/>
        <pt x="133" y="350" on="1"/>
        <pt x="133" y="681" on="0"/>
        <pt x="115" y="687" on="1"/>
        <pt x="96" y="692" on="0"/>
        <pt x="49" y="692" on="1"/>
        <pt x="45" y="699" on="0"/>
        <pt x="45" y="711" on="0"/>
      </contour>
      <contour>
        <pt x="476" y="584" on="0"/>
        <pt x="393" y="688" on="0"/>
        <pt x="255" y="688" on="0"/>
        <pt x="228" y="684" on="1"/>
        <pt x="217" y="638" on="0"/>
        <pt x="217" y="352" on="1"/>
        <pt x="253" y="349" on="0"/>
        <pt x="381" y="349" on="0"/>
        <pt x="476" y="437" on="0"/>
      </contour>
    </TTGlyph>
    <TTGlyph name="S" xMin="67" yMin="-20" xMax="572" yMax="736">
      <contour>
        <pt x="463" y="660" on="1"/>
        <pt x="396" y="703" on="0"/>
        <pt x="272" y="703" on="0"/>
        <pt x="196" y="635" on="0"/>
        <pt x="196" y="532" on="0"/>
        <pt x="278" y="456" on="0"/>
        <pt x="369" y="412" on="1"/>
        <pt x="515" y="341" on="0"/>
        <pt x="554" y="260" on="1"/>
        <pt x="572" y="222" on="0"/>
        <pt x="572" y="179" on="1"/>
        <pt x="572" y="86" on="0"/>
        <pt x="415" y="-20" on="0"/>
        <pt x="309" y="-20" on="1"/>
        <pt x="252" y="-20" on="0"/>
        <pt x="128" y="2" on="0"/>
        <pt x="101" y="13" on="1"/>
        <pt x="91" y="91" on="0"/>
        <pt x="67" y="191" on="1"/>
        <pt x="85" y="200" on="0"/>
        <pt x="104" y="200" on="0"/>
        <pt x="109" y="199" on="1"/>
        <pt x="137" y="129" on="0"/>
        <pt x="161" y="93" on="1"/>
        <pt x="182" y="71" on="0"/>
        <pt x="214" y="44" on="0"/>
        <pt x="287" y="16" on="0"/>
        <pt x="391" y="16" on="0"/>
        <pt x="475" y="88" on="0"/>
        <pt x="475" y="144" on="1"/>
        <pt x="475" y="189" on="0"/>
        <pt x="443" y="229" on="0"/>
        <pt x="428" y="249" on="0"/>
        <pt x="386" y="276" on="0"/>
        <pt x="370" y="286" on="0"/>
        <pt x="317" y="314" on="0"/>
        <pt x="276" y="337" on="0"/>
        <pt x="248" y="353" on="0"/>
        <pt x="190" y="388" on="0"/>
        <pt x="166" y="409" on="0"/>
        <pt x="128" y="445" on="0"/>
        <pt x="120" y="460" on="1"/>
        <pt x="100" y="503" on="0"/>
        <pt x="100" y="541" on="1"/>
        <pt x="100" y="633" on="0"/>
        <pt x="254" y="736" on="0"/>
        <pt x="363" y="736" on="1"/>
        <pt x="408" y="736" on="0"/>
        <pt x="518" y="712" on="0"/>
        <pt x="548" y="699" on="1"/>
        <pt x="539" y="664" on="0"/>
        <pt x="531" y="553" on="1"/>
        <pt x="521" y="548" on="0"/>
        <pt x="499" y="548" on="0"/>
        <pt x="491" y="552" on="1"/>
        <pt x="490" y="564" on="0"/>
        <pt x="468" y="649" on="0"/>
      </contour>
    </TTGlyph>
    <TTGlyph name="T" xMin="7" yMin="-8" xMax="671" yMax="727">
      <contour>
        <pt x="504" y="-3" on="1"/>
        <pt x="340" y="0" on="1"/>
        <pt x="232" y="0" on="0"/>
        <pt x="161" y="-8" on="1"/>
        <pt x="156" y="-2" on="0"/>
        <pt x="156" y="9" on="1"/>
        <pt x="157" y="17" on="1"/>
        <pt x="226" y="28" on="0"/>
        <pt x="270" y="63" on="0"/>
        <pt x="277" y="103" on="1"/>
        <pt x="291" y="177" on="0"/>
        <pt x="291" y="525" on="0"/>
        <pt x="283" y="663" on="0"/>
        <pt x="277" y="680" on="1"/>
        <pt x="252" y="685" on="0"/>
        <pt x="216" y="685" on="1"/>
        <pt x="132" y="685" on="0"/>
        <pt x="85" y="663" on="1"/>
        <pt x="41" y="553" on="1"/>
        <pt x="18" y="553" on="0"/>
        <pt x="7" y="561" on="1"/>
        <pt x="23" y="716" on="1"/>
        <pt x="23" y="727" on="0"/>
        <pt x="40" y="727" on="1"/>
        <pt x="216" y="720" on="1"/>
        <pt x="461" y="720" on="1"/>
        <pt x="653" y="727" on="1"/>
        <pt x="671" y="727" on="0"/>
        <pt x="671" y="716" on="1"/>
        <pt x="655" y="628" on="0"/>
        <pt x="655" y="555" on="1"/>
        <pt x="647" y="551" on="0"/>
        <pt x="623" y="551" on="0"/>
        <pt x="616" y="555" on="1"/>
        <pt x="598" y="654" on="0"/>
        <pt x="596" y="663" on="1"/>
        <pt x="546" y="685" on="0"/>
        <pt x="459" y="685" on="1"/>
        <pt x="420" y="685" on="0"/>
        <pt x="396" y="680" on="1"/>
        <pt x="393" y="671" on="0"/>
        <pt x="384" y="523" on="0"/>
        <pt x="384" y="407" on="1"/>
        <pt x="384" y="228" on="1"/>
        <pt x="384" y="117" on="0"/>
        <pt x="400" y="35" on="1"/>
        <pt x="446" y="28" on="0"/>
        <pt x="504" y="28" on="1"/>
        <pt x="507" y="20" on="0"/>
        <pt x="507" y="1" on="0"/>
      </contour>
    </TTGlyph>
    <TTGlyph name="Thorn" xMin="56" yMin="-8" xMax="588" yMax="723">
      <contour>
        <pt x="69" y="723" on="1"/>
        <pt x="199" y="720" on="1"/>
        <pt x="327" y="723" on="1"/>
        <pt x="329" y="717" on="0"/>
        <pt x="329" y="708" on="1"/>
        <pt x="327" y="692" on="1"/>
        <pt x="283" y="692" on="0"/>
        <pt x="260" y="689" on="1"/>
        <pt x="250" y="688" on="0"/>
        <pt x="244" y="588" on="1"/>
        <pt x="347" y="588" on="1"/>
        <pt x="461" y="588" on="0"/>
        <pt x="588" y="470" on="0"/>
        <pt x="588" y="259" on="0"/>
        <pt x="451" y="151" on="0"/>
        <pt x="343" y="151" on="1"/>
        <pt x="304" y="151" on="0"/>
        <pt x="280" y="152" on="1"/>
        <pt x="275" y="158" on="0"/>
        <pt x="275" y="169" on="1"/>
        <pt x="280" y="189" on="1"/>
        <pt x="297" y="188" on="0"/>
        <pt x="339" y="188" on="1"/>
        <pt x="406" y="188" on="0"/>
        <pt x="500" y="278" on="0"/>
        <pt x="500" y="344" on="1"/>
        <pt x="500" y="438" on="0"/>
        <pt x="410" y="552" on="0"/>
        <pt x="323" y="552" on="1"/>
        <pt x="271" y="552" on="0"/>
        <pt x="243" y="549" on="1"/>
        <pt x="243" y="301" on="1"/>
        <pt x="243" y="206" on="0"/>
        <pt x="252" y="32" on="0"/>
        <pt x="259" y="31" on="1"/>
        <pt x="293" y="28" on="0"/>
        <pt x="373" y="28" on="1"/>
        <pt x="376" y="21" on="0"/>
        <pt x="376" y="3" on="0"/>
        <pt x="373" y="-3" on="1"/>
        <pt x="220" y="0" on="1"/>
        <pt x="124" y="0" on="0"/>
        <pt x="61" y="-8" on="1"/>
        <pt x="56" y="-3" on="0"/>
        <pt x="56" y="9" on="1"/>
        <pt x="57" y="17" on="1"/>
        <pt x="102" y="30" on="0"/>
        <pt x="137" y="67" on="0"/>
        <pt x="141" y="99" on="1"/>
        <pt x="153" y="177" on="0"/>
        <pt x="153" y="352" on="1"/>
        <pt x="153" y="464" on="1"/>
        <pt x="153" y="687" on="0"/>
        <pt x="136" y="689" on="1"/>
        <pt x="113" y="692" on="0"/>
        <pt x="69" y="692" on="1"/>
        <pt x="67" y="699" on="0"/>
        <pt x="67" y="717" on="0"/>
      </contour>
    </TTGlyph>
    <TTGlyph name="U" xMin="47" yMin="-20" xMax="805" yMax="728">
      <contour>
        <pt x="49" y="723" on="1"/>
        <pt x="145" y="720" on="1"/>
        <pt x="251" y="720" on="0"/>
        <pt x="305" y="728" on="1"/>
        <pt x="311" y="720" on="0"/>
        <pt x="311" y="711" on="1"/>
        <pt x="309" y="703" on="1"/>
        <pt x="256" y="691" on="0"/>
        <pt x="242" y="672" on="1"/>
        <pt x="231" y="658" on="0"/>
        <pt x="227" y="628" on="1"/>
        <pt x="215" y="511" on="0"/>
        <pt x="215" y="296" on="1"/>
        <pt x="215" y="167" on="0"/>
        <pt x="319" y="23" on="0"/>
        <pt x="429" y="23" on="1"/>
        <pt x="560" y="23" on="0"/>
        <pt x="661" y="164" on="0"/>
        <pt x="661" y="309" on="1"/>
        <pt x="661" y="433" on="1"/>
        <pt x="661" y="615" on="0"/>
        <pt x="651" y="689" on="1"/>
        <pt x="628" y="692" on="0"/>
        <pt x="565" y="692" on="1"/>
        <pt x="563" y="700" on="0"/>
        <pt x="563" y="719" on="0"/>
        <pt x="565" y="723" on="1"/>
        <pt x="683" y="720" on="1"/>
        <pt x="759" y="720" on="0"/>
        <pt x="800" y="728" on="1"/>
        <pt x="805" y="722" on="0"/>
        <pt x="805" y="711" on="1"/>
        <pt x="804" y="703" on="1"/>
        <pt x="727" y="686" on="0"/>
        <pt x="720" y="599" on="1"/>
        <pt x="709" y="470" on="0"/>
        <pt x="709" y="284" on="1"/>
        <pt x="709" y="137" on="0"/>
        <pt x="564" y="-20" on="0"/>
        <pt x="421" y="-20" on="1"/>
        <pt x="345" y="-20" on="0"/>
        <pt x="232" y="18" on="0"/>
        <pt x="169" y="76" on="0"/>
        <pt x="131" y="160" on="0"/>
        <pt x="120" y="235" on="0"/>
        <pt x="120" y="279" on="1"/>
        <pt x="120" y="432" on="1"/>
        <pt x="120" y="513" on="0"/>
        <pt x="111" y="689" on="1"/>
        <pt x="92" y="692" on="0"/>
        <pt x="49" y="692" on="1"/>
        <pt x="47" y="699" on="0"/>
        <pt x="47" y="717" on="0"/>
      </contour>
    </TTGlyph>
    <TTGlyph name="Uacute" xMin="47" yMin="-20" xMax="805" yMax="953">
      <contour>
        <pt x="567" y="895" on="1"/>
        <pt x="375" y="771" on="1"/>
        <pt x="367" y="771" on="0"/>
        <pt x="357" y="781" on="0"/>
        <pt x="355" y="791" on="1"/>
        <pt x="445" y="876" on="0"/>
        <pt x="519" y="953" on="1"/>
        <pt x="557" y="929" on="0"/>
      </contour>
      <contour>
        <pt x="49" y="723" on="1"/>
        <pt x="145" y="720" on="1"/>
        <pt x="251" y="720" on="0"/>
        <pt x="305" y="728" on="1"/>
        <pt x="311" y="720" on="0"/>
        <pt x="311" y="711" on="1"/>
        <pt x="309" y="703" on="1"/>
        <pt x="256" y="691" on="0"/>
        <pt x="242" y="672" on="1"/>
        <pt x="231" y="658" on="0"/>
        <pt x="227" y="628" on="1"/>
        <pt x="215" y="511" on="0"/>
        <pt x="215" y="296" on="1"/>
        <pt x="215" y="167" on="0"/>
        <pt x="319" y="23" on="0"/>
        <pt x="429" y="23" on="1"/>
        <pt x="560" y="23" on="0"/>
        <pt x="661" y="164" on="0"/>
        <pt x="661" y="309" on="1"/>
        <pt x="661" y="433" on="1"/>
        <pt x="661" y="615" on="0"/>
        <pt x="651" y="689" on="1"/>
        <pt x="628" y="692" on="0"/>
        <pt x="565" y="692" on="1"/>
        <pt x="563" y="700" on="0"/>
        <pt x="563" y="719" on="0"/>
        <pt x="565" y="723" on="1"/>
        <pt x="683" y="720" on="1"/>
        <pt x="759" y="720" on="0"/>
        <pt x="800" y="728" on="1"/>
        <pt x="805" y="722" on="0"/>
        <pt x="805" y="711" on="1"/>
        <pt x="804" y="703" on="1"/>
        <pt x="727" y="686" on="0"/>
        <pt x="720" y="599" on="1"/>
        <pt x="709" y="470" on="0"/>
        <pt x="709" y="284" on="1"/>
        <pt x="709" y="137" on="0"/>
        <pt x="564" y="-20" on="0"/>
        <pt x="421" y="-20" on="1"/>
        <pt x="345" y="-20" on="0"/>
        <pt x="232" y="18" on="0"/>
        <pt x="169" y="76" on="0"/>
        <pt x="131" y="160" on="0"/>
        <pt x="120" y="235" on="0"/>
        <pt x="120" y="279" on="1"/>
        <pt x="120" y="432" on="1"/>
        <pt x="120" y="513" on="0"/>
        <pt x="111" y="689" on="1"/>
        <pt x="92" y="692" on="0"/>
        <pt x="49" y="692" on="1"/>
        <pt x="47" y="699" on="0"/>
        <pt x="47" y="717" on="0"/>
      </contour>
    </TTGlyph>
    <TTGlyph name="Ucircumflex" xMin="47" yMin="-20" xMax="805" yMax="944">
      <contour>
        <pt x="605" y="761" on="1"/>
        <pt x="456" y="857" on="1"/>
        <pt x="305" y="761" on="1"/>
        <pt x="297" y="762" on="0"/>
        <pt x="287" y="772" on="0"/>
        <pt x="285" y="781" on="1"/>
        <pt x="376" y="867" on="0"/>
        <pt x="449" y="944" on="1"/>
        <pt x="461" y="944" on="1"/>
        <pt x="541" y="862" on="0"/>
        <pt x="600" y="804" on="1"/>
        <pt x="625" y="781" on="1"/>
        <pt x="623" y="763" on="0"/>
      </contour>
      <contour>
        <pt x="49" y="723" on="1"/>
        <pt x="145" y="720" on="1"/>
        <pt x="251" y="720" on="0"/>
        <pt x="305" y="728" on="1"/>
        <pt x="311" y="720" on="0"/>
        <pt x="311" y="711" on="1"/>
        <pt x="309" y="703" on="1"/>
        <pt x="256" y="691" on="0"/>
        <pt x="242" y="672" on="1"/>
        <pt x="231" y="658" on="0"/>
        <pt x="227" y="628" on="1"/>
        <pt x="215" y="511" on="0"/>
        <pt x="215" y="296" on="1"/>
        <pt x="215" y="167" on="0"/>
        <pt x="319" y="23" on="0"/>
        <pt x="429" y="23" on="1"/>
        <pt x="560" y="23" on="0"/>
        <pt x="661" y="164" on="0"/>
        <pt x="661" y="309" on="1"/>
        <pt x="661" y="433" on="1"/>
        <pt x="661" y="615" on="0"/>
        <pt x="651" y="689" on="1"/>
        <pt x="628" y="692" on="0"/>
        <pt x="565" y="692" on="1"/>
        <pt x="563" y="700" on="0"/>
        <pt x="563" y="719" on="0"/>
        <pt x="565" y="723" on="1"/>
        <pt x="683" y="720" on="1"/>
        <pt x="759" y="720" on="0"/>
        <pt x="800" y="728" on="1"/>
        <pt x="805" y="722" on="0"/>
        <pt x="805" y="711" on="1"/>
        <pt x="804" y="703" on="1"/>
        <pt x="727" y="686" on="0"/>
        <pt x="720" y="599" on="1"/>
        <pt x="709" y="470" on="0"/>
        <pt x="709" y="284" on="1"/>
        <pt x="709" y="137" on="0"/>
        <pt x="564" y="-20" on="0"/>
        <pt x="421" y="-20" on="1"/>
        <pt x="345" y="-20" on="0"/>
        <pt x="232" y="18" on="0"/>
        <pt x="169" y="76" on="0"/>
        <pt x="131" y="160" on="0"/>
        <pt x="120" y="235" on="0"/>
        <pt x="120" y="279" on="1"/>
        <pt x="120" y="432" on="1"/>
        <pt x="120" y="513" on="0"/>
        <pt x="111" y="689" on="1"/>
        <pt x="92" y="692" on="0"/>
        <pt x="49" y="692" on="1"/>
        <pt x="47" y="699" on="0"/>
        <pt x="47" y="717" on="0"/>
      </contour>
    </TTGlyph>
    <TTGlyph name="Udieresis" xMin="47" yMin="-20" xMax="805" yMax="920">
      <contour>
        <pt x="49" y="723" on="1"/>
        <pt x="145" y="720" on="1"/>
        <pt x="251" y="720" on="0"/>
        <pt x="305" y="728" on="1"/>
        <pt x="311" y="720" on="0"/>
        <pt x="311" y="711" on="1"/>
        <pt x="309" y="703" on="1"/>
        <pt x="256" y="691" on="0"/>
        <pt x="242" y="672" on="1"/>
        <pt x="231" y="658" on="0"/>
        <pt x="227" y="628" on="1"/>
        <pt x="215" y="511" on="0"/>
        <pt x="215" y="296" on="1"/>
        <pt x="215" y="167" on="0"/>
        <pt x="319" y="23" on="0"/>
        <pt x="429" y="23" on="1"/>
        <pt x="560" y="23" on="0"/>
        <pt x="661" y="164" on="0"/>
        <pt x="661" y="309" on="1"/>
        <pt x="661" y="433" on="1"/>
        <pt x="661" y="615" on="0"/>
        <pt x="651" y="689" on="1"/>
        <pt x="628" y="692" on="0"/>
        <pt x="565" y="692" on="1"/>
        <pt x="563" y="700" on="0"/>
        <pt x="563" y="719" on="0"/>
        <pt x="565" y="723" on="1"/>
        <pt x="683" y="720" on="1"/>
        <pt x="759" y="720" on="0"/>
        <pt x="800" y="728" on="1"/>
        <pt x="805" y="722" on="0"/>
        <pt x="805" y="711" on="1"/>
        <pt x="804" y="703" on="1"/>
        <pt x="727" y="686" on="0"/>
        <pt x="720" y="599" on="1"/>
        <pt x="709" y="470" on="0"/>
        <pt x="709" y="284" on="1"/>
        <pt x="709" y="137" on="0"/>
        <pt x="564" y="-20" on="0"/>
        <pt x="421" y="-20" on="1"/>
        <pt x="345" y="-20" on="0"/>
        <pt x="232" y="18" on="0"/>
        <pt x="169" y="76" on="0"/>
        <pt x="131" y="160" on="0"/>
        <pt x="120" y="235" on="0"/>
        <pt x="120" y="279" on="1"/>
        <pt x="120" y="432" on="1"/>
        <pt x="120" y="513" on="0"/>
        <pt x="111" y="689" on="1"/>
        <pt x="92" y="692" on="0"/>
        <pt x="49" y="692" on="1"/>
        <pt x="47" y="699" on="0"/>
        <pt x="47" y="717" on="0"/>
      </contour>
      <contour>
        <pt x="325" y="803" on="1"/>
        <pt x="291" y="827" on="0"/>
        <pt x="275" y="869" on="1"/>
        <pt x="287" y="883" on="0"/>
        <pt x="328" y="914" on="0"/>
        <pt x="343" y="920" on="1"/>
        <pt x="380" y="892" on="0"/>
        <pt x="392" y="853" on="1"/>
        <pt x="364" y="817" on="0"/>
      </contour>
      <contour>
        <pt x="541" y="803" on="1"/>
        <pt x="507" y="827" on="0"/>
        <pt x="491" y="869" on="1"/>
        <pt x="503" y="883" on="0"/>
        <pt x="544" y="914" on="0"/>
        <pt x="559" y="920" on="1"/>
        <pt x="596" y="892" on="0"/>
        <pt x="608" y="853" on="1"/>
        <pt x="580" y="817" on="0"/>
      </contour>
    </TTGlyph>
    <TTGlyph name="Ugrave" xMin="47" yMin="-20" xMax="805" yMax="953">
      <contour>
        <pt x="548" y="771" on="1"/>
        <pt x="356" y="895" on="1"/>
        <pt x="366" y="929" on="0"/>
        <pt x="404" y="953" on="1"/>
        <pt x="468" y="885" on="0"/>
        <pt x="543" y="814" on="1"/>
        <pt x="568" y="791" on="1"/>
        <pt x="565" y="772" on="0"/>
      </contour>
      <contour>
        <pt x="49" y="723" on="1"/>
        <pt x="145" y="720" on="1"/>
        <pt x="251" y="720" on="0"/>
        <pt x="305" y="728" on="1"/>
        <pt x="311" y="720" on="0"/>
        <pt x="311" y="711" on="1"/>
        <pt x="309" y="703" on="1"/>
        <pt x="256" y="691" on="0"/>
        <pt x="242" y="672" on="1"/>
        <pt x="231" y="658" on="0"/>
        <pt x="227" y="628" on="1"/>
        <pt x="215" y="511" on="0"/>
        <pt x="215" y="296" on="1"/>
        <pt x="215" y="167" on="0"/>
        <pt x="319" y="23" on="0"/>
        <pt x="429" y="23" on="1"/>
        <pt x="560" y="23" on="0"/>
        <pt x="661" y="164" on="0"/>
        <pt x="661" y="309" on="1"/>
        <pt x="661" y="433" on="1"/>
        <pt x="661" y="615" on="0"/>
        <pt x="651" y="689" on="1"/>
        <pt x="628" y="692" on="0"/>
        <pt x="565" y="692" on="1"/>
        <pt x="563" y="700" on="0"/>
        <pt x="563" y="719" on="0"/>
        <pt x="565" y="723" on="1"/>
        <pt x="683" y="720" on="1"/>
        <pt x="759" y="720" on="0"/>
        <pt x="800" y="728" on="1"/>
        <pt x="805" y="722" on="0"/>
        <pt x="805" y="711" on="1"/>
        <pt x="804" y="703" on="1"/>
        <pt x="727" y="686" on="0"/>
        <pt x="720" y="599" on="1"/>
        <pt x="709" y="470" on="0"/>
        <pt x="709" y="284" on="1"/>
        <pt x="709" y="137" on="0"/>
        <pt x="564" y="-20" on="0"/>
        <pt x="421" y="-20" on="1"/>
        <pt x="345" y="-20" on="0"/>
        <pt x="232" y="18" on="0"/>
        <pt x="169" y="76" on="0"/>
        <pt x="131" y="160" on="0"/>
        <pt x="120" y="235" on="0"/>
        <pt x="120" y="279" on="1"/>
        <pt x="120" y="432" on="1"/>
        <pt x="120" y="513" on="0"/>
        <pt x="111" y="689" on="1"/>
        <pt x="92" y="692" on="0"/>
        <pt x="49" y="692" on="1"/>
        <pt x="47" y="699" on="0"/>
        <pt x="47" y="717" on="0"/>
      </contour>
    </TTGlyph>
    <TTGlyph name="V" xMin="3" yMin="-39" xMax="807" yMax="728">
      <contour>
        <pt x="4" y="703" on="1"/>
        <pt x="3" y="708" on="0"/>
        <pt x="3" y="719" on="0"/>
        <pt x="8" y="728" on="1"/>
        <pt x="72" y="720" on="0"/>
        <pt x="240" y="720" on="0"/>
        <pt x="303" y="723" on="1"/>
        <pt x="305" y="717" on="0"/>
        <pt x="305" y="708" on="1"/>
        <pt x="303" y="692" on="1"/>
        <pt x="245" y="692" on="0"/>
        <pt x="221" y="691" on="1"/>
        <pt x="221" y="653" on="0"/>
        <pt x="270" y="484" on="0"/>
        <pt x="303" y="404" on="1"/>
        <pt x="425" y="108" on="1"/>
        <pt x="559" y="404" on="1"/>
        <pt x="599" y="493" on="0"/>
        <pt x="657" y="662" on="0"/>
        <pt x="657" y="688" on="1"/>
        <pt x="639" y="692" on="0"/>
        <pt x="581" y="692" on="1"/>
        <pt x="579" y="699" on="0"/>
        <pt x="579" y="717" on="0"/>
        <pt x="581" y="723" on="1"/>
        <pt x="647" y="720" on="0"/>
        <pt x="751" y="720" on="0"/>
        <pt x="801" y="728" on="1"/>
        <pt x="807" y="722" on="0"/>
        <pt x="807" y="711" on="1"/>
        <pt x="805" y="703" on="1"/>
        <pt x="766" y="691" on="0"/>
        <pt x="743" y="668" on="1"/>
        <pt x="710" y="635" on="0"/>
        <pt x="666" y="542" on="1"/>
        <pt x="644" y="495" on="0"/>
        <pt x="608" y="414" on="0"/>
        <pt x="603" y="404" on="1"/>
        <pt x="401" y="-39" on="1"/>
        <pt x="384" y="-39" on="1"/>
        <pt x="168" y="480" on="1"/>
        <pt x="107" y="632" on="0"/>
        <pt x="72" y="672" on="1"/>
        <pt x="57" y="689" on="0"/>
      </contour>
    </TTGlyph>
    <TTGlyph name="W" xMin="0" yMin="-39" xMax="1112" yMax="728">
      <contour>
        <pt x="617" y="719" on="1"/>
        <pt x="715" y="720" on="1"/>
        <pt x="765" y="720" on="0"/>
        <pt x="803" y="724" on="1"/>
        <pt x="808" y="718" on="0"/>
        <pt x="808" y="705" on="1"/>
        <pt x="807" y="699" on="1"/>
        <pt x="783" y="691" on="0"/>
        <pt x="771" y="673" on="1"/>
        <pt x="751" y="647" on="0"/>
        <pt x="633" y="431" on="1"/>
        <pt x="764" y="108" on="1"/>
        <pt x="881" y="404" on="1"/>
        <pt x="965" y="615" on="0"/>
        <pt x="976" y="688" on="1"/>
        <pt x="957" y="692" on="0"/>
        <pt x="900" y="692" on="1"/>
        <pt x="897" y="697" on="0"/>
        <pt x="897" y="716" on="0"/>
        <pt x="900" y="723" on="1"/>
        <pt x="966" y="720" on="0"/>
        <pt x="1057" y="720" on="0"/>
        <pt x="1107" y="728" on="1"/>
        <pt x="1112" y="722" on="0"/>
        <pt x="1112" y="711" on="1"/>
        <pt x="1111" y="703" on="1"/>
        <pt x="1084" y="693" on="0"/>
        <pt x="1045" y="653" on="0"/>
        <pt x="985" y="541" on="0"/>
        <pt x="969" y="504" on="1"/>
        <pt x="740" y="-39" on="1"/>
        <pt x="723" y="-39" on="1"/>
        <pt x="571" y="332" on="1"/>
        <pt x="392" y="-39" on="1"/>
        <pt x="375" y="-39" on="1"/>
        <pt x="165" y="480" on="1"/>
        <pt x="106" y="630" on="0"/>
        <pt x="71" y="671" on="1"/>
        <pt x="55" y="689" on="0"/>
        <pt x="1" y="703" on="1"/>
        <pt x="0" y="707" on="0"/>
        <pt x="0" y="723" on="0"/>
        <pt x="5" y="728" on="1"/>
        <pt x="69" y="720" on="0"/>
        <pt x="217" y="720" on="0"/>
        <pt x="299" y="723" on="1"/>
        <pt x="301" y="719" on="0"/>
        <pt x="301" y="709" on="1"/>
        <pt x="299" y="692" on="1"/>
        <pt x="241" y="692" on="0"/>
        <pt x="217" y="691" on="1"/>
        <pt x="223" y="605" on="0"/>
        <pt x="300" y="404" on="1"/>
        <pt x="416" y="108" on="1"/>
        <pt x="551" y="380" on="1"/>
        <pt x="511" y="480" on="1"/>
        <pt x="450" y="632" on="0"/>
        <pt x="423" y="673" on="1"/>
        <pt x="411" y="690" on="0"/>
        <pt x="376" y="699" on="1"/>
        <pt x="375" y="701" on="0"/>
        <pt x="375" y="717" on="0"/>
        <pt x="379" y="724" on="1"/>
        <pt x="427" y="720" on="0"/>
        <pt x="513" y="720" on="1"/>
      </contour>
      <contour>
        <pt x="540" y="689" on="1"/>
        <pt x="544" y="627" on="0"/>
        <pt x="611" y="469" on="1"/>
        <pt x="694" y="655" on="0"/>
        <pt x="700" y="689" on="1"/>
        <pt x="655" y="692" on="0"/>
        <pt x="619" y="692" on="1"/>
      </contour>
    </TTGlyph>
    <TTGlyph name="X" xMin="1" yMin="-20" xMax="743" yMax="733">
      <contour>
        <pt x="15" y="729" on="1"/>
        <pt x="173" y="733" on="1"/>
        <pt x="188" y="733" on="0"/>
        <pt x="242" y="659" on="1"/>
        <pt x="281" y="607" on="0"/>
        <pt x="378" y="438" on="0"/>
        <pt x="389" y="420" on="1"/>
        <pt x="427" y="467" on="1"/>
        <pt x="433" y="475" on="0"/>
        <pt x="470" y="520" on="0"/>
        <pt x="483" y="536" on="0"/>
        <pt x="512" y="574" on="0"/>
        <pt x="527" y="597" on="0"/>
        <pt x="538" y="615" on="1"/>
        <pt x="559" y="650" on="0"/>
        <pt x="576" y="687" on="1"/>
        <pt x="527" y="689" on="0"/>
        <pt x="483" y="689" on="1"/>
        <pt x="479" y="697" on="0"/>
        <pt x="479" y="715" on="0"/>
        <pt x="483" y="720" on="1"/>
        <pt x="585" y="720" on="1"/>
        <pt x="655" y="720" on="0"/>
        <pt x="723" y="728" on="1"/>
        <pt x="728" y="722" on="0"/>
        <pt x="728" y="712" on="1"/>
        <pt x="727" y="701" on="1"/>
        <pt x="688" y="690" on="0"/>
        <pt x="606" y="614" on="0"/>
        <pt x="533" y="527" on="1"/>
        <pt x="411" y="381" on="1"/>
        <pt x="451" y="308" on="0"/>
        <pt x="517" y="201" on="1"/>
        <pt x="617" y="39" on="0"/>
        <pt x="680" y="32" on="1"/>
        <pt x="697" y="31" on="0"/>
        <pt x="740" y="31" on="1"/>
        <pt x="743" y="24" on="0"/>
        <pt x="743" y="5" on="0"/>
        <pt x="741" y="0" on="1"/>
        <pt x="681" y="-3" on="0"/>
        <pt x="586" y="-20" on="0"/>
        <pt x="581" y="-20" on="1"/>
        <pt x="566" y="-20" on="0"/>
        <pt x="489" y="66" on="0"/>
        <pt x="383" y="235" on="0"/>
        <pt x="337" y="316" on="1"/>
        <pt x="285" y="248" on="1"/>
        <pt x="184" y="115" on="0"/>
        <pt x="148" y="33" on="1"/>
        <pt x="197" y="31" on="0"/>
        <pt x="235" y="31" on="1"/>
        <pt x="237" y="23" on="0"/>
        <pt x="237" y="4" on="0"/>
        <pt x="235" y="0" on="1"/>
        <pt x="133" y="0" on="1"/>
        <pt x="75" y="0" on="0"/>
        <pt x="7" y="-8" on="1"/>
        <pt x="1" y="1" on="0"/>
        <pt x="1" y="17" on="1"/>
        <pt x="29" y="25" on="0"/>
        <pt x="100" y="93" on="0"/>
        <pt x="199" y="213" on="1"/>
        <pt x="316" y="355" on="1"/>
        <pt x="258" y="456" on="0"/>
        <pt x="168" y="608" on="0"/>
        <pt x="99" y="680" on="0"/>
        <pt x="61" y="696" on="0"/>
        <pt x="15" y="699" on="1"/>
        <pt x="12" y="705" on="0"/>
        <pt x="12" y="723" on="0"/>
      </contour>
    </TTGlyph>
    <TTGlyph name="Y" xMin="0" yMin="-8" xMax="723" yMax="733">
      <contour>
        <pt x="3" y="729" on="1"/>
        <pt x="165" y="733" on="1"/>
        <pt x="175" y="733" on="0"/>
        <pt x="258" y="623" on="0"/>
        <pt x="363" y="436" on="0"/>
        <pt x="391" y="352" on="1"/>
        <pt x="406" y="378" on="0"/>
        <pt x="466" y="481" on="0"/>
        <pt x="497" y="536" on="0"/>
        <pt x="517" y="574" on="1"/>
        <pt x="554" y="642" on="0"/>
        <pt x="564" y="688" on="1"/>
        <pt x="543" y="692" on="0"/>
        <pt x="483" y="692" on="1"/>
        <pt x="480" y="699" on="0"/>
        <pt x="480" y="717" on="0"/>
        <pt x="483" y="723" on="1"/>
        <pt x="549" y="720" on="0"/>
        <pt x="671" y="720" on="0"/>
        <pt x="717" y="728" on="1"/>
        <pt x="723" y="718" on="0"/>
        <pt x="723" y="711" on="1"/>
        <pt x="721" y="703" on="1"/>
        <pt x="694" y="695" on="0"/>
        <pt x="659" y="669" on="1"/>
        <pt x="614" y="637" on="0"/>
        <pt x="436" y="363" on="0"/>
        <pt x="423" y="313" on="1"/>
        <pt x="415" y="292" on="0"/>
        <pt x="415" y="103" on="0"/>
        <pt x="425" y="35" on="1"/>
        <pt x="466" y="28" on="0"/>
        <pt x="540" y="28" on="1"/>
        <pt x="543" y="21" on="0"/>
        <pt x="543" y="12" on="1"/>
        <pt x="540" y="-3" on="1"/>
        <pt x="381" y="0" on="1"/>
        <pt x="265" y="0" on="0"/>
        <pt x="189" y="-8" on="1"/>
        <pt x="184" y="-2" on="0"/>
        <pt x="184" y="9" on="1"/>
        <pt x="185" y="17" on="1"/>
        <pt x="281" y="32" on="0"/>
        <pt x="323" y="92" on="0"/>
        <pt x="323" y="258" on="0"/>
        <pt x="295" y="367" on="0"/>
        <pt x="160" y="595" on="0"/>
        <pt x="105" y="655" on="1"/>
        <pt x="83" y="680" on="0"/>
        <pt x="44" y="697" on="0"/>
        <pt x="3" y="699" on="1"/>
        <pt x="0" y="705" on="0"/>
        <pt x="0" y="726" on="0"/>
      </contour>
    </TTGlyph>
    <TTGlyph name="Yacute" xMin="0" yMin="-8" xMax="723" yMax="953">
      <contour>
        <pt x="485" y="895" on="1"/>
        <pt x="293" y="771" on="1"/>
        <pt x="285" y="771" on="0"/>
        <pt x="275" y="781" on="0"/>
        <pt x="273" y="791" on="1"/>
        <pt x="364" y="876" on="0"/>
        <pt x="437" y="953" on="1"/>
        <pt x="477" y="930" on="0"/>
      </contour>
      <contour>
        <pt x="3" y="729" on="1"/>
        <pt x="165" y="733" on="1"/>
        <pt x="175" y="733" on="0"/>
        <pt x="258" y="623" on="0"/>
        <pt x="363" y="436" on="0"/>
        <pt x="391" y="352" on="1"/>
        <pt x="406" y="378" on="0"/>
        <pt x="466" y="481" on="0"/>
        <pt x="497" y="536" on="0"/>
        <pt x="517" y="574" on="1"/>
        <pt x="554" y="642" on="0"/>
        <pt x="564" y="688" on="1"/>
        <pt x="543" y="692" on="0"/>
        <pt x="483" y="692" on="1"/>
        <pt x="480" y="699" on="0"/>
        <pt x="480" y="717" on="0"/>
        <pt x="483" y="723" on="1"/>
        <pt x="549" y="720" on="0"/>
        <pt x="671" y="720" on="0"/>
        <pt x="717" y="728" on="1"/>
        <pt x="723" y="718" on="0"/>
        <pt x="723" y="711" on="1"/>
        <pt x="721" y="703" on="1"/>
        <pt x="694" y="695" on="0"/>
        <pt x="659" y="669" on="1"/>
        <pt x="614" y="637" on="0"/>
        <pt x="436" y="363" on="0"/>
        <pt x="423" y="313" on="1"/>
        <pt x="415" y="292" on="0"/>
        <pt x="415" y="103" on="0"/>
        <pt x="425" y="35" on="1"/>
        <pt x="466" y="28" on="0"/>
        <pt x="540" y="28" on="1"/>
        <pt x="543" y="21" on="0"/>
        <pt x="543" y="12" on="1"/>
        <pt x="540" y="-3" on="1"/>
        <pt x="381" y="0" on="1"/>
        <pt x="265" y="0" on="0"/>
        <pt x="189" y="-8" on="1"/>
        <pt x="184" y="-2" on="0"/>
        <pt x="184" y="9" on="1"/>
        <pt x="185" y="17" on="1"/>
        <pt x="281" y="32" on="0"/>
        <pt x="323" y="92" on="0"/>
        <pt x="323" y="256" on="0"/>
        <pt x="296" y="366" on="0"/>
        <pt x="161" y="595" on="0"/>
        <pt x="105" y="655" on="1"/>
        <pt x="83" y="680" on="0"/>
        <pt x="44" y="697" on="0"/>
        <pt x="3" y="699" on="1"/>
        <pt x="0" y="705" on="0"/>
        <pt x="0" y="726" on="0"/>
      </contour>
    </TTGlyph>
    <TTGlyph name="Z" xMin="41" yMin="-12" xMax="691" yMax="733">
      <contour>
        <pt x="507" y="-1" on="1"/>
        <pt x="323" y="0" on="1"/>
        <pt x="140" y="0" on="0"/>
        <pt x="48" y="-12" on="1"/>
        <pt x="41" y="0" on="0"/>
        <pt x="41" y="16" on="1"/>
        <pt x="73" y="49" on="0"/>
        <pt x="96" y="81" on="1"/>
        <pt x="352" y="426" on="0"/>
        <pt x="511" y="681" on="1"/>
        <pt x="391" y="681" on="1"/>
        <pt x="232" y="681" on="0"/>
        <pt x="147" y="657" on="1"/>
        <pt x="140" y="633" on="0"/>
        <pt x="128" y="555" on="1"/>
        <pt x="121" y="551" on="0"/>
        <pt x="101" y="551" on="0"/>
        <pt x="89" y="553" on="1"/>
        <pt x="86" y="625" on="0"/>
        <pt x="72" y="716" on="1"/>
        <pt x="72" y="727" on="0"/>
        <pt x="89" y="727" on="1"/>
        <pt x="89" y="727" on="0"/>
        <pt x="369" y="720" on="1"/>
        <pt x="431" y="720" on="1"/>
        <pt x="558" y="720" on="0"/>
        <pt x="657" y="733" on="1"/>
        <pt x="665" y="723" on="0"/>
        <pt x="665" y="707" on="1"/>
        <pt x="633" y="684" on="0"/>
        <pt x="291" y="186" on="0"/>
        <pt x="197" y="40" on="1"/>
        <pt x="297" y="40" on="1"/>
        <pt x="372" y="40" on="0"/>
        <pt x="560" y="66" on="0"/>
        <pt x="597" y="79" on="1"/>
        <pt x="621" y="111" on="0"/>
        <pt x="653" y="177" on="1"/>
        <pt x="675" y="177" on="0"/>
        <pt x="691" y="169" on="1"/>
        <pt x="672" y="93" on="0"/>
        <pt x="660" y="16" on="1"/>
        <pt x="659" y="4" on="0"/>
        <pt x="622" y="-1" on="0"/>
      </contour>
    </TTGlyph>
    <TTGlyph name="a" xMin="47" yMin="-20" xMax="479" yMax="509">
      <contour>
        <pt x="395" y="364" on="1"/>
        <pt x="392" y="120" on="1"/>
        <pt x="392" y="47" on="0"/>
        <pt x="439" y="47" on="1"/>
        <pt x="475" y="48" on="1"/>
        <pt x="479" y="43" on="0"/>
        <pt x="479" y="32" on="1"/>
        <pt x="477" y="21" on="1"/>
        <pt x="400" y="7" on="0"/>
        <pt x="367" y="-20" on="1"/>
        <pt x="345" y="-14" on="0"/>
        <pt x="314" y="29" on="0"/>
        <pt x="312" y="53" on="1"/>
        <pt x="232" y="4" on="0"/>
        <pt x="153" y="-20" on="1"/>
        <pt x="119" y="-20" on="0"/>
        <pt x="47" y="57" on="0"/>
        <pt x="47" y="115" on="1"/>
        <pt x="47" y="144" on="0"/>
        <pt x="73" y="191" on="0"/>
        <pt x="91" y="200" on="1"/>
        <pt x="165" y="237" on="0"/>
        <pt x="311" y="265" on="1"/>
        <pt x="311" y="360" on="1"/>
        <pt x="311" y="415" on="0"/>
        <pt x="276" y="469" on="0"/>
        <pt x="227" y="469" on="0"/>
        <pt x="171" y="452" on="0"/>
        <pt x="148" y="404" on="0"/>
        <pt x="148" y="360" on="1"/>
        <pt x="148" y="356" on="0"/>
        <pt x="121" y="347" on="0"/>
        <pt x="80" y="347" on="0"/>
        <pt x="65" y="366" on="0"/>
        <pt x="65" y="385" on="1"/>
        <pt x="65" y="421" on="0"/>
        <pt x="117" y="463" on="1"/>
        <pt x="129" y="471" on="0"/>
        <pt x="246" y="509" on="0"/>
        <pt x="255" y="509" on="1"/>
        <pt x="327" y="509" on="0"/>
        <pt x="395" y="425" on="0"/>
      </contour>
      <contour>
        <pt x="136" y="96" on="0"/>
        <pt x="174" y="40" on="0"/>
        <pt x="223" y="40" on="0"/>
        <pt x="287" y="74" on="0"/>
        <pt x="308" y="93" on="1"/>
        <pt x="311" y="152" on="0"/>
        <pt x="311" y="229" on="1"/>
        <pt x="227" y="218" on="0"/>
        <pt x="163" y="181" on="1"/>
        <pt x="136" y="168" on="0"/>
        <pt x="136" y="120" on="1"/>
      </contour>
    </TTGlyph>
    <TTGlyph name="aacute" xMin="47" yMin="-20" xMax="479" yMax="748">
      <contour>
        <pt x="395" y="364" on="1"/>
        <pt x="392" y="120" on="1"/>
        <pt x="392" y="47" on="0"/>
        <pt x="439" y="47" on="1"/>
        <pt x="475" y="48" on="1"/>
        <pt x="479" y="43" on="0"/>
        <pt x="479" y="32" on="1"/>
        <pt x="477" y="21" on="1"/>
        <pt x="400" y="7" on="0"/>
        <pt x="367" y="-20" on="1"/>
        <pt x="345" y="-14" on="0"/>
        <pt x="314" y="29" on="0"/>
        <pt x="312" y="53" on="1"/>
        <pt x="232" y="4" on="0"/>
        <pt x="153" y="-20" on="1"/>
        <pt x="119" y="-20" on="0"/>
        <pt x="47" y="57" on="0"/>
        <pt x="47" y="115" on="1"/>
        <pt x="47" y="144" on="0"/>
        <pt x="73" y="191" on="0"/>
        <pt x="91" y="200" on="1"/>
        <pt x="165" y="237" on="0"/>
        <pt x="311" y="265" on="1"/>
        <pt x="311" y="360" on="1"/>
        <pt x="311" y="415" on="0"/>
        <pt x="276" y="469" on="0"/>
        <pt x="227" y="469" on="0"/>
        <pt x="171" y="452" on="0"/>
        <pt x="148" y="404" on="0"/>
        <pt x="148" y="360" on="1"/>
        <pt x="148" y="356" on="0"/>
        <pt x="121" y="347" on="0"/>
        <pt x="80" y="347" on="0"/>
        <pt x="65" y="366" on="0"/>
        <pt x="65" y="385" on="1"/>
        <pt x="65" y="421" on="0"/>
        <pt x="117" y="463" on="1"/>
        <pt x="129" y="471" on="0"/>
        <pt x="246" y="509" on="0"/>
        <pt x="255" y="509" on="1"/>
        <pt x="327" y="509" on="0"/>
        <pt x="395" y="425" on="0"/>
      </contour>
      <contour>
        <pt x="136" y="96" on="0"/>
        <pt x="174" y="40" on="0"/>
        <pt x="223" y="40" on="0"/>
        <pt x="287" y="74" on="0"/>
        <pt x="308" y="93" on="1"/>
        <pt x="311" y="167" on="0"/>
        <pt x="311" y="229" on="1"/>
        <pt x="227" y="218" on="0"/>
        <pt x="163" y="181" on="1"/>
        <pt x="136" y="168" on="0"/>
        <pt x="136" y="120" on="1"/>
      </contour>
      <contour>
        <pt x="399" y="697" on="1"/>
        <pt x="227" y="547" on="1"/>
        <pt x="219" y="547" on="0"/>
        <pt x="207" y="556" on="0"/>
        <pt x="204" y="564" on="1"/>
        <pt x="281" y="661" on="0"/>
        <pt x="343" y="748" on="1"/>
        <pt x="383" y="732" on="0"/>
      </contour>
    </TTGlyph>
    <TTGlyph name="acircumflex" xMin="47" yMin="-20" xMax="479" yMax="756">
      <contour>
        <pt x="395" y="364" on="1"/>
        <pt x="392" y="120" on="1"/>
        <pt x="392" y="47" on="0"/>
        <pt x="439" y="47" on="1"/>
        <pt x="475" y="48" on="1"/>
        <pt x="479" y="43" on="0"/>
        <pt x="479" y="32" on="1"/>
        <pt x="477" y="21" on="1"/>
        <pt x="400" y="7" on="0"/>
        <pt x="367" y="-20" on="1"/>
        <pt x="345" y="-14" on="0"/>
        <pt x="314" y="29" on="0"/>
        <pt x="312" y="53" on="1"/>
        <pt x="232" y="4" on="0"/>
        <pt x="153" y="-20" on="1"/>
        <pt x="119" y="-20" on="0"/>
        <pt x="47" y="57" on="0"/>
        <pt x="47" y="115" on="1"/>
        <pt x="47" y="144" on="0"/>
        <pt x="73" y="191" on="0"/>
        <pt x="91" y="200" on="1"/>
        <pt x="165" y="237" on="0"/>
        <pt x="311" y="265" on="1"/>
        <pt x="311" y="360" on="1"/>
        <pt x="311" y="415" on="0"/>
        <pt x="276" y="469" on="0"/>
        <pt x="227" y="469" on="0"/>
        <pt x="171" y="452" on="0"/>
        <pt x="148" y="404" on="0"/>
        <pt x="148" y="360" on="1"/>
        <pt x="148" y="356" on="0"/>
        <pt x="121" y="347" on="0"/>
        <pt x="80" y="347" on="0"/>
        <pt x="65" y="366" on="0"/>
        <pt x="65" y="385" on="1"/>
        <pt x="65" y="421" on="0"/>
        <pt x="117" y="463" on="1"/>
        <pt x="129" y="471" on="0"/>
        <pt x="246" y="509" on="0"/>
        <pt x="255" y="509" on="1"/>
        <pt x="327" y="509" on="0"/>
        <pt x="395" y="425" on="0"/>
      </contour>
      <contour>
        <pt x="136" y="96" on="0"/>
        <pt x="174" y="40" on="0"/>
        <pt x="223" y="40" on="0"/>
        <pt x="287" y="74" on="0"/>
        <pt x="308" y="93" on="1"/>
        <pt x="311" y="160" on="0"/>
        <pt x="311" y="229" on="1"/>
        <pt x="227" y="218" on="0"/>
        <pt x="163" y="181" on="1"/>
        <pt x="136" y="168" on="0"/>
        <pt x="136" y="120" on="1"/>
      </contour>
      <contour>
        <pt x="243" y="669" on="1"/>
        <pt x="111" y="547" on="1"/>
        <pt x="96" y="547" on="0"/>
        <pt x="88" y="564" on="1"/>
        <pt x="175" y="669" on="0"/>
        <pt x="236" y="756" on="1"/>
        <pt x="248" y="756" on="1"/>
        <pt x="302" y="678" on="0"/>
        <pt x="372" y="592" on="1"/>
        <pt x="396" y="564" on="1"/>
        <pt x="392" y="547" on="0"/>
        <pt x="373" y="547" on="1"/>
      </contour>
    </TTGlyph>
    <TTGlyph name="acute" xMin="192" yMin="547" xMax="387" yMax="748">
      <contour>
        <pt x="387" y="697" on="1"/>
        <pt x="215" y="547" on="1"/>
        <pt x="207" y="547" on="0"/>
        <pt x="195" y="556" on="0"/>
        <pt x="192" y="564" on="1"/>
        <pt x="269" y="661" on="0"/>
        <pt x="331" y="748" on="1"/>
        <pt x="371" y="732" on="0"/>
      </contour>
    </TTGlyph>
    <TTGlyph name="adieresis" xMin="47" yMin="-20" xMax="479" yMax="709">
      <contour>
        <pt x="135" y="592" on="1"/>
        <pt x="100" y="617" on="0"/>
        <pt x="84" y="659" on="1"/>
        <pt x="115" y="694" on="0"/>
        <pt x="152" y="709" on="1"/>
        <pt x="190" y="681" on="0"/>
        <pt x="201" y="643" on="1"/>
        <pt x="191" y="629" on="0"/>
        <pt x="151" y="598" on="0"/>
      </contour>
      <contour>
        <pt x="351" y="592" on="1"/>
        <pt x="316" y="617" on="0"/>
        <pt x="300" y="659" on="1"/>
        <pt x="331" y="694" on="0"/>
        <pt x="368" y="709" on="1"/>
        <pt x="406" y="681" on="0"/>
        <pt x="417" y="643" on="1"/>
        <pt x="407" y="629" on="0"/>
        <pt x="367" y="598" on="0"/>
      </contour>
      <contour>
        <pt x="395" y="364" on="1"/>
        <pt x="392" y="120" on="1"/>
        <pt x="392" y="47" on="0"/>
        <pt x="439" y="47" on="1"/>
        <pt x="475" y="48" on="1"/>
        <pt x="479" y="43" on="0"/>
        <pt x="479" y="32" on="1"/>
        <pt x="477" y="21" on="1"/>
        <pt x="400" y="7" on="0"/>
        <pt x="367" y="-20" on="1"/>
        <pt x="345" y="-14" on="0"/>
        <pt x="314" y="29" on="0"/>
        <pt x="312" y="53" on="1"/>
        <pt x="232" y="4" on="0"/>
        <pt x="153" y="-20" on="1"/>
        <pt x="119" y="-20" on="0"/>
        <pt x="47" y="57" on="0"/>
        <pt x="47" y="115" on="1"/>
        <pt x="47" y="144" on="0"/>
        <pt x="73" y="191" on="0"/>
        <pt x="91" y="200" on="1"/>
        <pt x="165" y="237" on="0"/>
        <pt x="311" y="265" on="1"/>
        <pt x="311" y="360" on="1"/>
        <pt x="311" y="415" on="0"/>
        <pt x="276" y="469" on="0"/>
        <pt x="227" y="469" on="0"/>
        <pt x="171" y="452" on="0"/>
        <pt x="148" y="404" on="0"/>
        <pt x="148" y="360" on="1"/>
        <pt x="148" y="356" on="0"/>
        <pt x="121" y="347" on="0"/>
        <pt x="80" y="347" on="0"/>
        <pt x="65" y="366" on="0"/>
        <pt x="65" y="385" on="1"/>
        <pt x="65" y="421" on="0"/>
        <pt x="117" y="463" on="1"/>
        <pt x="129" y="471" on="0"/>
        <pt x="246" y="509" on="0"/>
        <pt x="255" y="509" on="1"/>
        <pt x="327" y="509" on="0"/>
        <pt x="395" y="425" on="0"/>
      </contour>
      <contour>
        <pt x="136" y="96" on="0"/>
        <pt x="174" y="40" on="0"/>
        <pt x="223" y="40" on="0"/>
        <pt x="287" y="74" on="0"/>
        <pt x="308" y="93" on="1"/>
        <pt x="311" y="165" on="0"/>
        <pt x="311" y="229" on="1"/>
        <pt x="227" y="218" on="0"/>
        <pt x="163" y="181" on="1"/>
        <pt x="136" y="168" on="0"/>
        <pt x="136" y="120" on="1"/>
      </contour>
    </TTGlyph>
    <TTGlyph name="ae" xMin="47" yMin="-20" xMax="721" yMax="509">
      <contour>
        <pt x="553" y="52" on="1"/>
        <pt x="631" y="52" on="0"/>
        <pt x="691" y="96" on="1"/>
        <pt x="704" y="91" on="0"/>
        <pt x="707" y="75" on="1"/>
        <pt x="604" y="-1" on="1"/>
        <pt x="580" y="-20" on="0"/>
        <pt x="418" y="-20" on="0"/>
        <pt x="361" y="63" on="1"/>
        <pt x="243" y="-3" on="0"/>
        <pt x="155" y="-20" on="1"/>
        <pt x="121" y="-20" on="0"/>
        <pt x="47" y="57" on="0"/>
        <pt x="47" y="115" on="1"/>
        <pt x="47" y="146" on="0"/>
        <pt x="73" y="195" on="0"/>
        <pt x="91" y="205" on="1"/>
        <pt x="164" y="248" on="0"/>
        <pt x="311" y="277" on="1"/>
        <pt x="311" y="360" on="1"/>
        <pt x="311" y="415" on="0"/>
        <pt x="276" y="469" on="0"/>
        <pt x="227" y="469" on="0"/>
        <pt x="171" y="452" on="0"/>
        <pt x="148" y="404" on="0"/>
        <pt x="148" y="360" on="1"/>
        <pt x="148" y="356" on="0"/>
        <pt x="121" y="347" on="0"/>
        <pt x="80" y="347" on="0"/>
        <pt x="65" y="366" on="0"/>
        <pt x="65" y="385" on="1"/>
        <pt x="65" y="421" on="0"/>
        <pt x="117" y="463" on="1"/>
        <pt x="129" y="471" on="0"/>
        <pt x="246" y="509" on="0"/>
        <pt x="255" y="509" on="1"/>
        <pt x="349" y="509" on="0"/>
        <pt x="381" y="433" on="1"/>
        <pt x="431" y="487" on="0"/>
        <pt x="515" y="509" on="1"/>
        <pt x="566" y="509" on="0"/>
        <pt x="669" y="449" on="0"/>
        <pt x="688" y="380" on="1"/>
        <pt x="692" y="368" on="0"/>
        <pt x="715" y="367" on="1"/>
        <pt x="721" y="360" on="0"/>
        <pt x="721" y="345" on="0"/>
        <pt x="719" y="337" on="1"/>
        <pt x="552" y="288" on="0"/>
        <pt x="391" y="269" on="1"/>
        <pt x="391" y="215" on="0"/>
        <pt x="419" y="122" on="0"/>
        <pt x="496" y="52" on="0"/>
      </contour>
      <contour>
        <pt x="137" y="120" on="1"/>
        <pt x="137" y="96" on="0"/>
        <pt x="175" y="40" on="0"/>
        <pt x="201" y="40" on="1"/>
        <pt x="253" y="40" on="0"/>
        <pt x="341" y="97" on="1"/>
        <pt x="312" y="165" on="0"/>
        <pt x="312" y="240" on="1"/>
        <pt x="231" y="227" on="0"/>
        <pt x="164" y="187" on="1"/>
        <pt x="137" y="170" on="0"/>
      </contour>
      <contour>
        <pt x="617" y="357" on="0"/>
        <pt x="617" y="369" on="0"/>
        <pt x="594" y="416" on="0"/>
        <pt x="535" y="469" on="0"/>
        <pt x="469" y="469" on="0"/>
        <pt x="453" y="457" on="1"/>
        <pt x="404" y="420" on="0"/>
        <pt x="395" y="311" on="1"/>
        <pt x="452" y="311" on="0"/>
        <pt x="572" y="337" on="0"/>
        <pt x="612" y="356" on="1"/>
      </contour>
    </TTGlyph>
    <TTGlyph name="agrave" xMin="47" yMin="-20" xMax="479" yMax="748">
      <contour>
        <pt x="395" y="364" on="1"/>
        <pt x="392" y="120" on="1"/>
        <pt x="392" y="47" on="0"/>
        <pt x="439" y="47" on="1"/>
        <pt x="475" y="48" on="1"/>
        <pt x="479" y="43" on="0"/>
        <pt x="479" y="32" on="1"/>
        <pt x="477" y="21" on="1"/>
        <pt x="400" y="7" on="0"/>
        <pt x="367" y="-20" on="1"/>
        <pt x="345" y="-14" on="0"/>
        <pt x="314" y="29" on="0"/>
        <pt x="312" y="53" on="1"/>
        <pt x="232" y="4" on="0"/>
        <pt x="153" y="-20" on="1"/>
        <pt x="119" y="-20" on="0"/>
        <pt x="47" y="57" on="0"/>
        <pt x="47" y="115" on="1"/>
        <pt x="47" y="144" on="0"/>
        <pt x="73" y="191" on="0"/>
        <pt x="91" y="200" on="1"/>
        <pt x="165" y="237" on="0"/>
        <pt x="311" y="265" on="1"/>
        <pt x="311" y="360" on="1"/>
        <pt x="311" y="415" on="0"/>
        <pt x="276" y="469" on="0"/>
        <pt x="227" y="469" on="0"/>
        <pt x="171" y="452" on="0"/>
        <pt x="148" y="404" on="0"/>
        <pt x="148" y="360" on="1"/>
        <pt x="148" y="356" on="0"/>
        <pt x="121" y="347" on="0"/>
        <pt x="80" y="347" on="0"/>
        <pt x="65" y="366" on="0"/>
        <pt x="65" y="385" on="1"/>
        <pt x="65" y="421" on="0"/>
        <pt x="117" y="463" on="1"/>
        <pt x="129" y="471" on="0"/>
        <pt x="246" y="509" on="0"/>
        <pt x="255" y="509" on="1"/>
        <pt x="327" y="509" on="0"/>
        <pt x="395" y="425" on="0"/>
      </contour>
      <contour>
        <pt x="136" y="96" on="0"/>
        <pt x="174" y="40" on="0"/>
        <pt x="223" y="40" on="0"/>
        <pt x="287" y="74" on="0"/>
        <pt x="308" y="93" on="1"/>
        <pt x="311" y="153" on="0"/>
        <pt x="311" y="229" on="1"/>
        <pt x="227" y="218" on="0"/>
        <pt x="163" y="181" on="1"/>
        <pt x="136" y="168" on="0"/>
        <pt x="136" y="120" on="1"/>
      </contour>
      <contour>
        <pt x="297" y="547" on="1"/>
        <pt x="125" y="697" on="1"/>
        <pt x="141" y="732" on="0"/>
        <pt x="181" y="748" on="1"/>
        <pt x="247" y="657" on="0"/>
        <pt x="299" y="590" on="1"/>
        <pt x="320" y="564" on="1"/>
        <pt x="316" y="547" on="0"/>
      </contour>
    </TTGlyph>
    <TTGlyph name="ampersand" xMin="35" yMin="-20" xMax="833" yMax="736">
      <contour>
        <pt x="529" y="517" on="1"/>
        <pt x="649" y="515" on="1"/>
        <pt x="733" y="515" on="0"/>
        <pt x="765" y="520" on="1"/>
        <pt x="771" y="509" on="0"/>
        <pt x="771" y="503" on="1"/>
        <pt x="769" y="495" on="1"/>
        <pt x="707" y="489" on="0"/>
        <pt x="666" y="429" on="1"/>
        <pt x="633" y="380" on="0"/>
        <pt x="609" y="325" on="1"/>
        <pt x="584" y="264" on="0"/>
        <pt x="535" y="168" on="1"/>
        <pt x="657" y="52" on="0"/>
        <pt x="760" y="35" on="1"/>
        <pt x="783" y="31" on="0"/>
        <pt x="831" y="31" on="1"/>
        <pt x="833" y="17" on="0"/>
        <pt x="833" y="4" on="0"/>
        <pt x="832" y="0" on="1"/>
        <pt x="767" y="-3" on="0"/>
        <pt x="682" y="-20" on="0"/>
        <pt x="666" y="-20" on="0"/>
        <pt x="622" y="-3" on="0"/>
        <pt x="535" y="51" on="0"/>
        <pt x="487" y="91" on="1"/>
        <pt x="449" y="41" on="0"/>
        <pt x="355" y="-11" on="0"/>
        <pt x="283" y="-20" on="1"/>
        <pt x="178" y="-20" on="0"/>
        <pt x="35" y="93" on="0"/>
        <pt x="35" y="185" on="1"/>
        <pt x="35" y="260" on="0"/>
        <pt x="108" y="367" on="0"/>
        <pt x="176" y="423" on="1"/>
        <pt x="119" y="516" on="0"/>
        <pt x="119" y="652" on="0"/>
        <pt x="218" y="727" on="0"/>
        <pt x="296" y="736" on="1"/>
        <pt x="352" y="736" on="0"/>
        <pt x="440" y="667" on="0"/>
        <pt x="440" y="617" on="1"/>
        <pt x="440" y="582" on="0"/>
        <pt x="413" y="555" on="1"/>
        <pt x="392" y="534" on="0"/>
        <pt x="360" y="512" on="0"/>
        <pt x="359" y="511" on="1"/>
        <pt x="340" y="528" on="1"/>
        <pt x="375" y="564" on="0"/>
        <pt x="375" y="650" on="0"/>
        <pt x="319" y="709" on="0"/>
        <pt x="244" y="709" on="0"/>
        <pt x="201" y="659" on="0"/>
        <pt x="201" y="571" on="0"/>
        <pt x="254" y="464" on="0"/>
        <pt x="304" y="406" on="1"/>
        <pt x="382" y="316" on="0"/>
        <pt x="479" y="224" on="1"/>
        <pt x="507" y="197" on="1"/>
        <pt x="578" y="337" on="0"/>
        <pt x="601" y="481" on="1"/>
        <pt x="571" y="487" on="0"/>
        <pt x="529" y="487" on="1"/>
        <pt x="525" y="495" on="0"/>
        <pt x="525" y="509" on="0"/>
      </contour>
      <contour>
        <pt x="305" y="27" on="1"/>
        <pt x="388" y="27" on="0"/>
        <pt x="456" y="117" on="1"/>
        <pt x="280" y="279" on="0"/>
        <pt x="199" y="389" on="1"/>
        <pt x="163" y="348" on="0"/>
        <pt x="136" y="284" on="0"/>
        <pt x="136" y="194" on="0"/>
        <pt x="154" y="127" on="0"/>
        <pt x="191" y="65" on="0"/>
        <pt x="259" y="27" on="0"/>
      </contour>
    </TTGlyph>
    <TTGlyph name="aring" xMin="47" yMin="-20" xMax="479" yMax="753">
      <contour>
        <pt x="343" y="653" on="1"/>
        <pt x="343" y="570" on="0"/>
        <pt x="236" y="553" on="1"/>
        <pt x="193" y="553" on="0"/>
        <pt x="133" y="611" on="0"/>
        <pt x="133" y="653" on="1"/>
        <pt x="133" y="737" on="0"/>
        <pt x="241" y="753" on="1"/>
        <pt x="284" y="753" on="0"/>
        <pt x="343" y="695" on="0"/>
      </contour>
      <contour>
        <pt x="245" y="584" on="1"/>
        <pt x="289" y="584" on="0"/>
        <pt x="289" y="640" on="1"/>
        <pt x="289" y="673" on="0"/>
        <pt x="258" y="723" on="0"/>
        <pt x="232" y="723" on="1"/>
        <pt x="187" y="723" on="0"/>
        <pt x="187" y="667" on="1"/>
        <pt x="187" y="634" on="0"/>
        <pt x="219" y="584" on="0"/>
      </contour>
      <contour>
        <pt x="395" y="364" on="1"/>
        <pt x="392" y="120" on="1"/>
        <pt x="392" y="47" on="0"/>
        <pt x="439" y="47" on="1"/>
        <pt x="475" y="48" on="1"/>
        <pt x="479" y="43" on="0"/>
        <pt x="479" y="32" on="1"/>
        <pt x="477" y="21" on="1"/>
        <pt x="400" y="7" on="0"/>
        <pt x="367" y="-20" on="1"/>
        <pt x="345" y="-14" on="0"/>
        <pt x="314" y="29" on="0"/>
        <pt x="312" y="53" on="1"/>
        <pt x="232" y="4" on="0"/>
        <pt x="153" y="-20" on="1"/>
        <pt x="119" y="-20" on="0"/>
        <pt x="47" y="57" on="0"/>
        <pt x="47" y="115" on="1"/>
        <pt x="47" y="144" on="0"/>
        <pt x="73" y="191" on="0"/>
        <pt x="91" y="200" on="1"/>
        <pt x="165" y="237" on="0"/>
        <pt x="311" y="265" on="1"/>
        <pt x="311" y="360" on="1"/>
        <pt x="311" y="415" on="0"/>
        <pt x="276" y="469" on="0"/>
        <pt x="227" y="469" on="0"/>
        <pt x="171" y="452" on="0"/>
        <pt x="148" y="404" on="0"/>
        <pt x="148" y="360" on="1"/>
        <pt x="148" y="356" on="0"/>
        <pt x="121" y="347" on="0"/>
        <pt x="80" y="347" on="0"/>
        <pt x="65" y="366" on="0"/>
        <pt x="65" y="385" on="1"/>
        <pt x="65" y="421" on="0"/>
        <pt x="117" y="463" on="1"/>
        <pt x="129" y="471" on="0"/>
        <pt x="246" y="509" on="0"/>
        <pt x="255" y="509" on="1"/>
        <pt x="327" y="509" on="0"/>
        <pt x="395" y="425" on="0"/>
      </contour>
      <contour>
        <pt x="136" y="96" on="0"/>
        <pt x="174" y="40" on="0"/>
        <pt x="223" y="40" on="0"/>
        <pt x="287" y="74" on="0"/>
        <pt x="308" y="93" on="1"/>
        <pt x="311" y="165" on="0"/>
        <pt x="311" y="229" on="1"/>
        <pt x="227" y="218" on="0"/>
        <pt x="163" y="181" on="1"/>
        <pt x="136" y="168" on="0"/>
        <pt x="136" y="120" on="1"/>
      </contour>
    </TTGlyph>
    <TTGlyph name="asciicircum" xMin="40" yMin="348" xMax="516" yMax="856">
      <contour>
        <pt x="263" y="856" on="1"/>
        <pt x="293" y="856" on="1"/>
        <pt x="358" y="725" on="0"/>
        <pt x="516" y="365" on="1"/>
        <pt x="499" y="348" on="0"/>
        <pt x="475" y="348" on="1"/>
        <pt x="281" y="748" on="1"/>
        <pt x="81" y="348" on="1"/>
        <pt x="57" y="348" on="0"/>
        <pt x="40" y="365" on="1"/>
        <pt x="198" y="725" on="0"/>
      </contour>
    </TTGlyph>
    <TTGlyph name="asciitilde" xMin="40" yMin="315" xMax="615" yMax="443">
      <contour>
        <pt x="155" y="363" on="1"/>
        <pt x="137" y="363" on="0"/>
        <pt x="105" y="352" on="0"/>
        <pt x="93" y="348" on="0"/>
        <pt x="61" y="333" on="0"/>
        <pt x="55" y="331" on="1"/>
        <pt x="45" y="337" on="0"/>
        <pt x="40" y="356" on="1"/>
        <pt x="66" y="371" on="0"/>
        <pt x="138" y="418" on="0"/>
        <pt x="179" y="443" on="0"/>
        <pt x="188" y="443" on="1"/>
        <pt x="229" y="443" on="0"/>
        <pt x="432" y="395" on="0"/>
        <pt x="501" y="395" on="1"/>
        <pt x="529" y="395" on="0"/>
        <pt x="600" y="427" on="1"/>
        <pt x="610" y="421" on="0"/>
        <pt x="615" y="401" on="1"/>
        <pt x="589" y="386" on="0"/>
        <pt x="518" y="340" on="0"/>
        <pt x="477" y="315" on="0"/>
        <pt x="468" y="315" on="1"/>
        <pt x="435" y="315" on="0"/>
        <pt x="217" y="363" on="0"/>
      </contour>
    </TTGlyph>
    <TTGlyph name="asterisk" xMin="3" yMin="480" xMax="400" yMax="880">
      <contour>
        <pt x="260" y="872" on="1"/>
        <pt x="227" y="799" on="0"/>
        <pt x="217" y="709" on="1"/>
        <pt x="352" y="787" on="1"/>
        <pt x="379" y="751" on="0"/>
        <pt x="400" y="735" on="1"/>
        <pt x="397" y="724" on="1"/>
        <pt x="306" y="713" on="0"/>
        <pt x="233" y="680" on="1"/>
        <pt x="368" y="600" on="1"/>
        <pt x="351" y="564" on="0"/>
        <pt x="345" y="533" on="1"/>
        <pt x="336" y="531" on="1"/>
        <pt x="284" y="601" on="0"/>
        <pt x="217" y="652" on="1"/>
        <pt x="217" y="496" on="1"/>
        <pt x="176" y="491" on="0"/>
        <pt x="149" y="480" on="1"/>
        <pt x="141" y="488" on="1"/>
        <pt x="171" y="555" on="0"/>
        <pt x="185" y="652" on="1"/>
        <pt x="49" y="576" on="1"/>
        <pt x="25" y="610" on="0"/>
        <pt x="3" y="628" on="1"/>
        <pt x="3" y="635" on="0"/>
        <pt x="5" y="639" on="1"/>
        <pt x="84" y="646" on="0"/>
        <pt x="167" y="679" on="1"/>
        <pt x="33" y="756" on="1"/>
        <pt x="46" y="787" on="0"/>
        <pt x="53" y="823" on="1"/>
        <pt x="64" y="827" on="1"/>
        <pt x="113" y="759" on="0"/>
        <pt x="184" y="708" on="1"/>
        <pt x="184" y="864" on="1"/>
        <pt x="225" y="869" on="0"/>
        <pt x="252" y="880" on="1"/>
      </contour>
    </TTGlyph>
    <TTGlyph name="at" xMin="64" yMin="-193" xMax="853" yMax="623">
      <contour>
        <pt x="463" y="-193" on="1"/>
        <pt x="280" y="-193" on="0"/>
        <pt x="64" y="6" on="0"/>
        <pt x="64" y="184" on="1"/>
        <pt x="64" y="301" on="0"/>
        <pt x="189" y="505" on="0"/>
        <pt x="398" y="623" on="0"/>
        <pt x="516" y="623" on="1"/>
        <pt x="667" y="623" on="0"/>
        <pt x="853" y="445" on="0"/>
        <pt x="853" y="296" on="1"/>
        <pt x="853" y="191" on="0"/>
        <pt x="807" y="112" on="1"/>
        <pt x="756" y="25" on="0"/>
        <pt x="639" y="-7" on="1"/>
        <pt x="576" y="-7" on="0"/>
        <pt x="556" y="62" on="1"/>
        <pt x="539" y="122" on="0"/>
        <pt x="535" y="209" on="1"/>
        <pt x="456" y="49" on="0"/>
        <pt x="383" y="12" on="1"/>
        <pt x="346" y="19" on="0"/>
        <pt x="287" y="95" on="0"/>
        <pt x="287" y="216" on="0"/>
        <pt x="330" y="321" on="0"/>
        <pt x="387" y="379" on="0"/>
        <pt x="422" y="398" on="1"/>
        <pt x="476" y="429" on="0"/>
        <pt x="556" y="436" on="0"/>
        <pt x="567" y="440" on="1"/>
        <pt x="613" y="456" on="1"/>
        <pt x="622" y="456" on="0"/>
        <pt x="624" y="451" on="1"/>
        <pt x="613" y="294" on="0"/>
        <pt x="613" y="165" on="1"/>
        <pt x="613" y="114" on="0"/>
        <pt x="645" y="31" on="0"/>
        <pt x="664" y="31" on="1"/>
        <pt x="696" y="31" on="0"/>
        <pt x="769" y="189" on="0"/>
        <pt x="769" y="297" on="1"/>
        <pt x="769" y="434" on="0"/>
        <pt x="626" y="588" on="0"/>
        <pt x="493" y="588" on="1"/>
        <pt x="397" y="588" on="0"/>
        <pt x="241" y="469" on="0"/>
        <pt x="159" y="286" on="0"/>
        <pt x="159" y="185" on="1"/>
        <pt x="159" y="31" on="0"/>
        <pt x="320" y="-155" on="0"/>
        <pt x="467" y="-155" on="1"/>
        <pt x="558" y="-155" on="0"/>
        <pt x="636" y="-131" on="1"/>
        <pt x="647" y="-140" on="0"/>
        <pt x="647" y="-161" on="1"/>
        <pt x="553" y="-193" on="0"/>
      </contour>
      <contour>
        <pt x="408" y="91" on="1"/>
        <pt x="445" y="91" on="0"/>
        <pt x="538" y="251" on="0"/>
        <pt x="544" y="329" on="1"/>
        <pt x="549" y="396" on="1"/>
        <pt x="504" y="396" on="0"/>
        <pt x="437" y="388" on="0"/>
        <pt x="371" y="268" on="0"/>
        <pt x="371" y="177" on="1"/>
        <pt x="371" y="139" on="0"/>
        <pt x="393" y="91" on="0"/>
      </contour>
    </TTGlyph>
    <TTGlyph name="atilde" xMin="47" yMin="-20" xMax="479" yMax="671">
      <contour>
        <pt x="395" y="364" on="1"/>
        <pt x="392" y="120" on="1"/>
        <pt x="392" y="47" on="0"/>
        <pt x="439" y="47" on="1"/>
        <pt x="475" y="48" on="1"/>
        <pt x="479" y="43" on="0"/>
        <pt x="479" y="32" on="1"/>
        <pt x="477" y="21" on="1"/>
        <pt x="400" y="7" on="0"/>
        <pt x="367" y="-20" on="1"/>
        <pt x="345" y="-14" on="0"/>
        <pt x="314" y="29" on="0"/>
        <pt x="312" y="53" on="1"/>
        <pt x="232" y="4" on="0"/>
        <pt x="153" y="-20" on="1"/>
        <pt x="119" y="-20" on="0"/>
        <pt x="47" y="57" on="0"/>
        <pt x="47" y="115" on="1"/>
        <pt x="47" y="144" on="0"/>
        <pt x="73" y="191" on="0"/>
        <pt x="91" y="200" on="1"/>
        <pt x="165" y="237" on="0"/>
        <pt x="311" y="265" on="1"/>
        <pt x="311" y="360" on="1"/>
        <pt x="311" y="415" on="0"/>
        <pt x="276" y="469" on="0"/>
        <pt x="227" y="469" on="0"/>
        <pt x="171" y="452" on="0"/>
        <pt x="148" y="404" on="0"/>
        <pt x="148" y="360" on="1"/>
        <pt x="148" y="356" on="0"/>
        <pt x="121" y="347" on="0"/>
        <pt x="80" y="347" on="0"/>
        <pt x="65" y="366" on="0"/>
        <pt x="65" y="385" on="1"/>
        <pt x="65" y="421" on="0"/>
        <pt x="117" y="463" on="1"/>
        <pt x="129" y="471" on="0"/>
        <pt x="246" y="509" on="0"/>
        <pt x="255" y="509" on="1"/>
        <pt x="327" y="509" on="0"/>
        <pt x="395" y="425" on="0"/>
      </contour>
      <contour>
        <pt x="136" y="96" on="0"/>
        <pt x="174" y="40" on="0"/>
        <pt x="223" y="40" on="0"/>
        <pt x="287" y="74" on="0"/>
        <pt x="308" y="93" on="1"/>
        <pt x="311" y="165" on="0"/>
        <pt x="311" y="229" on="1"/>
        <pt x="227" y="218" on="0"/>
        <pt x="163" y="181" on="1"/>
        <pt x="136" y="168" on="0"/>
        <pt x="136" y="120" on="1"/>
      </contour>
      <contour>
        <pt x="315" y="577" on="1"/>
        <pt x="287" y="577" on="0"/>
        <pt x="188" y="608" on="0"/>
        <pt x="140" y="608" on="0"/>
        <pt x="93" y="580" on="1"/>
        <pt x="84" y="585" on="0"/>
        <pt x="77" y="600" on="1"/>
        <pt x="95" y="614" on="0"/>
        <pt x="114" y="630" on="1"/>
        <pt x="163" y="671" on="0"/>
        <pt x="205" y="671" on="0"/>
        <pt x="298" y="640" on="0"/>
        <pt x="337" y="640" on="0"/>
        <pt x="349" y="643" on="0"/>
        <pt x="364" y="651" on="0"/>
        <pt x="371" y="655" on="0"/>
        <pt x="390" y="668" on="0"/>
        <pt x="392" y="669" on="1"/>
        <pt x="405" y="666" on="0"/>
        <pt x="409" y="647" on="1"/>
        <pt x="389" y="632" on="0"/>
        <pt x="327" y="577" on="0"/>
      </contour>
    </TTGlyph>
    <TTGlyph name="b" xMin="11" yMin="-20" xMax="549" yMax="895">
      <contour>
        <pt x="179" y="88" on="1"/>
        <pt x="179" y="64" on="0"/>
        <pt x="291" y="23" on="0"/>
        <pt x="313" y="23" on="1"/>
        <pt x="370" y="23" on="0"/>
        <pt x="465" y="125" on="0"/>
        <pt x="465" y="193" on="1"/>
        <pt x="465" y="297" on="0"/>
        <pt x="371" y="439" on="0"/>
        <pt x="258" y="439" on="0"/>
        <pt x="179" y="376" on="1"/>
      </contour>
      <contour>
        <pt x="549" y="231" on="1"/>
        <pt x="549" y="164" on="0"/>
        <pt x="484" y="60" on="0"/>
        <pt x="436" y="33" on="1"/>
        <pt x="343" y="-20" on="0"/>
        <pt x="268" y="-20" on="1"/>
        <pt x="242" y="-20" on="0"/>
        <pt x="131" y="4" on="1"/>
        <pt x="92" y="-20" on="1"/>
        <pt x="82" y="-20" on="0"/>
        <pt x="77" y="-11" on="1"/>
        <pt x="92" y="44" on="0"/>
        <pt x="100" y="195" on="0"/>
        <pt x="100" y="439" on="1"/>
        <pt x="100" y="675" on="1"/>
        <pt x="100" y="741" on="0"/>
        <pt x="80" y="794" on="0"/>
        <pt x="48" y="799" on="1"/>
        <pt x="13" y="803" on="1"/>
        <pt x="11" y="811" on="0"/>
        <pt x="11" y="815" on="1"/>
        <pt x="13" y="828" on="1"/>
        <pt x="67" y="838" on="0"/>
        <pt x="123" y="857" on="0"/>
        <pt x="184" y="895" on="1"/>
        <pt x="193" y="895" on="0"/>
        <pt x="199" y="885" on="1"/>
        <pt x="179" y="768" on="0"/>
        <pt x="179" y="419" on="1"/>
        <pt x="301" y="490" on="0"/>
        <pt x="360" y="509" on="1"/>
        <pt x="435" y="493" on="0"/>
        <pt x="549" y="342" on="0"/>
      </contour>
    </TTGlyph>
    <TTGlyph name="backslash" xMin="9" yMin="-104" xMax="324" yMax="860">
      <contour>
        <pt x="195" y="387" on="1"/>
        <pt x="324" y="-73" on="1"/>
        <pt x="276" y="-103" on="1"/>
        <pt x="273" y="-104" on="0"/>
        <pt x="269" y="-104" on="1"/>
        <pt x="257" y="-99" on="1"/>
        <pt x="240" y="19" on="0"/>
        <pt x="139" y="369" on="1"/>
        <pt x="9" y="831" on="1"/>
        <pt x="46" y="849" on="0"/>
        <pt x="57" y="859" on="1"/>
        <pt x="60" y="860" on="0"/>
        <pt x="65" y="860" on="1"/>
        <pt x="76" y="855" on="1"/>
        <pt x="94" y="738" on="0"/>
      </contour>
    </TTGlyph>
    <TTGlyph name="bar" xMin="103" yMin="-424" xMax="181" yMax="856">
      <contour>
        <pt x="113" y="68" on="1"/>
        <pt x="113" y="840" on="1"/>
        <pt x="143" y="847" on="0"/>
        <pt x="167" y="856" on="1"/>
        <pt x="176" y="856" on="0"/>
        <pt x="181" y="847" on="1"/>
        <pt x="171" y="749" on="0"/>
        <pt x="171" y="364" on="1"/>
        <pt x="171" y="-408" on="1"/>
        <pt x="141" y="-415" on="0"/>
        <pt x="117" y="-424" on="1"/>
        <pt x="108" y="-424" on="0"/>
        <pt x="103" y="-415" on="1"/>
        <pt x="113" y="-317" on="0"/>
      </contour>
    </TTGlyph>
    <TTGlyph name="braceleft" xMin="107" yMin="-228" xMax="373" yMax="903">
      <contour>
        <pt x="167" y="359" on="1"/>
        <pt x="197" y="341" on="0"/>
        <pt x="242" y="300" on="0"/>
        <pt x="249" y="288" on="1"/>
        <pt x="256" y="276" on="1"/>
        <pt x="256" y="162" on="0"/>
        <pt x="288" y="-136" on="0"/>
        <pt x="307" y="-153" on="1"/>
        <pt x="329" y="-173" on="0"/>
        <pt x="362" y="-191" on="1"/>
        <pt x="373" y="-197" on="1"/>
        <pt x="373" y="-214" on="0"/>
        <pt x="363" y="-228" on="1"/>
        <pt x="236" y="-187" on="1"/>
        <pt x="217" y="-87" on="0"/>
        <pt x="180" y="202" on="0"/>
        <pt x="168" y="261" on="0"/>
        <pt x="134" y="335" on="0"/>
        <pt x="107" y="359" on="1"/>
        <pt x="135" y="386" on="0"/>
        <pt x="169" y="461" on="0"/>
        <pt x="179" y="512" on="0"/>
        <pt x="217" y="782" on="0"/>
        <pt x="235" y="864" on="1"/>
        <pt x="359" y="903" on="1"/>
        <pt x="369" y="893" on="0"/>
        <pt x="369" y="875" on="1"/>
        <pt x="325" y="849" on="0"/>
        <pt x="284" y="812" on="0"/>
        <pt x="256" y="541" on="0"/>
        <pt x="256" y="432" on="1"/>
        <pt x="235" y="399" on="0"/>
      </contour>
    </TTGlyph>
    <TTGlyph name="braceright" xMin="31" yMin="-228" xMax="297" yMax="903">
      <contour>
        <pt x="237" y="359" on="1"/>
        <pt x="174" y="397" on="0"/>
        <pt x="155" y="422" on="1"/>
        <pt x="148" y="432" on="1"/>
        <pt x="148" y="541" on="0"/>
        <pt x="120" y="812" on="0"/>
        <pt x="101" y="829" on="1"/>
        <pt x="81" y="847" on="0"/>
        <pt x="46" y="868" on="1"/>
        <pt x="35" y="875" on="1"/>
        <pt x="35" y="891" on="0"/>
        <pt x="45" y="903" on="1"/>
        <pt x="169" y="864" on="1"/>
        <pt x="187" y="782" on="0"/>
        <pt x="225" y="512" on="0"/>
        <pt x="235" y="461" on="0"/>
        <pt x="269" y="386" on="0"/>
        <pt x="297" y="359" on="1"/>
        <pt x="270" y="335" on="0"/>
        <pt x="236" y="261" on="0"/>
        <pt x="224" y="202" on="0"/>
        <pt x="187" y="-90" on="0"/>
        <pt x="168" y="-187" on="1"/>
        <pt x="41" y="-228" on="1"/>
        <pt x="31" y="-217" on="0"/>
        <pt x="31" y="-197" on="1"/>
        <pt x="73" y="-176" on="0"/>
        <pt x="116" y="-136" on="0"/>
        <pt x="148" y="162" on="0"/>
        <pt x="148" y="276" on="1"/>
        <pt x="154" y="290" on="0"/>
        <pt x="207" y="341" on="0"/>
      </contour>
    </TTGlyph>
    <TTGlyph name="bracketleft" xMin="153" yMin="-197" xMax="351" yMax="875">
      <contour>
        <pt x="229" y="439" on="1"/>
        <pt x="229" y="239" on="1"/>
        <pt x="229" y="-49" on="0"/>
        <pt x="237" y="-95" on="0"/>
        <pt x="256" y="-114" on="0"/>
        <pt x="275" y="-117" on="1"/>
        <pt x="347" y="-124" on="1"/>
        <pt x="351" y="-132" on="0"/>
        <pt x="351" y="-137" on="1"/>
        <pt x="347" y="-151" on="1"/>
        <pt x="247" y="-165" on="0"/>
        <pt x="168" y="-197" on="1"/>
        <pt x="160" y="-197" on="0"/>
        <pt x="153" y="-188" on="1"/>
        <pt x="164" y="-91" on="0"/>
        <pt x="164" y="255" on="1"/>
        <pt x="164" y="423" on="1"/>
        <pt x="164" y="768" on="0"/>
        <pt x="153" y="865" on="1"/>
        <pt x="157" y="875" on="0"/>
        <pt x="168" y="875" on="1"/>
        <pt x="251" y="842" on="0"/>
        <pt x="347" y="828" on="1"/>
        <pt x="351" y="821" on="0"/>
        <pt x="351" y="809" on="0"/>
        <pt x="347" y="801" on="1"/>
        <pt x="298" y="797" on="0"/>
        <pt x="255" y="793" on="0"/>
        <pt x="235" y="770" on="0"/>
        <pt x="234" y="757" on="1"/>
        <pt x="229" y="718" on="0"/>
      </contour>
    </TTGlyph>
    <TTGlyph name="bracketright" xMin="59" yMin="-197" xMax="256" yMax="875">
      <contour>
        <pt x="180" y="239" on="1"/>
        <pt x="180" y="439" on="1"/>
        <pt x="180" y="730" on="0"/>
        <pt x="177" y="750" on="1"/>
        <pt x="171" y="790" on="0"/>
        <pt x="135" y="795" on="1"/>
        <pt x="63" y="801" on="1"/>
        <pt x="59" y="806" on="0"/>
        <pt x="59" y="813" on="1"/>
        <pt x="63" y="828" on="1"/>
        <pt x="158" y="842" on="0"/>
        <pt x="241" y="875" on="1"/>
        <pt x="250" y="875" on="0"/>
        <pt x="256" y="865" on="1"/>
        <pt x="245" y="768" on="0"/>
        <pt x="245" y="423" on="1"/>
        <pt x="245" y="255" on="1"/>
        <pt x="245" y="-91" on="0"/>
        <pt x="256" y="-188" on="1"/>
        <pt x="252" y="-197" on="0"/>
        <pt x="241" y="-197" on="1"/>
        <pt x="162" y="-165" on="0"/>
        <pt x="63" y="-151" on="1"/>
        <pt x="59" y="-145" on="0"/>
        <pt x="59" y="-129" on="0"/>
        <pt x="63" y="-124" on="1"/>
        <pt x="112" y="-121" on="0"/>
        <pt x="154" y="-114" on="0"/>
        <pt x="173" y="-94" on="0"/>
        <pt x="174" y="-84" on="1"/>
        <pt x="180" y="-45" on="0"/>
      </contour>
    </TTGlyph>
    <TTGlyph name="brokenbar" xMin="113" yMin="-415" xMax="181" yMax="856">
      <contour>
        <pt x="171" y="364" on="1"/>
        <pt x="171" y="323" on="1"/>
        <pt x="113" y="300" on="1"/>
        <pt x="113" y="840" on="1"/>
        <pt x="143" y="847" on="0"/>
        <pt x="167" y="856" on="1"/>
        <pt x="176" y="856" on="0"/>
        <pt x="181" y="847" on="1"/>
        <pt x="171" y="749" on="0"/>
      </contour>
      <contour>
        <pt x="167" y="-324" on="1"/>
        <pt x="167" y="-392" on="1"/>
        <pt x="113" y="-415" on="1"/>
        <pt x="113" y="152" on="1"/>
        <pt x="134" y="157" on="0"/>
        <pt x="163" y="168" on="1"/>
        <pt x="172" y="168" on="0"/>
        <pt x="177" y="159" on="1"/>
        <pt x="167" y="61" on="0"/>
      </contour>
    </TTGlyph>
    <TTGlyph name="bullet" xMin="100" yMin="151" xMax="361" yMax="412">
      <contour>
        <pt x="213" y="151" on="1"/>
        <pt x="136" y="206" on="0"/>
        <pt x="100" y="299" on="1"/>
        <pt x="128" y="331" on="0"/>
        <pt x="219" y="400" on="0"/>
        <pt x="252" y="412" on="1"/>
        <pt x="290" y="383" on="0"/>
        <pt x="350" y="300" on="0"/>
        <pt x="361" y="264" on="1"/>
        <pt x="338" y="233" on="0"/>
        <pt x="249" y="163" on="0"/>
      </contour>
    </TTGlyph>
    <TTGlyph name="c" xMin="40" yMin="-20" xMax="449" yMax="509">
      <contour>
        <pt x="288" y="509" on="1"/>
        <pt x="385" y="509" on="0"/>
        <pt x="448" y="451" on="1"/>
        <pt x="445" y="434" on="0"/>
        <pt x="410" y="396" on="0"/>
        <pt x="388" y="391" on="1"/>
        <pt x="356" y="429" on="0"/>
        <pt x="292" y="469" on="0"/>
        <pt x="199" y="469" on="0"/>
        <pt x="123" y="348" on="0"/>
        <pt x="123" y="219" on="0"/>
        <pt x="156" y="117" on="0"/>
        <pt x="236" y="47" on="0"/>
        <pt x="351" y="47" on="0"/>
        <pt x="440" y="85" on="1"/>
        <pt x="449" y="80" on="0"/>
        <pt x="449" y="65" on="1"/>
        <pt x="352" y="-1" on="1"/>
        <pt x="342" y="-7" on="0"/>
        <pt x="288" y="-20" on="0"/>
        <pt x="271" y="-20" on="1"/>
        <pt x="158" y="-20" on="0"/>
        <pt x="40" y="128" on="0"/>
        <pt x="40" y="240" on="1"/>
        <pt x="40" y="306" on="0"/>
        <pt x="88" y="409" on="0"/>
        <pt x="152" y="464" on="0"/>
        <pt x="190" y="482" on="1"/>
        <pt x="251" y="509" on="0"/>
      </contour>
    </TTGlyph>
    <TTGlyph name="ccedilla" xMin="40" yMin="-268" xMax="449" yMax="509">
      <contour>
        <pt x="212" y="-116" on="1"/>
        <pt x="207" y="-114" on="0"/>
        <pt x="209" y="-99" on="0"/>
        <pt x="209" y="-89" on="1"/>
        <pt x="221" y="-16" on="1"/>
        <pt x="132" y="1" on="0"/>
        <pt x="40" y="142" on="0"/>
        <pt x="40" y="240" on="1"/>
        <pt x="40" y="306" on="0"/>
        <pt x="88" y="409" on="0"/>
        <pt x="152" y="464" on="0"/>
        <pt x="190" y="482" on="1"/>
        <pt x="251" y="509" on="0"/>
        <pt x="288" y="509" on="1"/>
        <pt x="385" y="509" on="0"/>
        <pt x="448" y="451" on="1"/>
        <pt x="445" y="434" on="0"/>
        <pt x="410" y="396" on="0"/>
        <pt x="388" y="391" on="1"/>
        <pt x="356" y="429" on="0"/>
        <pt x="292" y="469" on="0"/>
        <pt x="199" y="469" on="0"/>
        <pt x="123" y="348" on="0"/>
        <pt x="123" y="219" on="0"/>
        <pt x="156" y="117" on="0"/>
        <pt x="236" y="47" on="0"/>
        <pt x="351" y="47" on="0"/>
        <pt x="440" y="85" on="1"/>
        <pt x="449" y="80" on="0"/>
        <pt x="449" y="65" on="1"/>
        <pt x="352" y="-1" on="1"/>
        <pt x="342" y="-7" on="0"/>
        <pt x="288" y="-20" on="0"/>
        <pt x="271" y="-20" on="1"/>
        <pt x="261" y="-20" on="1"/>
        <pt x="257" y="-68" on="1"/>
        <pt x="311" y="-90" on="0"/>
        <pt x="357" y="-136" on="0"/>
        <pt x="357" y="-215" on="0"/>
        <pt x="323" y="-253" on="0"/>
        <pt x="293" y="-268" on="1"/>
        <pt x="183" y="-268" on="1"/>
        <pt x="180" y="-264" on="0"/>
        <pt x="180" y="-255" on="1"/>
        <pt x="181" y="-243" on="1"/>
        <pt x="309" y="-241" on="0"/>
        <pt x="309" y="-187" on="1"/>
        <pt x="309" y="-162" on="0"/>
        <pt x="263" y="-129" on="0"/>
      </contour>
    </TTGlyph>
    <TTGlyph name="cedilla" xMin="200" yMin="-268" xMax="377" yMax="0">
      <contour>
        <pt x="232" y="-116" on="1"/>
        <pt x="227" y="-114" on="0"/>
        <pt x="229" y="-99" on="0"/>
        <pt x="229" y="-89" on="1"/>
        <pt x="244" y="0" on="1"/>
        <pt x="284" y="0" on="1"/>
        <pt x="277" y="-68" on="1"/>
        <pt x="331" y="-90" on="0"/>
        <pt x="377" y="-136" on="0"/>
        <pt x="377" y="-215" on="0"/>
        <pt x="343" y="-253" on="0"/>
        <pt x="313" y="-268" on="1"/>
        <pt x="203" y="-268" on="1"/>
        <pt x="200" y="-264" on="0"/>
        <pt x="200" y="-255" on="1"/>
        <pt x="201" y="-243" on="1"/>
        <pt x="329" y="-241" on="0"/>
        <pt x="329" y="-187" on="1"/>
        <pt x="329" y="-162" on="0"/>
        <pt x="283" y="-129" on="0"/>
      </contour>
    </TTGlyph>
    <TTGlyph name="cent" xMin="40" yMin="-132" xMax="433" yMax="625">
      <contour>
        <pt x="240" y="-132" on="1"/>
        <pt x="233" y="-132" on="0"/>
        <pt x="228" y="-125" on="1"/>
        <pt x="232" y="-17" on="1"/>
        <pt x="140" y="-5" on="0"/>
        <pt x="40" y="144" on="0"/>
        <pt x="40" y="247" on="1"/>
        <pt x="40" y="310" on="0"/>
        <pt x="79" y="410" on="0"/>
        <pt x="112" y="440" on="1"/>
        <pt x="171" y="495" on="0"/>
        <pt x="233" y="513" on="1"/>
        <pt x="233" y="615" on="1"/>
        <pt x="249" y="618" on="0"/>
        <pt x="271" y="625" on="1"/>
        <pt x="278" y="625" on="0"/>
        <pt x="281" y="619" on="1"/>
        <pt x="277" y="563" on="0"/>
        <pt x="277" y="524" on="1"/>
        <pt x="376" y="524" on="0"/>
        <pt x="433" y="465" on="1"/>
        <pt x="430" y="448" on="0"/>
        <pt x="397" y="412" on="0"/>
        <pt x="376" y="407" on="1"/>
        <pt x="334" y="471" on="0"/>
        <pt x="276" y="480" on="1"/>
        <pt x="276" y="40" on="1"/>
        <pt x="287" y="40" on="1"/>
        <pt x="321" y="40" on="0"/>
        <pt x="375" y="58" on="0"/>
        <pt x="423" y="83" on="1"/>
        <pt x="431" y="77" on="0"/>
        <pt x="432" y="63" on="1"/>
        <pt x="343" y="-3" on="1"/>
        <pt x="316" y="-16" on="0"/>
        <pt x="276" y="-20" on="1"/>
        <pt x="276" y="-121" on="1"/>
        <pt x="264" y="-124" on="0"/>
      </contour>
      <contour>
        <pt x="185" y="477" on="0"/>
        <pt x="109" y="355" on="0"/>
        <pt x="109" y="206" on="0"/>
        <pt x="173" y="72" on="0"/>
        <pt x="233" y="49" on="1"/>
        <pt x="233" y="481" on="1"/>
      </contour>
    </TTGlyph>
    <TTGlyph name="circumflex" xMin="156" yMin="547" xMax="464" yMax="756">
      <contour>
        <pt x="311" y="669" on="1"/>
        <pt x="179" y="547" on="1"/>
        <pt x="164" y="547" on="0"/>
        <pt x="156" y="564" on="1"/>
        <pt x="243" y="669" on="0"/>
        <pt x="304" y="756" on="1"/>
        <pt x="316" y="756" on="1"/>
        <pt x="370" y="678" on="0"/>
        <pt x="440" y="592" on="1"/>
        <pt x="464" y="564" on="1"/>
        <pt x="460" y="547" on="0"/>
        <pt x="441" y="547" on="1"/>
      </contour>
    </TTGlyph>
    <TTGlyph name="colon" xMin="53" yMin="-20" xMax="185" yMax="456">
      <contour>
        <pt x="111" y="324" on="1"/>
        <pt x="72" y="357" on="0"/>
        <pt x="53" y="399" on="1"/>
        <pt x="89" y="437" on="0"/>
        <pt x="131" y="456" on="1"/>
        <pt x="172" y="417" on="0"/>
        <pt x="185" y="380" on="1"/>
        <pt x="176" y="366" on="0"/>
        <pt x="130" y="333" on="0"/>
      </contour>
      <contour>
        <pt x="111" y="-20" on="1"/>
        <pt x="72" y="13" on="0"/>
        <pt x="53" y="55" on="1"/>
        <pt x="89" y="93" on="0"/>
        <pt x="131" y="112" on="1"/>
        <pt x="172" y="73" on="0"/>
        <pt x="185" y="36" on="1"/>
        <pt x="176" y="22" on="0"/>
        <pt x="130" y="-11" on="0"/>
      </contour>
    </TTGlyph>
</ttFont>
